<svg xmlns="http://www.w3.org/2000/svg" xmlns:xlink="http://www.w3.org/1999/xlink" width="984" zoomAndPan="magnify" viewBox="0 0 738 484.499986" height="646" preserveAspectRatio="xMidYMid meet" version="1.0"><defs><filter x="0%" y="0%" width="100%" height="100%" id="0223477c37"><feColorMatrix values="0 0 0 0 1 0 0 0 0 1 0 0 0 0 1 0 0 0 1 0" color-interpolation-filters="sRGB"/></filter><clipPath id="830d3641ea"><path d="M 0.378906 0 L 737.617188 0 L 737.617188 484 L 0.378906 484 Z M 0.378906 0 " clip-rule="nonzero"/></clipPath><mask id="df92a5ccf7"><g filter="url(#0223477c37)"><rect x="-73.8" width="885.6" fill="#000000" y="-48.449999" height="581.399983" fill-opacity="0.1"/></g></mask><clipPath id="27b703169c"><path d="M 111 0 L 736.871094 0 L 736.871094 198 L 111 198 Z M 111 0 " clip-rule="nonzero"/></clipPath><clipPath id="e0052ca0d0"><path d="M 0.378906 373 L 374 373 L 374 383 L 0.378906 383 Z M 0.378906 373 " clip-rule="nonzero"/></clipPath><clipPath id="e671f72ae6"><rect x="0" width="738" y="0" height="484"/></clipPath><clipPath id="25b118e39f"><path d="M 146 286 L 591 286 L 591 375.347656 L 146 375.347656 Z M 146 286 " clip-rule="nonzero"/></clipPath><clipPath id="e994904571"><path d="M 167 107.875 L 592 107.875 L 592 190 L 167 190 Z M 167 107.875 " clip-rule="nonzero"/></clipPath><clipPath id="642722908a"><path d="M 167 107.875 L 349 107.875 L 349 161 L 167 161 Z M 167 107.875 " clip-rule="nonzero"/></clipPath><clipPath id="16130bcac1"><path d="M 487.226562 9.722656 L 621.335938 9.722656 L 621.335938 143.835938 L 487.226562 143.835938 Z M 487.226562 9.722656 " clip-rule="nonzero"/></clipPath></defs><g clip-path="url(#830d3641ea)"><g mask="url(#df92a5ccf7)"><g><g clip-path="url(#e671f72ae6)"><g clip-path="url(#27b703169c)"><path fill="#424c69" d="M 309.757812 133.25 C 309.929688 118.515625 310.085938 103.785156 310.230469 89.0625 C 315.40625 89.320312 313.472656 93.359375 313.515625 95.875 C 313.753906 105.96875 313.839844 116.066406 313.515625 126.164062 C 313.386719 129.859375 313.882812 131.488281 315.128906 132.972656 C 317.578125 135.871094 321.574219 135.121094 329.375 135.121094 C 336.183594 135.121094 349.761719 135.464844 360.742188 134.605469 C 362.578125 134.5625 364.1875 133.941406 365.574219 132.734375 C 366.847656 131.371094 367.5625 129.761719 367.722656 127.902344 C 368.28125 124.207031 367.574219 122.46875 367.574219 118.300781 C 367.574219 105.992188 368.089844 93.640625 367.078125 81.332031 C 366.699219 80.320312 366.535156 79.277344 366.582031 78.199219 C 366.632812 77.121094 366.890625 76.09375 367.359375 75.121094 C 368.667969 71.257812 365.898438 66.722656 369.269531 63.179688 L 369.121094 63.738281 C 375.265625 65.886719 370.753906 71.472656 372.578125 75.058594 C 373.519531 76.90625 374.09375 78.859375 374.296875 80.921875 C 374.792969 87.925781 375.113281 98.515625 374.664062 117.203125 C 374.40625 127.945312 374.898438 130.203125 376.640625 131.917969 C 379.046875 134.28125 382.074219 134.066406 395.566406 134.21875 C 409.46875 134.390625 402.011719 134.582031 412.753906 134.539062 C 424.335938 134.539062 433.035156 134.261719 435.25 134.21875 C 449.601562 133.851562 448.761719 134.367188 476.800781 134.367188 C 491.558594 134.367188 491.023438 134.238281 512.914062 134.21875 C 525.355469 134.21875 531.5625 134.21875 539.640625 134.21875 C 561.621094 134.390625 572.621094 134.476562 574.253906 134.582031 C 581.9375 134.867188 589.613281 134.746094 597.285156 134.21875 C 605.0625 133.746094 607.234375 133.273438 608.996094 131.488281 C 611.144531 129.34375 611.359375 126.636719 610.84375 109.835938 C 610.648438 104.078125 610.433594 98.539062 610.347656 95.917969 C 610.046875 87.949219 609.984375 81.480469 609.960938 77.25 C 609.960938 52.265625 610.542969 28.875 611.207031 20.644531 C 611.359375 18.949219 611.574219 16.78125 611.703125 13.40625 C 611.832031 10.035156 611.703125 8.1875 611.980469 4.535156 C 612.089844 2.664062 612.238281 1.164062 612.347656 0.238281 C 613.011719 0.238281 613.722656 0.238281 614.496094 0.238281 C 615.261719 0.234375 616.03125 0.277344 616.792969 0.367188 C 616.792969 1.292969 616.792969 2.707031 616.792969 4.46875 C 616.792969 5.523438 616.902344 6.617188 617.179688 10.441406 C 617.179688 11.710938 617.394531 13.429688 617.546875 15.492188 C 617.417969 18.96875 617.289062 24.082031 617.289062 30.527344 C 617.289062 37.636719 617.503906 42.085938 617.632812 46.59375 C 617.78125 52.71875 617.847656 61.480469 617.417969 72.375 C 617.640625 74.136719 617.761719 75.902344 617.78125 77.679688 C 617.78125 79.203125 617.78125 79.828125 617.675781 81.976562 C 617.566406 84.640625 617.566406 86.59375 617.566406 89.214844 C 617.566406 91.363281 617.566406 91.191406 617.675781 96.367188 C 617.675781 98.839844 617.675781 100.664062 617.675781 102.148438 C 617.675781 102.148438 617.675781 104.960938 617.675781 109.429688 C 617.804688 122.316406 617.867188 128.761719 620.144531 131.234375 C 622.421875 133.703125 625.324219 133.960938 631.382812 134.949219 C 635.171875 135.542969 638.984375 135.707031 642.8125 135.441406 C 662.339844 134.820312 664.039062 136.539062 666.789062 134.21875 C 669.128906 132.21875 669.300781 129.75 669.539062 112.867188 C 669.710938 99.699219 669.796875 93.101562 669.816406 82.511719 C 669.816406 74.929688 669.945312 68.722656 670.03125 64.726562 C 670.546875 57.164062 670.847656 49.066406 670.761719 40.472656 C 670.761719 34.027344 670.441406 27.757812 670.03125 21.871094 L 674.996094 21.871094 C 677.035156 21.871094 679.054688 21.871094 681.03125 21.742188 C 680.429688 28.902344 679.980469 36.378906 679.679688 44.167969 C 679.464844 49.753906 679.34375 55.210938 679.3125 60.535156 L 679.054688 73.105469 C 678.753906 78.796875 678.5625 83.523438 678.433594 86.894531 C 677.9375 100.214844 678.261719 99.246094 677.832031 109.429688 C 677.660156 113.359375 677.832031 117.3125 677.574219 121.242188 C 677.273438 127.945312 676.84375 131.445312 679.054688 133.445312 C 679.808594 133.996094 680.632812 134.382812 681.539062 134.613281 C 682.441406 134.84375 683.351562 134.898438 684.277344 134.777344 C 693.191406 134.539062 717.082031 134.777344 720.457031 134.90625 C 729.050781 135.507812 731.390625 131.769531 731.089844 124.378906 C 731.359375 124.148438 731.660156 123.980469 731.996094 123.871094 C 732.332031 123.761719 732.675781 123.722656 733.027344 123.753906 C 733.378906 123.785156 733.710938 123.882812 734.023438 124.046875 C 734.335938 124.210938 734.605469 124.429688 734.828125 124.703125 C 735.34375 127.773438 735.882812 130.890625 736.140625 133.894531 C 736.398438 136.902344 736.957031 139.761719 735.601562 141.09375 C 733.796875 142.875 729.886719 141.542969 727.71875 140.898438 C 725.914062 140.382812 716.375 140.449219 697.273438 140.578125 C 682.878906 140.578125 680.773438 141.136719 679.054688 143.046875 C 677.335938 144.960938 677.273438 146.441406 676.90625 159.78125 C 676.734375 167 676.648438 170.523438 676.585938 178.339844 C 676.585938 182.636719 676.476562 188.585938 676.285156 195.976562 C 675.78125 196.460938 675.210938 196.832031 674.566406 197.09375 C 673.679688 197.382812 672.773438 197.472656 671.847656 197.371094 C 670.921875 197.265625 670.058594 196.972656 669.257812 196.492188 C 669.257812 190.972656 669.386719 186.546875 669.515625 183.605469 C 670.117188 169.253906 669.902344 163.433594 669.515625 151.789062 C 669.625 150.359375 669.464844 148.960938 669.027344 147.59375 C 668.59375 146.226562 667.917969 144.988281 667.003906 143.886719 C 664.855469 141.738281 662.148438 141.738281 657.25 141.523438 C 647.625 141.15625 637.914062 141.972656 628.351562 141.523438 C 626.28125 141.339844 624.324219 141.734375 622.488281 142.703125 C 621.871094 143.085938 621.292969 143.515625 620.746094 143.992188 C 618.40625 146.140625 617.460938 149.210938 617.179688 159.953125 C 616.988281 167.707031 617.308594 173.679688 617.4375 176.085938 C 617.652344 180.167969 617.996094 186.976562 618.425781 195.785156 C 616.890625 196.527344 615.273438 196.949219 613.570312 197.050781 C 611.902344 197.152344 610.277344 196.9375 608.691406 196.40625 C 608.949219 193.011719 609.316406 188.332031 609.679688 182.722656 C 611.722656 150.671875 610.175781 145.753906 606.972656 143.089844 C 605.707031 142.039062 600.699219 141.886719 590.6875 141.652344 C 579.257812 141.351562 569.65625 141.4375 554.574219 141.457031 L 511.710938 141.457031 L 477.832031 141.222656 C 461.460938 141.09375 453.210938 141.027344 450.632812 140.964844 C 445.539062 140.855469 440.191406 140.707031 432.15625 140.726562 C 425.859375 140.726562 425.324219 140.726562 420.167969 140.726562 C 410.132812 140.726562 408.242188 140.320312 398.984375 140.234375 C 381.109375 140.105469 378.359375 140.855469 376.359375 143.070312 C 375.652344 143.863281 374.664062 145.21875 373.890625 156.496094 C 373.289062 165.300781 373.375 172.132812 373.394531 179.523438 C 373.394531 183.195312 373.394531 188.78125 373.394531 195.742188 C 372.429688 195.890625 371.417969 196.042969 370.367188 196.148438 C 368.734375 196.34375 367.164062 196.449219 365.683594 196.515625 C 365.683594 192.347656 365.855469 186.804688 366.175781 180.273438 C 366.433594 174.730469 366.886719 167.601562 366.90625 158.792969 C 366.90625 146.355469 366.15625 144.121094 364.457031 142.554688 C 363.210938 141.394531 361.792969 140.878906 351.03125 140.578125 C 339.578125 140.253906 341.898438 140.855469 329.546875 140.941406 C 322.433594 140.941406 318.929688 140.8125 316.652344 143.414062 C 315.980469 144.269531 315.472656 145.21875 315.132812 146.257812 C 314.796875 147.292969 314.644531 148.359375 314.675781 149.449219 C 314.007812 160.398438 313.929688 171.355469 314.441406 182.316406 C 314.65625 185.644531 314.933594 190.5625 315.171875 196.601562 C 312.886719 197.058594 310.589844 197.144531 308.273438 196.859375 C 308.488281 193.140625 308.703125 188.136719 308.769531 182.207031 C 308.769531 178.253906 308.769531 176.515625 308.273438 162.25 C 307.757812 146.742188 307.714844 145.195312 306.125 143.542969 C 303.484375 140.898438 301.527344 142.726562 286.425781 141.695312 C 280.453125 141.265625 275.167969 141.414062 264.554688 141.695312 C 263.382812 141.644531 262.246094 141.804688 261.132812 142.175781 C 260.023438 142.546875 259.015625 143.101562 258.109375 143.84375 C 257.21875 144.851562 256.554688 145.992188 256.117188 147.265625 C 255.679688 148.539062 255.496094 149.84375 255.574219 151.1875 C 255.273438 161.929688 254.734375 172.863281 254.605469 183.691406 C 254.605469 186.460938 254.457031 190.777344 253.984375 196.128906 C 253.085938 196.769531 252.082031 197.070312 250.976562 197.03125 C 250.277344 197.003906 249.617188 196.824219 249 196.492188 C 248.742188 189.898438 248.527344 180.703125 248.828125 169.664062 C 249.214844 153.980469 250.265625 147.621094 245.992188 143.671875 C 244.445312 142.253906 243.027344 141.886719 228.136719 141.523438 C 214.28125 141.265625 201.347656 141.523438 192.023438 141.328125 C 189.902344 141.328125 187.753906 141.328125 185.578125 141.328125 C 168.390625 141.542969 151.203125 141.800781 134.015625 141.199219 C 132.589844 141.09375 131.199219 140.8125 129.847656 140.363281 C 124.304688 136.582031 116.203125 142.832031 111.5 135.699219 L 111.328125 135.699219 C 111.542969 135.570312 111.886719 135.355469 112.335938 135.121094 C 118.78125 131.683594 124.21875 135.25 127.375 133.292969 C 129.136719 132.199219 130.597656 129 128.859375 119.503906 C 130.535156 119.308594 132.511719 119.289062 133.15625 120.363281 C 133.386719 120.78125 133.453125 121.226562 133.347656 121.695312 C 131.328125 133.207031 137.171875 135.226562 147.121094 134.582031 C 160.011719 133.789062 172.792969 134.582031 185.640625 134.324219 C 187.789062 133.648438 189.9375 133.648438 192.085938 134.324219 C 208.070312 134.433594 224.054688 134.066406 240.039062 134.519531 C 241.222656 134.699219 242.390625 134.640625 243.550781 134.351562 C 244.707031 134.058594 245.765625 133.558594 246.722656 132.84375 C 247.503906 131.855469 248.058594 130.75 248.394531 129.539062 C 248.730469 128.324219 248.816406 127.089844 248.65625 125.839844 C 248.65625 120.621094 248.65625 115.273438 248.804688 108.65625 C 248.804688 103.199219 248.804688 97.765625 248.804688 92.308594 C 249.476562 92.222656 250.148438 92.183594 250.824219 92.199219 C 251.46875 92.199219 252.757812 92.394531 252.757812 92.394531 C 252.628906 100.300781 252.609375 105.519531 252.609375 108.847656 L 252.609375 116.089844 C 252.609375 119.117188 252.609375 122.53125 252.609375 126.25 C 252.609375 129.964844 252.757812 131.984375 254.261719 133.292969 C 255.363281 134.117188 256.59375 134.460938 257.957031 134.324219 C 275.015625 133.851562 292.441406 135.9375 309.757812 133.25 Z M 309.757812 133.25 " fill-opacity="1" fill-rule="nonzero"/></g><path fill="#424c69" d="M 490.464844 321.492188 C 472.546875 319.539062 454.585938 320.699219 436.625 321.042969 C 436.308594 321.171875 435.976562 321.234375 435.636719 321.226562 C 435.292969 321.21875 434.964844 321.140625 434.65625 320.996094 C 434.347656 320.851562 434.078125 320.648438 433.851562 320.394531 C 433.625 320.136719 433.460938 319.84375 433.359375 319.515625 C 433.191406 319.027344 433.117188 318.519531 433.132812 318.003906 C 433.148438 317.484375 433.257812 316.984375 433.453125 316.503906 C 433.652344 316.023438 433.925781 315.59375 434.28125 315.214844 C 434.632812 314.835938 435.042969 314.53125 435.507812 314.296875 C 448.871094 310.753906 462.492188 313.136719 476.003906 312.558594 C 488.144531 312.019531 489.28125 311.269531 489.304688 299.066406 C 489.324219 286.867188 490.097656 274.234375 488.53125 261.859375 C 488.285156 260.511719 488.171875 259.152344 488.1875 257.78125 C 488.179688 256.402344 488.28125 255.035156 488.488281 253.675781 C 490.335938 239.113281 489.132812 224.484375 489.304688 209.898438 C 489.304688 206.09375 488.402344 202.207031 490.269531 198.535156 C 490.730469 198.246094 491.222656 198.042969 491.75 197.925781 C 492.28125 197.808594 492.8125 197.785156 493.347656 197.851562 C 493.886719 197.921875 494.394531 198.078125 494.878906 198.324219 C 495.359375 198.570312 495.785156 198.890625 496.15625 199.285156 C 501.097656 211.101562 497.855469 223.496094 498.628906 235.609375 C 498.929688 241.339844 498.929688 247.066406 498.628906 252.796875 C 498.628906 254.191406 498.628906 255.609375 498.628906 257.09375 C 498.628906 258.574219 498.628906 259.84375 498.628906 261.214844 C 498.949219 274.792969 498.777344 288.390625 498.628906 302.03125 C 498.628906 309.292969 501.441406 312.773438 508.960938 312.621094 C 517.898438 312.386719 526.835938 312.621094 535.773438 312.621094 C 542.691406 312.621094 545.441406 309.226562 545.507812 302.570312 C 545.636719 288.972656 545.378906 275.394531 545.65625 261.753906 C 545.65625 260.359375 545.65625 258.960938 545.65625 257.585938 C 545.65625 256.210938 545.65625 254.730469 545.65625 253.289062 C 545.335938 239.347656 545.484375 225.363281 545.65625 211.507812 C 545.65625 207.210938 545.65625 202.917969 548.300781 199.222656 C 548.707031 198.835938 549.167969 198.535156 549.683594 198.3125 C 550.199219 198.089844 550.734375 197.960938 551.292969 197.925781 C 551.851562 197.890625 552.398438 197.949219 552.9375 198.105469 C 553.476562 198.261719 553.96875 198.503906 554.421875 198.835938 C 559.515625 207.425781 556.914062 217.007812 557.300781 226.160156 C 557.6875 235.308594 557.539062 243.988281 557.300781 252.902344 C 557.300781 254.320312 557.171875 255.738281 557.171875 257.199219 C 557.171875 258.660156 557.171875 259.992188 557.171875 261.496094 C 557.503906 274.730469 557.503906 287.960938 557.171875 301.195312 C 556.980469 309.785156 560.632812 312.707031 568.988281 312.859375 C 582.933594 313.074219 596.921875 311.011719 610.84375 314.40625 C 611.324219 314.628906 611.75 314.929688 612.125 315.304688 C 612.5 315.679688 612.796875 316.109375 613.019531 316.59375 C 613.242188 317.074219 613.375 317.578125 613.417969 318.109375 C 613.460938 318.636719 613.410156 319.15625 613.269531 319.667969 C 613.171875 320.003906 613.011719 320.308594 612.785156 320.578125 C 612.5625 320.847656 612.292969 321.0625 611.976562 321.214844 C 611.660156 321.371094 611.328125 321.457031 610.976562 321.472656 C 610.625 321.484375 610.289062 321.429688 609.960938 321.300781 C 593.742188 321.171875 577.5 321.300781 561.277344 320.804688 C 554.832031 320.613281 553.476562 323.320312 553.605469 329.011719 C 553.863281 340.976562 553.605469 352.964844 553.605469 364.949219 C 550.726562 367.097656 550.363281 364.132812 549.203125 362.800781 C 549.203125 351.546875 549.203125 340.3125 549.546875 329.078125 C 549.71875 323.320312 548.105469 320.632812 541.746094 320.847656 C 527.03125 321.320312 512.292969 321.214844 497.554688 321.34375 C 494.289062 331.160156 498.261719 341.515625 495.40625 351.417969 C 494.992188 351.949219 494.882812 352.535156 495.082031 353.179688 C 489.820312 353.179688 492.117188 349.140625 491.882812 346.734375 C 490.914062 338.164062 493.105469 329.699219 490.464844 321.492188 Z M 490.464844 321.492188 " fill-opacity="1" fill-rule="nonzero"/><path fill="#424c69" d="M 554.378906 201.199219 C 551.738281 201.199219 550.082031 201.003906 548.707031 201.070312 C 539.527344 201.5 530.089844 201.785156 520.390625 201.929688 C 512.257812 202.058594 504.292969 202.058594 496.5 201.929688 L 476.046875 202.402344 C 462.535156 202.402344 449 202.808594 435.484375 202.230469 C 433.289062 202.164062 431.097656 202.230469 428.910156 202.421875 C 410.027344 202.421875 391.140625 202.722656 372.257812 202.230469 L 367.960938 202.230469 C 350.601562 202.617188 333.21875 202.230469 315.859375 202.402344 C 313.714844 202.199219 311.566406 202.132812 309.414062 202.207031 C 290.550781 202.53125 271.6875 202.574219 252.84375 202.207031 L 248.546875 202.207031 C 229.683594 202.488281 187.574219 202.207031 185.40625 202.207031 C 168.089844 202.53125 150.773438 202.574219 133.457031 202.207031 C 132.574219 202.207031 131.113281 202.207031 129.160156 202.207031 C 110.832031 202.207031 107.375 201.585938 95.964844 201.519531 C 84.558594 201.457031 65.285156 201.972656 57.699219 201.519531 C 54.972656 201.371094 52.285156 201.027344 52.285156 201.027344 C 49.320312 200.660156 46.851562 200.1875 45.089844 199.800781 C 44.929688 199.773438 44.773438 199.722656 44.625 199.65625 C 44.476562 199.589844 44.339844 199.503906 44.210938 199.402344 C 44.085938 199.300781 43.972656 199.183594 43.875 199.054688 C 43.773438 198.921875 43.695312 198.78125 43.632812 198.632812 C 43.570312 198.480469 43.523438 198.324219 43.5 198.164062 C 43.476562 198.003906 43.472656 197.839844 43.488281 197.679688 C 43.507812 197.515625 43.542969 197.359375 43.597656 197.203125 C 43.65625 197.050781 43.730469 196.90625 43.820312 196.773438 L 43.457031 196.988281 C 45.515625 196.109375 47.664062 195.621094 49.902344 195.527344 C 53.273438 195.527344 56.089844 195.527344 58.128906 195.699219 C 62.039062 195.871094 62.425781 196 65.996094 196.105469 C 69.066406 196.105469 69.582031 196.105469 73.964844 196.105469 C 76.757812 196.105469 77.617188 196.214844 79.722656 196.277344 C 84.558594 196.277344 87.738281 196.277344 90.832031 196.277344 C 96.203125 196.277344 95.816406 196.277344 108.019531 196.515625 C 115.171875 196.515625 120.695312 196.515625 124.882812 196.644531 C 134.144531 196.644531 134.832031 196.644531 141.640625 196.644531 C 154.230469 196.644531 152.835938 196.945312 159.753906 196.878906 C 167.316406 196.878906 167.980469 196.558594 183.515625 196.148438 C 188.84375 196 191.507812 195.933594 194.257812 195.890625 C 201.410156 195.890625 204.074219 195.890625 219.007812 196.386719 C 229.75 196.6875 231.597656 196.019531 248.183594 196.019531 L 255.078125 196.019531 C 259.203125 196.019531 265.476562 196.019531 273.191406 195.890625 C 286.382812 195.742188 287.328125 195.589844 300.261719 195.460938 C 307.328125 195.460938 306.125 195.460938 312.398438 195.460938 C 323.871094 195.460938 326.34375 195.183594 337.925781 195.054688 C 342.714844 195.054688 347.808594 195.054688 354.511719 195.054688 C 364.585938 195.054688 363.339844 195.246094 373.566406 195.289062 C 383.792969 195.332031 391.226562 195.289062 399.671875 194.796875 L 400.464844 194.796875 C 402.207031 194.796875 405.214844 194.796875 426.117188 195.011719 C 441.886719 195.183594 455.378906 195.417969 462.039062 195.226562 C 467.582031 195.097656 468.484375 194.96875 474.714844 194.839844 C 487.476562 194.582031 497.101562 194.839844 499.1875 194.839844 C 499.1875 194.839844 541.015625 195.828125 548.214844 194.839844 L 548.234375 194.839844 C 548.730469 194.839844 550.039062 194.601562 551.695312 194.539062 L 552.832031 194.539062 C 554.070312 194.5 555.300781 194.542969 556.527344 194.667969 C 560.460938 194.988281 584.460938 194.214844 598.898438 194.902344 C 603.101562 195.140625 607.304688 195.140625 611.507812 194.902344 C 613.65625 194.773438 615.269531 194.625 615.804688 194.582031 C 623.648438 193.851562 630.84375 195.203125 640.105469 195.632812 C 652.136719 196.214844 665.886719 195.160156 671.214844 195.3125 L 675.039062 195.441406 L 678.109375 195.570312 L 716.78125 196.945312 C 716.933594 197.71875 716.929688 198.492188 716.765625 199.265625 C 716.601562 200.035156 716.292969 200.746094 715.835938 201.390625 C 713.6875 204.074219 709.757812 202.378906 696.886719 202.464844 C 692.589844 202.464844 691 202.679688 687.027344 202.464844 C 685.394531 202.359375 683.417969 202.207031 680.367188 202.144531 C 678.367188 202.144531 676.734375 202.144531 675.660156 202.144531 C 673.511719 202.144531 672.308594 202.144531 671.535156 202.144531 C 665.089844 202.144531 637.761719 201.070312 615.675781 201.046875 C 606.695312 201.046875 606.847656 201.21875 596.964844 201.046875 C 580.269531 201.046875 580.375 200.46875 571.824219 200.8125 C 568.042969 200.984375 562.542969 201.285156 554.378906 201.199219 Z M 554.378906 201.199219 " fill-opacity="1" fill-rule="nonzero"/><path fill="#424c69" d="M 497.101562 134.582031 L 489.839844 134.324219 C 489.839844 127.730469 489.949219 121.996094 489.96875 117.332031 C 490.121094 90.589844 489.96875 86.035156 486.359375 83.179688 C 484.210938 81.480469 484.210938 82.492188 464.058594 81.460938 L 448.785156 80.964844 C 442.210938 80.773438 438.902344 80.707031 437.226562 82.535156 C 435.550781 84.359375 436.429688 86.1875 436.945312 93.445312 C 437.613281 102.726562 436.945312 112.050781 436.945312 121.371094 C 437.097656 124.101562 437.355469 128.675781 437.65625 134.433594 L 429.0625 134.109375 C 429.167969 131.105469 429.296875 126.828125 429.425781 121.695312 C 429.855469 104.980469 429.425781 108.804688 429.683594 99.269531 C 430.050781 85.949219 430.738281 83.738281 428.609375 81.71875 C 426.484375 79.699219 424.054688 80.191406 411.617188 80.0625 C 407.320312 80.0625 403.023438 79.761719 398.554688 79.742188 C 392 79.742188 382.570312 79.589844 370.453125 79.246094 C 370.453125 77.421875 370.453125 75.59375 370.28125 73.769531 C 371.183594 72.910156 371.871094 73.105469 372.429688 74.15625 C 381.300781 74.628906 390.648438 74.90625 400.359375 74.886719 C 410.585938 74.886719 420.324219 74.578125 429.578125 73.964844 C 430.007812 70.847656 430.242188 68.121094 430.351562 65.886719 C 430.542969 61.804688 430.351562 58.777344 430.351562 58.132812 C 430.222656 55.339844 429.984375 52.910156 429.726562 51 C 430.773438 51.074219 431.820312 51.074219 432.863281 51 C 433.84375 50.957031 434.816406 50.863281 435.785156 50.71875 C 435.785156 51.601562 435.785156 52.867188 435.679688 54.4375 C 435.679688 56.777344 435.679688 57.9375 435.679688 58.5625 C 435.679688 61.203125 435.894531 61.480469 436.066406 65.605469 C 436.066406 67.753906 436.066406 67.753906 436.195312 69.300781 C 436.324219 71.449219 436.515625 73.039062 436.667969 74.15625 C 444.703125 75.082031 452.769531 75.597656 460.859375 75.703125 C 470.402344 75.8125 479.921875 75.363281 489.410156 74.347656 L 490.335938 73.75 C 491.066406 63.242188 491.386719 52.265625 491.238281 40.859375 C 491.238281 38.433594 491.238281 36.003906 491.085938 33.621094 C 491.796875 33.621094 492.570312 33.75 493.386719 33.769531 L 495.75 33.769531 C 495.597656 40.214844 495.511719 46.660156 495.554688 53.382812 C 495.597656 60.105469 495.75 66.746094 496.007812 73.125 C 496.074219 73.4375 496.195312 73.726562 496.371094 73.996094 C 496.546875 74.265625 496.765625 74.492188 497.023438 74.679688 C 497.285156 74.863281 497.570312 74.996094 497.878906 75.078125 C 498.191406 75.160156 498.503906 75.179688 498.820312 75.144531 C 500.410156 75.144531 518.714844 75.015625 544.96875 74.90625 L 556.398438 74.90625 L 597.652344 75.25 L 611.679688 75.378906 L 611.359375 79.976562 C 604.355469 80.214844 598.640625 80.320312 594.730469 80.40625 C 579.324219 80.664062 574.148438 80.40625 557 80.816406 C 551.394531 80.816406 550.683594 80.964844 547.484375 80.964844 C 538.394531 80.964844 533.839844 80.707031 524.988281 80.472656 C 503.503906 79.914062 500.648438 80.902344 498.800781 83.113281 C 497.359375 84.8125 497.167969 88.097656 496.824219 94.5625 C 496.285156 104.765625 496.996094 110.847656 497.1875 120.792969 C 497.296875 123.886719 497.316406 128.65625 497.101562 134.582031 Z M 497.101562 134.582031 " fill-opacity="1" fill-rule="nonzero"/><g clip-path="url(#e0052ca0d0)"><path fill="#424c69" d="M 2.078125 377.195312 L 2.785156 377.34375 L 3.238281 376.785156 C 4.332031 375.886719 5.535156 375.167969 6.847656 374.640625 C 8.261719 374.324219 9.6875 374.257812 11.121094 374.445312 C 30.09375 374.316406 49.0625 375.175781 68.035156 373.972656 C 69.457031 373.742188 70.890625 373.597656 72.332031 373.542969 C 91.109375 373.136719 109.886719 373.179688 128.664062 373.542969 L 132.960938 373.542969 C 150.320312 373.265625 167.679688 373.179688 185.039062 373.542969 C 187.1875 373.542969 189.335938 373.542969 191.484375 373.542969 C 210.328125 373.222656 229.167969 373.179688 248.011719 373.542969 L 252.308594 373.542969 C 271.105469 373.265625 289.882812 373.199219 308.660156 373.542969 L 312.957031 373.542969 C 330.535156 373.394531 348.128906 373.199219 365.703125 373.542969 C 367.113281 373.6875 368.496094 373.976562 369.851562 374.402344 C 371.136719 374.976562 372.339844 375.695312 373.460938 376.550781 L 373.136719 377.238281 C 373.246094 377.347656 373.34375 377.46875 373.421875 377.605469 C 373.5 377.738281 373.5625 377.878906 373.605469 378.03125 C 373.648438 378.179688 373.671875 378.332031 373.675781 378.488281 C 373.679688 378.644531 373.664062 378.796875 373.628906 378.949219 C 373.59375 379.101562 373.539062 379.246094 373.46875 379.386719 C 373.394531 379.523438 373.304688 379.648438 373.199219 379.765625 C 373.09375 379.878906 372.976562 379.980469 372.847656 380.066406 C 372.714844 380.152344 372.574219 380.21875 372.429688 380.265625 C 371.265625 380.910156 370.019531 381.226562 368.691406 381.210938 C 367.378906 380.953125 366.089844 380.652344 364.78125 380.351562 C 347.59375 380.589844 330.40625 379.40625 313.214844 380.996094 C 311.761719 380.90625 310.332031 380.675781 308.917969 380.308594 C 290.183594 380.761719 271.40625 379.148438 252.714844 381.191406 C 251.328125 381.722656 249.894531 382.082031 248.417969 382.265625 C 229.492188 383.101562 210.5625 382.757812 191.636719 382.480469 C 189.488281 382.480469 187.339844 382.480469 185.191406 382.480469 C 167.851562 382.800781 150.515625 382.84375 133.175781 382.480469 C 131.738281 382.480469 130.277344 382.480469 128.878906 382.480469 C 110.082031 382.757812 91.28125 382.824219 72.484375 382.480469 L 68.1875 382.480469 C 48.976562 382.738281 29.769531 382.78125 10.5625 382.480469 C 9.148438 382.351562 7.753906 382.113281 6.375 381.769531 C 4.441406 380.996094 2.335938 380.4375 1.261719 378.375 L 1.734375 378.699219 L 0.378906 377.644531 Z M 2.078125 377.195312 " fill-opacity="1" fill-rule="nonzero"/></g><path fill="#424c69" d="M 429.296875 198.210938 L 436.34375 198.210938 C 436.214844 201.628906 436.023438 206.804688 436.023438 213.25 C 436.023438 217.265625 436.023438 219.691406 436.515625 234.921875 C 436.925781 249.445312 436.96875 250.152344 437.011719 252.96875 C 437.011719 256.75 437.117188 261.773438 437.183594 271.851562 C 437.183594 272.816406 437.183594 281.6875 437.332031 292.621094 C 437.332031 296.917969 437.332031 299.066406 437.503906 301.988281 C 437.699219 307.808594 438.042969 312.578125 438.320312 315.867188 C 437.097656 317.242188 435.894531 318.636719 434.667969 320.03125 C 434.777344 321.234375 434.863281 322.503906 434.925781 323.792969 C 435.035156 326.628906 435.035156 329.335938 434.925781 331.847656 C 434.925781 333.757812 434.753906 335.734375 434.734375 337.753906 C 434.734375 339.023438 434.734375 340.246094 434.734375 341.449219 C 433.1875 342.074219 430.4375 342.976562 429.191406 341.773438 C 427.945312 340.570312 428.761719 339.195312 429.191406 336.335938 C 429.542969 333.480469 429.628906 330.617188 429.449219 327.746094 C 429.449219 325.339844 429.597656 322.933594 429.683594 320.527344 C 410.476562 317.648438 391.140625 320.527344 371.914062 319.109375 C 371.414062 318.632812 371.019531 318.082031 370.730469 317.457031 C 370.246094 316.273438 370.1875 315.070312 370.558594 313.847656 C 375.886719 313.738281 384.117188 313.632812 394.191406 313.675781 C 415.398438 313.804688 423.753906 314.535156 427.277344 309.25 C 427.964844 308.238281 428.050781 307.59375 428.179688 297.175781 C 428.332031 285.40625 428.417969 279.496094 428.351562 272.96875 C 428.351562 264.675781 428.179688 262.804688 428.351562 258.1875 C 428.503906 254.105469 428.675781 252.496094 428.847656 247.445312 C 428.996094 243 428.976562 240.660156 428.996094 235.136719 C 428.996094 222.570312 429.277344 221.175781 429.339844 209.039062 C 429.320312 204.355469 429.296875 200.46875 429.296875 198.210938 Z M 429.296875 198.210938 " fill-opacity="1" fill-rule="nonzero"/><path fill="#424c69" d="M 553.714844 74.757812 C 551.277344 75.871094 548.734375 76.636719 546.085938 77.054688 C 530.726562 77.269531 515.386719 77.054688 500.046875 77.054688 C 499.566406 77.089844 499.089844 77.058594 498.621094 76.960938 C 498.148438 76.863281 497.703125 76.703125 497.273438 76.480469 C 496.847656 76.257812 496.460938 75.984375 496.109375 75.652344 C 495.757812 75.324219 495.460938 74.953125 495.210938 74.542969 C 496.136719 73.492188 496.910156 73.597656 497.488281 74.886719 C 512.269531 75.015625 527.050781 74.992188 541.832031 75.316406 C 547.289062 75.316406 549.480469 73.363281 549.394531 67.839844 C 549.136719 53.0625 549.246094 38.28125 549.179688 23.503906 C 550.296875 22.191406 550.492188 19.207031 553.476562 21.355469 C 553.519531 39.214844 553.601562 57.015625 553.714844 74.757812 Z M 553.714844 74.757812 " fill-opacity="1" fill-rule="nonzero"/><path fill="#424c69" d="M 611.808594 199.070312 L 615.484375 199.265625 C 620.574219 209.46875 617.503906 220.402344 618.105469 230.992188 C 618.515625 238.292969 618.464844 245.589844 617.953125 252.882812 C 617.816406 254.300781 617.535156 255.6875 617.117188 257.050781 C 616.554688 258.34375 616.128906 259.683594 615.847656 261.066406 C 615.71875 278.25 615.847656 295.4375 615.847656 312.621094 C 615.203125 315.308594 617.996094 317.5625 616.835938 320.3125 L 617.203125 321.042969 C 614.257812 328.132812 616.730469 335.5625 615.761719 342.78125 C 615.484375 344.929688 617.609375 348.859375 612.519531 348.238281 C 612.609375 347.902344 612.621094 347.5625 612.550781 347.222656 C 612.476562 346.878906 612.332031 346.574219 612.109375 346.304688 C 610.660156 337.855469 610.660156 329.40625 612.109375 320.957031 L 612.109375 315.628906 C 607.640625 310.34375 608.886719 303.921875 608.824219 297.84375 C 608.671875 285.855469 608.609375 273.871094 608.824219 261.882812 C 608.824219 260.441406 608.824219 258.984375 608.953125 257.585938 C 609.082031 256.191406 608.953125 254.664062 608.953125 253.289062 C 608.609375 239.671875 608.800781 226.074219 608.84375 212.476562 C 608.800781 207.769531 608.566406 203.003906 611.808594 199.070312 Z M 611.808594 199.070312 " fill-opacity="1" fill-rule="nonzero"/><path fill="#424c69" d="M 672.847656 199.070312 L 675.917969 199.070312 C 677.9375 213.570312 676.21875 228.15625 676.84375 242.679688 C 677.015625 246.84375 675.984375 251.121094 677.722656 255.203125 L 677.917969 255.332031 C 678.097656 255.445312 678.261719 255.578125 678.410156 255.734375 C 678.558594 255.890625 678.683594 256.0625 678.789062 256.25 C 678.894531 256.4375 678.972656 256.636719 679.027344 256.84375 C 679.078125 257.054688 679.105469 257.265625 679.105469 257.480469 C 679.105469 257.695312 679.078125 257.90625 679.027344 258.113281 C 678.972656 258.320312 678.894531 258.519531 678.789062 258.707031 C 678.683594 258.894531 678.558594 259.066406 678.410156 259.222656 C 678.261719 259.378906 678.097656 259.511719 677.917969 259.628906 L 678.238281 260.335938 C 675.359375 264.632812 677.59375 269.421875 676.820312 273.914062 C 676.5 275.800781 677.722656 279.066406 673.578125 277.992188 L 672.847656 259.992188 C 672.015625 258.820312 671.296875 257.582031 670.699219 256.277344 C 670.273438 254.871094 669.972656 253.4375 669.796875 251.980469 C 669.257812 238.746094 669.539062 225.492188 669.558594 212.261719 C 669.753906 207.8125 669.472656 203.023438 672.847656 199.070312 Z M 672.847656 199.070312 " fill-opacity="1" fill-rule="nonzero"/><path fill="#424c69" d="M 66.617188 321.472656 C 52.585938 319.644531 38.492188 321.148438 24.441406 320.613281 C 23.003906 318.980469 22.875 317.476562 24.9375 316.210938 C 38.835938 315.738281 52.867188 317.390625 66.640625 315.265625 C 66.941406 315.652344 67.242188 316.058594 67.5625 316.445312 C 67.703125 316.789062 67.785156 317.148438 67.804688 317.519531 C 67.828125 317.890625 67.789062 318.257812 67.6875 318.613281 C 67.585938 318.972656 67.429688 319.304688 67.214844 319.609375 C 67.003906 319.914062 66.746094 320.179688 66.445312 320.398438 Z M 66.617188 321.472656 " fill-opacity="1" fill-rule="nonzero"/><path fill="#424c69" d="M 191.054688 133.25 C 190.765625 133.96875 190.765625 134.683594 191.054688 135.398438 L 185.855469 135.550781 C 185.855469 135.183594 185.964844 134.796875 186.007812 134.433594 C 186.136719 133.488281 186.15625 133.316406 186.15625 133.292969 C 186.15625 132.605469 186.351562 122.125 186.480469 96.023438 L 190.496094 96.023438 Z M 191.054688 133.25 " fill-opacity="1" fill-rule="nonzero"/><path fill="#424c69" d="M 371.460938 318.398438 C 387.230469 318.398438 403 318.269531 418.726562 318.398438 C 422.402344 318.398438 426.527344 317.132812 429.46875 320.546875 L 373.246094 321.105469 C 372.816406 321.34375 372.355469 321.4375 371.867188 321.386719 C 371.378906 321.335938 370.953125 321.148438 370.582031 320.828125 C 370.441406 320.371094 370.453125 319.917969 370.617188 319.46875 C 370.777344 319.015625 371.0625 318.660156 371.460938 318.398438 Z M 371.460938 318.398438 " fill-opacity="1" fill-rule="nonzero"/><path fill="#424c69" d="M 672.695312 257.480469 C 672.695312 258.359375 672.867188 259.21875 672.933594 260.101562 C 654.304688 259.800781 635.65625 258.984375 617.074219 260.570312 L 616.148438 261 L 615.398438 260.316406 C 615.503906 259.371094 615.613281 258.445312 615.742188 257.5 C 618.234375 254.515625 621.734375 254.320312 625.214844 254.257812 C 637.871094 254.042969 650.546875 254.0625 663.222656 254.257812 C 666.660156 254.300781 670.117188 254.644531 672.695312 257.480469 Z M 672.695312 257.480469 " fill-opacity="1" fill-rule="nonzero"/><path fill="#424c69" d="M 612.195312 76.992188 C 595.546875 76.992188 578.894531 77.164062 562.242188 77.164062 C 559.234375 77.164062 555.925781 77.894531 553.648438 74.800781 C 572.40625 75.808594 591.140625 75.507812 609.898438 74.972656 C 610.433594 73.726562 611.164062 73.597656 612.046875 74.542969 Z M 612.195312 76.992188 " fill-opacity="1" fill-rule="nonzero"/><path fill="#424c69" d="M 677.617188 255.160156 C 677.21875 254.882812 676.863281 254.558594 676.554688 254.1875 C 676.246094 253.816406 675.992188 253.410156 675.792969 252.96875 C 675.59375 252.527344 675.457031 252.070312 675.386719 251.589844 C 675.3125 251.113281 675.304688 250.632812 675.359375 250.152344 C 675.488281 233.097656 675.640625 216.054688 675.8125 199.027344 L 678.175781 199.027344 C 678.820312 199.566406 678.992188 200.058594 678.710938 200.511719 C 678.433594 200.960938 678.195312 201.132812 677.9375 201.132812 Z M 677.617188 255.160156 " fill-opacity="1" fill-rule="nonzero"/><path fill="#424c69" d="M 68.550781 259.992188 C 63.546875 260.1875 58.300781 260.273438 52.824219 260.207031 C 47.867188 260.207031 43.085938 260.035156 38.472656 259.691406 C 38.304688 259.550781 38.152344 259.394531 38.015625 259.222656 C 37.882812 259.046875 37.769531 258.863281 37.675781 258.664062 C 37.582031 258.464844 37.511719 258.257812 37.464844 258.042969 C 37.417969 257.828125 37.390625 257.613281 37.390625 257.394531 C 37.390625 257.171875 37.417969 256.957031 37.464844 256.742188 C 37.511719 256.527344 37.582031 256.320312 37.675781 256.125 C 37.769531 255.925781 37.882812 255.738281 38.015625 255.566406 C 38.152344 255.390625 38.304688 255.234375 38.472656 255.09375 C 43.070312 254.835938 47.769531 254.621094 52.566406 254.449219 C 57.835938 254.277344 62.992188 254.164062 68.035156 254.105469 C 67.808594 254.347656 67.679688 254.632812 67.648438 254.964844 C 67.628906 255.128906 67.628906 255.296875 67.648438 255.460938 C 67.496094 255.878906 67.453125 256.308594 67.519531 256.75 C 67.550781 257.042969 67.636719 257.324219 67.777344 257.585938 C 67.816406 257.835938 67.875 258.078125 67.949219 258.316406 C 68.101562 258.890625 68.304688 259.449219 68.550781 259.992188 Z M 68.550781 259.992188 " fill-opacity="1" fill-rule="nonzero"/><path fill="#424c69" d="M 615.160156 315.414062 C 615.785156 315.542969 616.40625 315.542969 617.03125 315.414062 C 625.410156 317.199219 633.917969 315.996094 642.359375 316.230469 C 642.542969 316.339844 642.714844 316.46875 642.867188 316.617188 C 643.019531 316.765625 643.152344 316.933594 643.261719 317.117188 C 643.375 317.300781 643.460938 317.492188 643.523438 317.699219 C 643.582031 317.902344 643.621094 318.113281 643.628906 318.324219 C 643.640625 318.539062 643.621094 318.75 643.578125 318.960938 C 643.535156 319.171875 643.464844 319.371094 643.371094 319.5625 C 643.277344 319.757812 643.160156 319.933594 643.023438 320.097656 C 642.882812 320.261719 642.726562 320.402344 642.554688 320.527344 L 616.773438 320.332031 C 616.234375 318.722656 615.699219 317.070312 615.160156 315.414062 Z M 615.160156 315.414062 " fill-opacity="1" fill-rule="nonzero"/><path fill="#424c69" d="M 185.964844 442.457031 C 186.195312 441.699219 186.101562 440.980469 185.683594 440.308594 C 185.863281 440.125 186.058594 439.964844 186.269531 439.824219 C 186.484375 439.679688 186.707031 439.5625 186.945312 439.46875 C 187.179688 439.371094 187.425781 439.304688 187.675781 439.257812 C 187.925781 439.210938 188.179688 439.195312 188.433594 439.199219 C 188.691406 439.207031 188.941406 439.242188 189.191406 439.300781 C 189.4375 439.359375 189.675781 439.441406 189.910156 439.550781 C 190.140625 439.65625 190.355469 439.789062 190.5625 439.941406 C 190.765625 440.09375 190.953125 440.265625 191.121094 440.457031 C 190.886719 441.136719 190.886719 441.820312 191.121094 442.5 L 190.347656 462.734375 C 185.082031 464.882812 188.199219 459.234375 186.050781 458.289062 C 186.769531 453.007812 186.742188 447.730469 185.964844 442.457031 Z M 185.964844 442.457031 " fill-opacity="1" fill-rule="nonzero"/><path fill="#424c69" d="M 186.199219 458.246094 C 187.898438 459.449219 188.070312 462.066406 190.496094 462.691406 L 190.753906 482.28125 C 190.597656 482.429688 190.414062 482.542969 190.214844 482.625 C 190.011719 482.703125 189.800781 482.742188 189.585938 482.742188 C 189.367188 482.742188 189.15625 482.703125 188.953125 482.625 C 188.753906 482.542969 188.570312 482.429688 188.414062 482.28125 C 187.703125 481.433594 186.921875 480.652344 186.070312 479.941406 C 186.050781 472.660156 186.113281 465.460938 186.199219 458.246094 Z M 186.199219 458.246094 " fill-opacity="1" fill-rule="nonzero"/><path fill="#424c69" d="M 313.410156 379.75 C 313.410156 388.085938 313.410156 396.398438 313.128906 404.710938 C 313.128906 407.933594 314.203125 411.714844 310.316406 413.820312 L 309.671875 381.597656 C 309.96875 380.882812 309.96875 380.167969 309.671875 379.449219 Z M 313.410156 379.75 " fill-opacity="1" fill-rule="nonzero"/><path fill="#424c69" d="M 580.183594 18.261719 C 582.484375 14.546875 586.285156 15.597656 589.617188 15.492188 C 596.964844 15.277344 604.3125 15.296875 611.660156 15.210938 C 611.789062 16.457031 611.9375 17.703125 612.089844 18.949219 L 611.035156 18.710938 L 609.960938 18.925781 Z M 580.183594 18.261719 " fill-opacity="1" fill-rule="nonzero"/><path fill="#424c69" d="M 341.46875 79.054688 C 345.230469 75.550781 350.0625 76.90625 354.359375 76.410156 C 358.398438 75.980469 362.695312 77.484375 366.5 74.972656 C 367.015625 73.769531 367.703125 73.664062 368.648438 74.585938 L 368.496094 79.914062 L 345.25 79.546875 Z M 341.46875 79.054688 " fill-opacity="1" fill-rule="nonzero"/><path fill="#424c69" d="M 677.765625 259.5 C 677.765625 258.082031 677.765625 256.683594 677.765625 255.203125 L 691.753906 255.050781 C 691.9375 255.175781 692.105469 255.324219 692.253906 255.492188 C 692.398438 255.660156 692.523438 255.847656 692.625 256.046875 C 692.722656 256.246094 692.796875 256.457031 692.839844 256.675781 C 692.886719 256.894531 692.902344 257.117188 692.890625 257.339844 C 692.878906 257.566406 692.839844 257.785156 692.769531 257.996094 C 692.703125 258.210938 692.609375 258.410156 692.488281 258.601562 C 692.367188 258.789062 692.222656 258.960938 692.058594 259.113281 C 691.894531 259.265625 691.714844 259.394531 691.515625 259.5 Z M 677.765625 259.5 " fill-opacity="1" fill-rule="nonzero"/><path fill="#424c69" d="M 398.832031 379.472656 L 385.941406 379.363281 L 372.859375 379.363281 C 372.972656 378.300781 373.03125 377.234375 373.03125 376.164062 C 373.03125 375.453125 373.03125 374.769531 373.03125 374.015625 C 377.175781 374.125 381.429688 374.273438 385.75 374.511719 C 390.066406 374.746094 394.601562 375.003906 398.898438 375.324219 C 398.875 376.722656 398.855469 378.140625 398.832031 379.472656 Z M 398.832031 379.472656 " fill-opacity="1" fill-rule="nonzero"/><path fill="#424c69" d="M 398.898438 379.171875 C 398.898438 377.988281 398.898438 376.808594 398.898438 375.605469 L 403.367188 374.875 C 403.566406 375.019531 403.746094 375.183594 403.90625 375.371094 C 404.066406 375.558594 404.203125 375.761719 404.316406 375.980469 C 404.425781 376.203125 404.511719 376.429688 404.570312 376.671875 C 404.625 376.910156 404.65625 377.152344 404.65625 377.398438 C 404.65625 377.644531 404.628906 377.886719 404.570312 378.128906 C 404.511719 378.367188 404.425781 378.597656 404.316406 378.816406 C 404.203125 379.035156 404.066406 379.238281 403.90625 379.425781 C 403.746094 379.613281 403.566406 379.777344 403.367188 379.921875 C 402.722656 379.730469 402.097656 379.921875 401.519531 380.867188 Z M 398.898438 379.171875 " fill-opacity="1" fill-rule="nonzero"/><path fill="#424c69" d="M 185.835938 196.40625 C 187.195312 176.976562 187.121094 157.550781 185.621094 138.128906 L 191.207031 138.257812 C 190.175781 157.589844 190.539062 176.921875 191.011719 196.257812 Z M 185.835938 196.40625 " fill-opacity="1" fill-rule="nonzero"/><path fill="#424c69" d="M 548.835938 196.320312 C 549.785156 176.984375 549.710938 157.652344 548.621094 138.320312 L 554.292969 138.320312 C 553.304688 157.65625 553.648438 176.988281 554.078125 196.320312 Z M 548.835938 196.320312 " fill-opacity="1" fill-rule="nonzero"/><path fill="#424c69" d="M 548.792969 135.398438 C 549.695312 116.753906 549.738281 98.128906 548.792969 79.546875 L 554.164062 79.546875 C 553.457031 98.128906 553.542969 116.710938 554.164062 135.292969 Z M 548.792969 135.398438 " fill-opacity="1" fill-rule="nonzero"/><path fill="#424c69" d="M 434.839844 138.234375 C 433.851562 157.570312 434.175781 176.902344 434.667969 196.234375 L 431.144531 195.957031 C 431.144531 180.015625 431.203125 164.070312 431.316406 148.117188 C 431.316406 144.636719 431.703125 141.070312 429.40625 138.019531 Z M 434.839844 138.234375 " fill-opacity="1" fill-rule="nonzero"/><path fill="#424c69" d="M 495.769531 138.257812 C 494.738281 157.589844 495.082031 176.921875 495.554688 196.257812 L 492.074219 195.957031 C 492.074219 180.015625 492.125 164.078125 492.226562 148.136719 C 492.226562 144.660156 492.546875 141.113281 490.269531 138.042969 Z M 495.769531 138.257812 " fill-opacity="1" fill-rule="nonzero"/><path fill="#424c69" d="M 133.414062 138.277344 C 133.414062 143.433594 133.21875 162.035156 133.175781 167.214844 C 133.175781 172.863281 132.984375 191.980469 132.917969 197.632812 L 127.140625 197.632812 C 127.039062 187.492188 126.996094 177.230469 127.011719 166.847656 C 127.011719 157.3125 127.097656 147.867188 127.269531 138.515625 Z M 133.414062 138.277344 " fill-opacity="1" fill-rule="nonzero"/><path fill="#424c69" d="M 673.039062 79.804688 L 616.988281 79.160156 C 616.988281 78.367188 617.203125 77.550781 617.332031 76.753906 L 672.71875 76.175781 Z M 673.039062 79.804688 " fill-opacity="1" fill-rule="nonzero"/><path fill="#424c69" d="M 617.417969 15.707031 C 620.898438 15.707031 623.625 15.835938 625.515625 15.835938 C 626.957031 15.835938 628.394531 15.835938 629.8125 15.835938 C 630.4375 15.835938 634.710938 15.640625 634.777344 16.070312 C 634.777344 16.070312 634.777344 16.070312 634.777344 16.414062 L 634.777344 17.25 C 634.820312 17.546875 634.820312 17.839844 634.777344 18.132812 C 631.789062 18.238281 628.71875 18.324219 625.601562 18.367188 C 622.832031 18.367188 620.125 18.367188 617.460938 18.367188 C 617.320312 17.898438 617.261719 17.417969 617.289062 16.929688 C 617.269531 16.515625 617.3125 16.105469 617.417969 15.707031 Z M 617.417969 15.707031 " fill-opacity="1" fill-rule="nonzero"/><path fill="#424c69" d="M 678.238281 76.5625 C 682.835938 76.992188 688.058594 74.242188 691.753906 79.246094 L 677.851562 79.246094 Z M 678.238281 76.5625 " fill-opacity="1" fill-rule="nonzero"/><path fill="#424c69" d="M 732.078125 124.058594 C 731.605469 121.394531 731.15625 118.730469 734.054688 117.011719 C 734.054688 119.351562 733.90625 121.695312 733.839844 124.058594 Z M 732.078125 124.058594 " fill-opacity="1" fill-rule="nonzero"/><path fill="#424c69" d="M 615.011719 13.214844 C 615.6875 13.542969 616.402344 13.722656 617.160156 13.75 C 617.351562 14.453125 617.464844 15.171875 617.503906 15.898438 C 617.15625 15.894531 616.824219 15.824219 616.503906 15.6875 C 616.1875 15.546875 615.910156 15.347656 615.675781 15.09375 C 615.4375 14.839844 615.261719 14.550781 615.148438 14.222656 C 615.03125 13.894531 614.988281 13.558594 615.011719 13.214844 Z M 615.011719 13.214844 " fill-opacity="1" fill-rule="nonzero"/><path fill="#424c69" d="M 616.988281 74.671875 C 617.117188 75.402344 617.203125 76.109375 617.265625 76.820312 C 616.933594 76.78125 616.621094 76.6875 616.324219 76.53125 C 616.027344 76.375 615.769531 76.167969 615.550781 75.917969 C 615.332031 75.664062 615.167969 75.378906 615.054688 75.066406 C 614.941406 74.75 614.890625 74.425781 614.902344 74.09375 C 615.546875 74.472656 616.238281 74.667969 616.988281 74.671875 Z M 616.988281 74.671875 " fill-opacity="1" fill-rule="nonzero"/><path fill="#424c69" d="M 612.003906 260.101562 L 553.992188 260.101562 L 554.1875 257.5 C 573.378906 255.476562 592.574219 255.476562 611.765625 257.5 Z M 612.003906 260.101562 " fill-opacity="1" fill-rule="nonzero"/><path fill="#424c69" d="M 611.746094 257.480469 L 554.164062 257.480469 C 554.164062 256.535156 554.015625 255.589844 553.949219 254.644531 L 611.960938 254.644531 Z M 611.746094 257.480469 " fill-opacity="1" fill-rule="nonzero"/><path fill="#424c69" d="M 490.527344 259.714844 L 434.667969 260.207031 C 434.667969 259.304688 434.667969 258.402344 434.777344 257.5 C 453.339844 255.539062 471.902344 255.539062 490.464844 257.5 C 490.441406 258.210938 490.484375 258.960938 490.527344 259.714844 Z M 490.527344 259.714844 " fill-opacity="1" fill-rule="nonzero"/><path fill="#424c69" d="M 490.378906 257.457031 L 434.691406 257.457031 C 434.691406 256.511719 434.582031 255.566406 434.519531 254.644531 L 490.550781 255.074219 C 490.484375 255.890625 490.441406 256.683594 490.378906 257.457031 Z M 490.378906 257.457031 " fill-opacity="1" fill-rule="nonzero"/><path fill="#424c69" d="M 495.449219 254.601562 L 548.988281 254.878906 L 548.792969 257.5 C 531.089844 259.210938 513.386719 259.210938 495.683594 257.5 C 495.597656 256.554688 495.511719 255.566406 495.449219 254.601562 Z M 495.449219 254.601562 " fill-opacity="1" fill-rule="nonzero"/><path fill="#424c69" d="M 495.683594 257.523438 L 548.792969 257.523438 C 548.792969 258.316406 548.921875 259.132812 548.964844 259.949219 L 495.492188 260.207031 Z M 495.683594 257.523438 " fill-opacity="1" fill-rule="nonzero"/><path fill="#424c69" d="M 185.921875 254.964844 C 186.996094 236.34375 186.902344 217.726562 185.640625 199.113281 L 191.140625 199.242188 L 190.882812 254.664062 L 191.269531 265.578125 C 191.464844 271.378906 191.699219 277.15625 191.914062 282.914062 C 191.699219 289.144531 191.722656 294.492188 191.808594 298.660156 C 192 309.140625 192.644531 312.664062 195.246094 314.683594 C 196.109375 315.28125 197.046875 315.71875 198.0625 315.992188 C 199.074219 316.265625 200.105469 316.359375 201.152344 316.273438 C 223.753906 316.039062 247.128906 315.480469 249.257812 315.414062 C 249.585938 315.84375 249.839844 316.3125 250.011719 316.824219 C 250.1875 317.335938 250.273438 317.859375 250.273438 318.402344 C 250.273438 318.941406 250.1875 319.464844 250.011719 319.976562 C 249.839844 320.488281 249.585938 320.957031 249.257812 321.386719 L 223.347656 321.214844 C 206.417969 321.105469 197.886719 321.214844 194.535156 324.78125 C 191.183594 328.347656 191.914062 333.050781 192.195312 349.761719 C 192.386719 361.425781 192.195312 370.816406 191.9375 376.742188 L 184.804688 377.238281 C 184.933594 369.957031 185.039062 360.484375 184.933594 349.3125 C 184.71875 330.6875 184.136719 327.078125 181.238281 324.328125 C 177.304688 320.589844 172.644531 321.621094 152.535156 321.492188 C 143.597656 321.492188 136.3125 321.171875 131.628906 320.976562 C 130.972656 319.660156 130.816406 318.285156 131.15625 316.855469 C 136.292969 316.660156 144.457031 316.445312 154.511719 316.554688 C 174.167969 316.769531 178.015625 317.949219 181.601562 314.597656 C 185.191406 311.246094 185.363281 301.710938 185.898438 282.828125 C 186.050781 277.972656 186.09375 273.933594 186.113281 271.078125 Z M 185.921875 254.964844 " fill-opacity="1" fill-rule="nonzero"/><path fill="#424c69" d="M 314.957031 198.898438 C 315.191406 206.394531 315.363281 213.9375 315.492188 221.691406 C 315.578125 227.707031 315.636719 233.671875 315.664062 239.585938 C 315.664062 243.582031 315.664062 249.617188 315.816406 256.984375 C 316.007812 269.574219 316.308594 280.183594 316.484375 285.707031 C 316.785156 296.253906 316.957031 299.390625 316.976562 306.414062 C 316.976562 309.570312 316.976562 312.429688 316.804688 320.527344 C 316.4375 340.527344 316.136719 346.796875 315.945312 360.804688 C 315.945312 364.347656 315.945312 369.804688 315.816406 376.550781 L 306.835938 376.183594 C 307.222656 371.308594 307.628906 365.445312 307.929688 359 C 308.230469 352.554688 308.382812 347.527344 308.425781 345.210938 C 308.617188 336.617188 308.554688 329.980469 308.425781 320.957031 C 308.425781 312.578125 308.230469 312 308.1875 305.683594 C 308.1875 297.628906 308.1875 291.097656 308.316406 286.84375 C 308.203125 277.25 308.203125 267.4375 308.316406 257.414062 C 308.425781 250.96875 308.597656 244.761719 308.8125 238.574219 C 308.984375 233.003906 309.089844 227.355469 309.132812 221.625 C 309.132812 213.9375 309.132812 206.417969 309.132812 199.050781 C 310.164062 199.050781 311.28125 199.050781 312.25 198.921875 Z M 314.957031 198.898438 " fill-opacity="1" fill-rule="nonzero"/><path fill="#424c69" d="M 71.710938 199.09375 C 70.742188 217.609375 71.171875 236.148438 71.453125 254.6875 C 72.261719 255.855469 72.976562 257.082031 73.601562 258.359375 C 74.019531 259.707031 74.316406 261.082031 74.480469 262.484375 C 74.933594 280.097656 74.890625 297.714844 74.609375 315.351562 C 74.609375 317.5 74.609375 319.644531 74.609375 321.792969 C 75.167969 335.671875 74.824219 349.570312 74.804688 363.425781 C 74.804688 368.042969 74.953125 372.769531 71.601562 376.59375 L 68.273438 376.421875 C 68.273438 360.226562 68.421875 344.027344 68.445312 327.808594 C 68.445312 325.210938 69.132812 322.332031 66.511719 320.355469 L 66.511719 316.597656 C 67.15625 315.222656 68.335938 313.867188 68.359375 312.492188 C 68.488281 296.101562 68.359375 279.710938 68.359375 263.320312 C 68.378906 262.535156 68.222656 261.78125 67.894531 261.066406 C 67.566406 260.347656 67.097656 259.738281 66.488281 259.242188 C 66.488281 257.972656 66.488281 256.707031 66.488281 255.4375 C 67.222656 254.789062 67.761719 254 68.105469 253.082031 C 68.449219 252.160156 68.554688 251.214844 68.421875 250.238281 C 68.292969 233.226562 68.148438 216.214844 67.992188 199.199219 Z M 71.710938 199.09375 " fill-opacity="1" fill-rule="nonzero"/><path fill="#424c69" d="M 248.957031 321.0625 L 248.957031 315.671875 C 248.441406 303.339844 248.289062 293.933594 248.269531 287.53125 C 248.269531 284.523438 248.269531 279.796875 248.097656 273.074219 C 247.96875 266.886719 247.753906 261.796875 247.601562 258.46875 C 247.484375 257.773438 247.535156 257.09375 247.761719 256.425781 C 247.984375 255.761719 248.355469 255.1875 248.871094 254.707031 C 249.171875 236.148438 249.578125 217.609375 248.632812 199.070312 L 252.4375 199.242188 C 252.308594 216.585938 252.171875 233.914062 252.027344 251.226562 C 251.988281 252 252.109375 252.746094 252.394531 253.46875 C 252.679688 254.1875 253.101562 254.816406 253.660156 255.351562 C 254.089844 255.789062 254.417969 256.292969 254.636719 256.863281 C 254.855469 257.433594 254.953125 258.027344 254.929688 258.640625 C 254.800781 260.484375 254.929688 262.355469 254.800781 264.222656 C 254.949219 280.785156 254.800781 297.328125 255.035156 313.847656 C 255.363281 316.578125 255.527344 319.320312 255.53125 322.074219 C 254.519531 335.328125 255.25 348.582031 254.949219 361.835938 C 254.949219 366.839844 255.59375 372.0625 252.136719 376.441406 L 248.804688 376.65625 C 248.449219 367.59375 248.269531 358.183594 248.269531 348.429688 C 248.339844 338.980469 248.570312 329.855469 248.957031 321.0625 Z M 248.957031 321.0625 " fill-opacity="1" fill-rule="nonzero"/><path fill="#424c69" d="M 366.390625 255.007812 C 366.21875 247.132812 366.113281 239.140625 366.070312 231.035156 C 366.070312 220.222656 366.125 209.605469 366.242188 199.179688 C 367.457031 199.089844 368.675781 199.089844 369.894531 199.179688 C 371.09375 199.238281 372.28125 199.382812 373.460938 199.609375 C 373.085938 209.632812 372.863281 219.921875 372.792969 230.476562 C 372.792969 238.683594 372.851562 246.722656 372.964844 254.601562 C 372.601562 255.203125 372.445312 255.855469 372.492188 256.554688 C 372.574219 257.300781 372.882812 257.9375 373.417969 258.46875 C 373.160156 266.414062 373.03125 273.3125 372.964844 278.894531 C 372.964844 286.585938 372.835938 290.539062 372.964844 295.652344 C 373.179688 303.554688 373.71875 310.34375 374.277344 315.695312 C 374.082031 317.304688 373.824219 319.816406 373.632812 322.910156 C 373.242188 328.769531 373.242188 334.625 373.632812 340.484375 C 373.996094 346.605469 374.210938 357.21875 373.460938 376.722656 L 364.4375 377.085938 C 365.339844 353.886719 365.46875 343.148438 365.402344 337.691406 C 365.402344 336.53125 365.402344 330.472656 365.402344 322.09375 C 365.402344 321.816406 365.402344 318.292969 365.402344 315.652344 C 365.402344 305.125 365.875 296.316406 365.960938 294.167969 C 366.261719 287.339844 366.519531 276.425781 366.347656 258.617188 C 366.488281 258.527344 366.617188 258.421875 366.730469 258.304688 C 366.847656 258.183594 366.945312 258.050781 367.027344 257.90625 C 367.109375 257.761719 367.171875 257.609375 367.21875 257.449219 C 367.261719 257.289062 367.289062 257.125 367.292969 256.960938 C 367.300781 256.792969 367.285156 256.628906 367.25 256.464844 C 367.214844 256.304688 367.160156 256.148438 367.085938 256 C 367.015625 255.847656 366.925781 255.710938 366.816406 255.582031 C 366.710938 255.457031 366.589844 255.34375 366.457031 255.246094 Z M 366.390625 255.007812 " fill-opacity="1" fill-rule="nonzero"/><path fill="#424c69" d="M 132.230469 199.113281 L 132.359375 254.644531 C 132.554688 255.632812 132.832031 257.328125 133.046875 259.457031 C 133.40625 262.953125 133.464844 266.453125 133.21875 269.960938 C 132.597656 279.710938 133.84375 283.429688 133.21875 301.152344 C 133.089844 304.628906 132.875 309.742188 132.402344 315.78125 L 131.671875 316.058594 C 131.363281 316.199219 131.035156 316.277344 130.695312 316.285156 C 130.355469 316.296875 130.023438 316.242188 129.707031 316.121094 C 129.386719 316 129.105469 315.824219 128.855469 315.589844 C 128.609375 315.355469 128.417969 315.082031 128.277344 314.769531 C 128.0625 311.71875 127.761719 307.035156 127.632812 301.324219 C 127.460938 293.09375 127.761719 288.734375 127.804688 281.988281 C 127.804688 276.855469 127.804688 269.378906 126.96875 260.164062 C 127.167969 259.21875 127.320312 258.265625 127.417969 257.308594 C 127.417969 257.308594 127.417969 256.277344 127.417969 255.160156 C 127.417969 253.289062 127.246094 230.242188 126.945312 198.792969 C 127.785156 198.792969 128.644531 198.921875 129.589844 198.964844 C 130.535156 199.007812 131.4375 199.136719 132.230469 199.113281 Z M 132.230469 199.113281 " fill-opacity="1" fill-rule="nonzero"/><path fill="#424c69" d="M 71.085938 152.261719 C 70.875 153.039062 71.003906 153.753906 71.472656 154.410156 C 71.472656 168.402344 71.472656 182.386719 71.472656 196.363281 L 68.035156 196.191406 C 68.035156 185.042969 68.035156 173.894531 68.402344 162.765625 C 68.574219 159.136719 66.832031 154.882812 71.085938 152.261719 Z M 71.085938 152.261719 " fill-opacity="1" fill-rule="nonzero"/><path fill="#424c69" d="M 185.792969 437.664062 C 187.199219 418.230469 187.199219 398.796875 185.792969 379.363281 L 191.140625 379.492188 C 190.433594 398.828125 190.476562 418.160156 191.140625 437.492188 C 190.988281 437.699219 190.8125 437.882812 190.617188 438.050781 C 190.417969 438.214844 190.207031 438.355469 189.980469 438.476562 C 189.75 438.59375 189.511719 438.683594 189.265625 438.75 C 189.015625 438.8125 188.765625 438.851562 188.507812 438.859375 C 188.25 438.867188 187.996094 438.847656 187.746094 438.796875 C 187.492188 438.75 187.25 438.671875 187.015625 438.570312 C 186.78125 438.464844 186.558594 438.339844 186.351562 438.1875 C 186.144531 438.035156 185.960938 437.859375 185.792969 437.664062 Z M 185.792969 437.664062 " fill-opacity="1" fill-rule="nonzero"/><path fill="#424c69" d="M 248.203125 437.878906 C 248.417969 428.472656 248.503906 418.824219 248.460938 408.945312 C 248.417969 399.0625 248.210938 389.289062 247.839844 379.621094 C 248.671875 379.621094 249.574219 379.621094 250.546875 379.621094 C 251.167969 379.621094 251.769531 379.621094 252.328125 379.621094 L 252.328125 437.320312 C 252.066406 437.59375 251.765625 437.8125 251.429688 437.980469 C 251.089844 438.148438 250.734375 438.257812 250.359375 438.308594 C 249.984375 438.355469 249.613281 438.34375 249.246094 438.265625 C 248.875 438.1875 248.527344 438.050781 248.203125 437.859375 Z M 248.203125 437.878906 " fill-opacity="1" fill-rule="nonzero"/><path fill="#424c69" d="M 71.644531 379.472656 C 70.914062 398.804688 70.980469 418.136719 71.644531 437.472656 C 71.535156 437.605469 71.414062 437.722656 71.277344 437.824219 C 71.144531 437.925781 70.996094 438.011719 70.839844 438.082031 C 70.683594 438.148438 70.523438 438.199219 70.355469 438.226562 C 70.1875 438.257812 70.019531 438.265625 69.847656 438.253906 C 69.679688 438.246094 69.511719 438.214844 69.351562 438.164062 C 69.1875 438.113281 69.03125 438.046875 68.886719 437.960938 C 68.738281 437.871094 68.605469 437.769531 68.484375 437.652344 C 68.363281 437.53125 68.253906 437.402344 68.164062 437.257812 C 68.164062 418.023438 68.164062 398.804688 68.164062 379.601562 Z M 71.644531 379.472656 " fill-opacity="1" fill-rule="nonzero"/><path fill="#424c69" d="M 132.554688 379.492188 C 131.867188 398.828125 131.886719 418.160156 132.554688 437.492188 C 132.445312 437.625 132.320312 437.742188 132.1875 437.84375 C 132.050781 437.945312 131.902344 438.03125 131.746094 438.097656 C 131.589844 438.164062 131.425781 438.210938 131.257812 438.242188 C 131.089844 438.269531 130.921875 438.277344 130.753906 438.265625 C 130.582031 438.253906 130.417969 438.222656 130.253906 438.171875 C 130.089844 438.121094 129.9375 438.050781 129.789062 437.964844 C 129.644531 437.878906 129.511719 437.773438 129.390625 437.652344 C 129.269531 437.535156 129.164062 437.402344 129.074219 437.257812 C 129.074219 418.066406 129.074219 398.878906 129.074219 379.6875 Z M 132.554688 379.492188 " fill-opacity="1" fill-rule="nonzero"/><path fill="#424c69" d="M 132.53125 320.890625 C 132.53125 339.507812 132.53125 358.082031 132.53125 376.613281 L 129.222656 376.421875 L 129.222656 321.019531 C 129.375 320.804688 129.5625 320.625 129.785156 320.488281 C 130.007812 320.351562 130.253906 320.261719 130.511719 320.226562 C 130.773438 320.191406 131.03125 320.207031 131.285156 320.277344 C 131.539062 320.347656 131.769531 320.46875 131.972656 320.632812 Z M 132.53125 320.890625 " fill-opacity="1" fill-rule="nonzero"/><path fill="#424c69" d="M 8.542969 379.558594 L 7.769531 430.683594 C 7.097656 431.800781 6.476562 431.800781 5.902344 430.683594 L 5.191406 379.429688 Z M 8.542969 379.558594 " fill-opacity="1" fill-rule="nonzero"/><path fill="#424c69" d="M 5.214844 376.59375 C 5.515625 373.007812 5.792969 369.417969 6.074219 365.851562 C 8.953125 368.925781 7.898438 372.878906 8.457031 376.441406 Z M 5.214844 376.59375 " fill-opacity="1" fill-rule="nonzero"/><path fill="#424c69" d="M 371.527344 379.621094 C 371.246094 381.769531 370.988281 383.769531 370.710938 385.832031 C 368.324219 384.414062 368.5625 381.878906 368.175781 379.644531 Z M 371.527344 379.621094 " fill-opacity="1" fill-rule="nonzero"/><path fill="#424c69" d="M 429.664062 259.671875 L 371.484375 260.1875 C 371.484375 259.304688 371.675781 258.402344 371.785156 257.5 C 391.035156 255.550781 410.285156 255.550781 429.535156 257.5 C 429.605469 258.203125 429.648438 258.925781 429.664062 259.671875 Z M 429.664062 259.671875 " fill-opacity="1" fill-rule="nonzero"/><path fill="#424c69" d="M 429.535156 257.414062 L 371.785156 257.414062 L 371.460938 254.535156 L 429.664062 255.160156 C 429.640625 255.976562 429.597656 256.683594 429.535156 257.414062 Z M 429.535156 257.414062 " fill-opacity="1" fill-rule="nonzero"/><path fill="#424c69" d="M 615.289062 254.449219 C 634.496094 255.632812 653.726562 255.160156 672.953125 254.730469 L 672.695312 257.480469 L 615.699219 257.480469 C 615.570312 256.492188 615.417969 255.460938 615.289062 254.449219 Z M 615.289062 254.449219 " fill-opacity="1" fill-rule="nonzero"/><path fill="#424c69" d="M 129.03125 437.277344 L 132.511719 437.515625 L 185.792969 437.664062 L 191.035156 437.515625 L 248.785156 437.515625 L 252.328125 437.300781 L 267.753906 437.902344 C 266.679688 440.050781 264.703125 440.050781 262.769531 440.050781 C 252.027344 440.953125 252.027344 440.953125 251.878906 452.058594 C 251.878906 455.945312 251.707031 459.855469 251.535156 463.742188 C 251.25 464.75 250.847656 465.710938 250.332031 466.621094 C 248.546875 459.578125 249.363281 453.066406 249.429688 446.6875 C 249.429688 441.597656 247.558594 439.941406 242.574219 440.007812 C 225.386719 440.285156 208.199219 440.242188 191.011719 440.308594 L 185.578125 440.15625 L 132.640625 440.4375 C 132.390625 440.675781 132.105469 440.863281 131.789062 441 C 131.472656 441.136719 131.144531 441.21875 130.800781 441.238281 C 130.453125 441.257812 130.117188 441.214844 129.785156 441.117188 C 129.457031 441.015625 129.15625 440.859375 128.878906 440.652344 C 111.457031 440.5 94.03125 440.5 76.609375 440.136719 C 71.773438 440.136719 70.636719 442.5 70.636719 446.582031 C 68.789062 441.683594 65.4375 440.136719 60.085938 440.136719 C 43.542969 440.394531 27 439.984375 10.476562 439.855469 C 9.554688 439.511719 9.253906 439.167969 9.53125 438.78125 C 9.730469 438.441406 10.023438 438.25 10.414062 438.203125 L 68.121094 437.40625 L 71.601562 437.621094 Z M 129.03125 437.277344 " fill-opacity="1" fill-rule="nonzero"/><path fill="#424c69" d="M 128.878906 440.628906 L 132.640625 440.414062 C 132.296875 446.328125 131.9375 452.242188 131.566406 458.160156 C 127.140625 452.851562 130.363281 446.386719 128.878906 440.628906 Z M 128.878906 440.628906 " fill-opacity="1" fill-rule="nonzero"/><path fill="#424c69" d="M 10.414062 438.117188 C 10.414062 438.675781 10.414062 439.210938 10.414062 439.769531 L 5.75 439.898438 C 5.75 436.804688 5.75 433.710938 5.75 430.621094 L 7.621094 430.621094 C 8.628906 433.152344 7.277344 436.441406 10.414062 438.117188 Z M 10.414062 438.117188 " fill-opacity="1" fill-rule="nonzero"/><path fill="#424c69" d="M 127.527344 255.308594 C 127.527344 256.019531 127.527344 256.707031 127.527344 257.457031 C 115.429688 257.84375 106.773438 258.1875 100.648438 258.425781 C 95.707031 258.617188 90.636719 258.832031 83.65625 258.425781 C 78.714844 258.1875 74.632812 257.78125 71.839844 257.4375 C 71.839844 256.511719 71.644531 255.566406 71.558594 254.644531 Z M 127.527344 255.308594 " fill-opacity="1" fill-rule="nonzero"/><path fill="#424c69" d="M 253.898438 257.371094 C 253.855469 256.699219 253.855469 256.023438 253.898438 255.351562 L 310.035156 254.730469 C 309.929688 255.652344 309.84375 256.578125 309.757812 257.5 C 298.242188 263.945312 285.78125 259.820312 273.769531 260.507812 C 267.003906 260.871094 259.71875 262.613281 253.898438 257.371094 Z M 253.898438 257.371094 " fill-opacity="1" fill-rule="nonzero"/><path fill="#424c69" d="M 248.933594 254.707031 L 248.632812 257.480469 C 238.472656 258.015625 230.09375 258.382812 224.011719 258.640625 C 217.03125 258.941406 214.515625 259.027344 211.445312 259.003906 C 204.503906 259.003906 197.585938 258.617188 190.691406 257.84375 L 190.882812 254.601562 C 210.242188 255.4375 229.578125 255.246094 248.933594 254.707031 Z M 248.933594 254.707031 " fill-opacity="1" fill-rule="nonzero"/><path fill="#424c69" d="M 368.347656 254.664062 L 368.046875 257.480469 C 362.460938 262.398438 355.628906 260.65625 349.332031 260.527344 C 338.3125 260.292969 327.140625 262.355469 316.265625 258.941406 L 314.632812 257.414062 L 314.632812 255.265625 Z M 368.347656 254.664062 " fill-opacity="1" fill-rule="nonzero"/><path fill="#424c69" d="M 132.660156 257.5 C 132.660156 256.535156 132.46875 255.589844 132.359375 254.644531 L 186.070312 255.09375 L 186.199219 257.523438 C 177.605469 257.738281 168.746094 257.84375 159.625 257.84375 C 150.5 257.84375 141.511719 257.730469 132.660156 257.5 Z M 132.660156 257.5 " fill-opacity="1" fill-rule="nonzero"/><path fill="#424c69" d="M 248.890625 260.101562 C 239.4375 259.84375 229.777344 259.699219 219.910156 259.671875 C 209.832031 259.671875 199.929688 259.671875 190.261719 259.929688 C 190.507812 259.222656 190.550781 258.507812 190.390625 257.78125 L 248.65625 257.542969 C 248.71875 258.339844 248.804688 259.21875 248.890625 260.101562 Z M 248.890625 260.101562 " fill-opacity="1" fill-rule="nonzero"/><path fill="#424c69" d="M 186.15625 259.992188 L 132.445312 260.25 C 132.445312 259.347656 132.597656 258.46875 132.683594 257.585938 L 185.984375 257.585938 C 185.984375 257.972656 185.984375 258.382812 186.136719 258.855469 C 186.164062 259.234375 186.171875 259.613281 186.15625 259.992188 Z M 186.15625 259.992188 " fill-opacity="1" fill-rule="nonzero"/><path fill="#424c69" d="M 131.800781 320.632812 L 129.050781 321.019531 C 128.457031 321.042969 127.941406 320.847656 127.503906 320.441406 C 127.203125 320.21875 126.949219 319.949219 126.742188 319.632812 C 126.535156 319.320312 126.390625 318.980469 126.304688 318.613281 C 126.222656 318.246094 126.203125 317.878906 126.25 317.503906 C 126.296875 317.132812 126.40625 316.777344 126.582031 316.445312 C 126.722656 316.246094 126.894531 316.078125 127.09375 315.9375 C 127.289062 315.796875 127.507812 315.695312 127.742188 315.628906 C 127.976562 315.5625 128.214844 315.535156 128.457031 315.550781 C 128.699219 315.566406 128.933594 315.621094 129.160156 315.714844 L 131.695312 316.058594 C 131.714844 317.585938 131.757812 319.109375 131.800781 320.632812 Z M 131.800781 320.632812 " fill-opacity="1" fill-rule="nonzero"/><path fill="#424c69" d="M 252.070312 315.308594 C 271.40625 317.199219 290.59375 316.210938 309.886719 315.84375 L 309.886719 321.019531 L 253.769531 320.441406 C 253.1875 318.722656 252.628906 317.003906 252.070312 315.308594 Z M 252.070312 315.308594 " fill-opacity="1" fill-rule="nonzero"/><path fill="#424c69" d="M 368.410156 321.085938 L 314.699219 320.546875 C 314.699219 319.128906 314.460938 317.710938 314.355469 316.253906 C 314.65625 316.019531 314.914062 315.75 315.128906 315.4375 C 315.421875 314.984375 315.59375 314.492188 315.644531 313.953125 L 341.425781 314.320312 L 368.152344 314.683594 Z M 368.410156 321.085938 " fill-opacity="1" fill-rule="nonzero"/><path fill="#424c69" d="M 309.757812 259.992188 C 290.570312 259.691406 271.386719 258.984375 252.199219 260.378906 C 252.148438 259.761719 252.257812 259.175781 252.53125 258.621094 C 252.804688 258.0625 253.203125 257.617188 253.726562 257.285156 L 309.585938 257.414062 C 309.757812 258.359375 309.757812 259.21875 309.757812 259.992188 Z M 309.757812 259.992188 " fill-opacity="1" fill-rule="nonzero"/><path fill="#424c69" d="M 71.429688 315.84375 L 127.289062 316.683594 C 127.289062 317.949219 127.289062 319.214844 127.460938 320.484375 L 71.386719 321.105469 Z M 71.429688 315.84375 " fill-opacity="1" fill-rule="nonzero"/><path fill="#424c69" d="M 127.570312 259.5 L 71.496094 260.121094 C 71.496094 259.242188 71.644531 258.359375 71.730469 257.480469 L 127.417969 257.480469 C 127.484375 258.101562 127.546875 258.8125 127.570312 259.5 Z M 127.570312 259.5 " fill-opacity="1" fill-rule="nonzero"/><path fill="#424c69" d="M 368.304688 260.121094 L 314.828125 259.757812 C 314.828125 259.003906 314.828125 258.253906 314.976562 257.609375 L 368.046875 257.609375 Z M 368.304688 260.121094 " fill-opacity="1" fill-rule="nonzero"/></g></g></g></g><path fill="#96543a" d="M 531.898438 307.421875 L 576.117188 308.308594 L 576.117188 334.335938 L 473.453125 372.058594 L 464.367188 328.351562 Z M 531.898438 307.421875 " fill-opacity="1" fill-rule="nonzero"/><path fill="#ffffff" d="M 531.898438 307.421875 L 576.117188 308.308594 L 576.117188 334.335938 L 473.453125 372.058594 L 464.367188 328.351562 Z M 531.898438 307.421875 " fill-opacity="0.62" fill-rule="nonzero"/><g clip-path="url(#25b118e39f)"><path fill="#96543a" d="M 589.476562 331.839844 C 588.828125 330.960938 587.710938 330.421875 585.804688 330.953125 C 581.125 332.25 495.976562 363.878906 481.703125 369.046875 C 478.351562 370.265625 476.152344 367.886719 475.292969 366.851562 C 472.800781 363.886719 471.097656 358.378906 471.777344 349.039062 C 472.144531 344.015625 475.722656 339.808594 480.59375 338.519531 C 507.992188 331.300781 584.011719 311.125 585.328125 310.789062 C 588.828125 309.890625 586.738281 307 586.738281 307 L 585.757812 306.925781 C 586.179688 306.890625 586.574219 306.871094 586.929688 306.851562 L 295.472656 286.460938 L 295.050781 286.460938 C 295.050781 286.460938 161.054688 294.519531 161.054688 294.519531 C 156.253906 294.8125 152.015625 297.777344 150.183594 302.214844 C 147.648438 308.355469 144.679688 315.398438 147.484375 325.378906 C 148.363281 328.5 151.558594 333.148438 154.78125 333.570312 C 192.890625 338.527344 446.640625 371.539062 474.394531 375.152344 C 476.015625 375.363281 477.664062 375.1875 479.203125 374.648438 L 587.847656 336.652344 C 589.824219 335.957031 590.722656 333.53125 589.484375 331.847656 Z M 589.476562 331.839844 " fill-opacity="1" fill-rule="nonzero"/></g><path fill="#000000" d="M 584.332031 310.777344 C 582.875 311.164062 493.277344 335.691406 475.53125 340.328125 C 475.523438 340.339844 476.703125 340.328125 472.792969 340.328125 L 184.117188 299.039062 L 180.921875 298.589844 L 178.148438 298.1875 L 174.945312 297.730469 L 171.832031 297.292969 L 168.625 296.84375 L 156.824219 295.152344 C 157.847656 294.804688 158.9375 294.59375 160.046875 294.527344 L 169.988281 293.933594 L 173.589844 293.714844 L 177.03125 293.496094 L 178.15625 293.429688 L 294.046875 286.449219 C 294.191406 286.441406 294.320312 286.441406 294.464844 286.449219 L 585.925781 306.851562 C 585.578125 306.863281 585.171875 306.878906 584.753906 306.925781 L 585.730469 307 C 585.730469 307 587.828125 309.882812 584.320312 310.777344 Z M 584.332031 310.777344 " fill-opacity="0.1" fill-rule="nonzero"/><path fill="#ffffff" d="M 168.945312 335.398438 L 165.496094 334.949219 C 160.273438 319.925781 165.238281 304.601562 168.625 296.84375 L 171.832031 297.292969 C 168.589844 304.566406 163.078125 320.539062 168.945312 335.398438 Z M 168.945312 335.398438 " fill-opacity="0.18" fill-rule="nonzero"/><path fill="#ffffff" d="M 174.917969 336.175781 L 171.472656 335.726562 C 166.445312 320.632812 171.574219 305.308594 174.945312 297.75 L 178.148438 298.199219 C 174.953125 305.222656 169.238281 321.207031 174.917969 336.175781 Z M 174.917969 336.175781 " fill-opacity="0.18" fill-rule="nonzero"/><path fill="#ffffff" d="M 180.757812 336.933594 L 177.324219 336.488281 C 172.378906 321.371094 177.570312 306.066406 180.921875 298.601562 L 184.117188 299.050781 C 180.96875 305.984375 175.199219 321.941406 180.757812 336.933594 Z M 180.757812 336.933594 " fill-opacity="0.18" fill-rule="nonzero"/><path fill="#ffffff" d="M 462.125 373.539062 L 452.246094 372.261719 C 444.296875 361.996094 445.761719 348.335938 448.636719 336.871094 L 456.796875 338.050781 C 454.542969 348.582031 452.59375 360.53125 462.125 373.539062 Z M 462.125 373.539062 " fill-opacity="0.18" fill-rule="nonzero"/><path fill="#000000" d="M 481.207031 299.367188 C 475.292969 301.902344 343.5 304.4375 343.5 304.4375 L 337.457031 303.640625 L 275.566406 295.542969 C 273.644531 295.289062 271.921875 294.210938 270.871094 292.582031 L 268.707031 289.230469 C 264.871094 283.332031 281.832031 254.628906 280.988281 238.582031 C 280.210938 223.714844 291.03125 189.964844 292.625 185.152344 C 292.746094 184.769531 292.808594 184.574219 292.808594 184.574219 L 294.980469 184.089844 L 328.601562 176.589844 L 364.625 168.539062 L 466.839844 184.574219 C 466.839844 184.574219 460.082031 208.199219 460.925781 220.019531 C 461.769531 231.832031 487.125 296.835938 481.199219 299.359375 Z M 481.207031 299.367188 " fill-opacity="1" fill-rule="nonzero"/><g clip-path="url(#e994904571)"><path fill="#000000" d="M 588.652344 163.074219 C 550.6875 170.394531 468.699219 186.359375 461.566406 188.941406 C 452.28125 192.316406 399.898438 171.65625 292.617188 185.171875 L 170.804688 162.65625 C 169.625 162.445312 168.753906 161.8125 168.203125 161.007812 C 166.8125 158.914062 167.535156 155.628906 170.492188 154.851562 L 348.296875 107.914062 L 588.644531 155.628906 C 592.746094 156.441406 592.726562 162.289062 588.644531 163.085938 Z M 588.652344 163.074219 " fill-opacity="1" fill-rule="nonzero"/></g><path fill="#db9f26" d="M 249.972656 170.421875 C 249.972656 171.042969 249.886719 171.65625 249.714844 172.265625 C 249.542969 172.871094 249.285156 173.460938 248.945312 174.035156 C 248.605469 174.609375 248.191406 175.152344 247.699219 175.667969 C 247.203125 176.183594 246.644531 176.660156 246.019531 177.097656 C 245.390625 177.535156 244.707031 177.929688 243.972656 178.273438 C 243.234375 178.617188 242.457031 178.90625 241.636719 179.144531 C 240.816406 179.382812 239.972656 179.5625 239.101562 179.683594 C 238.234375 179.804688 237.355469 179.863281 236.46875 179.863281 C 235.582031 179.863281 234.703125 179.804688 233.832031 179.683594 C 232.964844 179.5625 232.117188 179.382812 231.300781 179.144531 C 230.480469 178.90625 229.703125 178.617188 228.964844 178.273438 C 228.226562 177.929688 227.542969 177.535156 226.917969 177.097656 C 226.289062 176.660156 225.730469 176.183594 225.238281 175.667969 C 224.746094 175.152344 224.328125 174.609375 223.988281 174.035156 C 223.648438 173.460938 223.394531 172.871094 223.222656 172.265625 C 223.046875 171.65625 222.960938 171.042969 222.960938 170.421875 C 222.960938 169.800781 223.046875 169.1875 223.222656 168.578125 C 223.394531 167.972656 223.648438 167.382812 223.988281 166.808594 C 224.328125 166.234375 224.746094 165.691406 225.238281 165.175781 C 225.730469 164.660156 226.289062 164.183594 226.917969 163.746094 C 227.542969 163.308594 228.226562 162.914062 228.964844 162.570312 C 229.703125 162.226562 230.480469 161.9375 231.300781 161.699219 C 232.117188 161.460938 232.964844 161.28125 233.832031 161.160156 C 234.703125 161.039062 235.582031 160.980469 236.46875 160.980469 C 237.355469 160.980469 238.234375 161.039062 239.101562 161.160156 C 239.972656 161.28125 240.816406 161.460938 241.636719 161.699219 C 242.457031 161.9375 243.234375 162.226562 243.972656 162.570312 C 244.707031 162.914062 245.390625 163.308594 246.019531 163.746094 C 246.644531 164.183594 247.203125 164.660156 247.699219 165.175781 C 248.191406 165.691406 248.605469 166.234375 248.945312 166.808594 C 249.285156 167.382812 249.542969 167.972656 249.714844 168.578125 C 249.886719 169.1875 249.972656 169.800781 249.972656 170.421875 Z M 249.972656 170.421875 " fill-opacity="1" fill-rule="nonzero"/><path fill="#db9f26" d="M 214.941406 326.40625 C 214.710938 326.40625 214.484375 326.339844 214.28125 326.195312 C 213.757812 325.828125 213.632812 325.113281 213.996094 324.59375 C 216.222656 321.417969 217.539062 295.71875 218.804688 270.859375 C 221.15625 224.894531 223.265625 192.058594 228.976562 188.125 C 229.710938 187.621094 230.523438 187.492188 231.332031 187.757812 C 231.933594 187.953125 232.265625 188.601562 232.074219 189.203125 C 231.878906 189.808594 231.230469 190.136719 230.625 189.945312 C 230.550781 189.925781 230.46875 189.898438 230.285156 190.019531 C 225.066406 193.605469 222.777344 238.328125 221.113281 270.96875 C 219.492188 302.726562 218.363281 322.359375 215.882812 325.902344 C 215.65625 326.222656 215.308594 326.394531 214.941406 326.394531 Z M 214.941406 326.40625 " fill-opacity="1" fill-rule="nonzero"/><path fill="#db9f26" d="M 237.265625 334.757812 C 236.777344 334.757812 236.320312 334.445312 236.164062 333.960938 C 233.171875 324.621094 231.550781 200.476562 231.488281 195.1875 C 231.488281 194.558594 231.988281 194.035156 232.621094 194.027344 L 232.640625 194.027344 C 233.273438 194.027344 233.785156 194.53125 233.792969 195.160156 C 234.363281 239.773438 236.046875 326.039062 238.363281 333.257812 C 238.554688 333.859375 238.226562 334.511719 237.621094 334.703125 C 237.503906 334.738281 237.382812 334.757812 237.273438 334.757812 Z M 237.265625 334.757812 " fill-opacity="1" fill-rule="nonzero"/><path fill="#db9f26" d="M 255.46875 328.546875 C 254.855469 328.546875 254.351562 328.070312 254.3125 327.449219 L 253.488281 310.191406 C 250.128906 239.78125 248.4375 204.4375 243.390625 189.324219 C 243.1875 188.71875 243.519531 188.070312 244.121094 187.871094 C 244.726562 187.667969 245.378906 187.996094 245.578125 188.601562 C 250.726562 204.015625 252.316406 237.257812 255.796875 310.09375 L 256.621094 327.347656 C 256.648438 327.976562 256.164062 328.519531 255.523438 328.554688 C 255.503906 328.554688 255.484375 328.554688 255.46875 328.554688 Z M 255.46875 328.546875 " fill-opacity="1" fill-rule="nonzero"/><path fill="#db9f26" d="M 251.75 328.546875 C 251.6875 328.546875 251.621094 328.546875 251.550781 328.527344 C 250.925781 328.417969 250.503906 327.824219 250.613281 327.199219 C 251.6875 321.015625 244.835938 197.347656 239.800781 189.589844 C 239.453125 189.058594 239.609375 188.34375 240.140625 187.996094 C 240.671875 187.648438 241.386719 187.804688 241.734375 188.335938 C 247.226562 196.796875 254.039062 320.933594 252.886719 327.59375 C 252.785156 328.152344 252.300781 328.546875 251.75 328.546875 Z M 251.75 328.546875 " fill-opacity="1" fill-rule="nonzero"/><path fill="#db9f26" d="M 242.796875 328.929688 C 242.179688 328.929688 241.679688 328.445312 241.640625 327.832031 L 235.3125 188.636719 C 235.285156 188.007812 235.78125 187.464844 236.414062 187.4375 C 237.054688 187.410156 237.585938 187.90625 237.613281 188.535156 L 243.941406 327.730469 C 243.96875 328.363281 243.472656 328.902344 242.839844 328.929688 C 242.824219 328.929688 242.804688 328.929688 242.785156 328.929688 Z M 242.796875 328.929688 " fill-opacity="1" fill-rule="nonzero"/><path fill="#db9f26" d="M 231.292969 330.84375 L 228.996094 330.804688 L 228.996094 183.550781 C 228.996094 182.917969 229.507812 182.398438 230.148438 182.398438 C 230.789062 182.398438 231.304688 182.910156 231.304688 183.550781 L 231.304688 254.53125 L 233.628906 177.640625 C 233.648438 177.007812 234.1875 176.488281 234.820312 176.523438 C 235.453125 176.542969 235.953125 177.074219 235.9375 177.714844 L 231.3125 330.832031 Z M 231.292969 330.84375 " fill-opacity="1" fill-rule="nonzero"/><path fill="#db9f26" d="M 246.320312 334.5 C 246.0625 334.5 245.808594 334.417969 245.597656 334.246094 C 239.855469 329.617188 235.699219 286.304688 233.730469 260.90625 C 231.046875 226.257812 229.847656 190.953125 231.15625 185.351562 C 231.25 184.96875 231.488281 183.953125 232.402344 183.753906 C 233.023438 183.613281 233.636719 184.007812 233.777344 184.621094 C 233.867188 185.03125 233.722656 185.445312 233.4375 185.71875 C 232.253906 189.09375 233.035156 221.226562 235.871094 258.683594 C 239.097656 301.226562 243.371094 329.496094 247.042969 332.460938 C 247.539062 332.863281 247.621094 333.585938 247.21875 334.082031 C 246.988281 334.363281 246.660156 334.511719 246.320312 334.511719 Z M 246.320312 334.5 " fill-opacity="1" fill-rule="nonzero"/><path fill="#db9f26" d="M 247.710938 337.191406 L 233.804688 189.871094 C 233.738281 189.242188 234.207031 188.683594 234.839844 188.621094 C 235.46875 188.566406 236.027344 189.023438 236.09375 189.652344 L 243.589844 269.121094 L 238.648438 187.257812 C 238.609375 186.625 239.097656 186.074219 239.726562 186.039062 C 240.359375 185.992188 240.910156 186.488281 240.945312 187.117188 L 250 337.007812 L 247.703125 337.183594 Z M 247.710938 337.191406 " fill-opacity="1" fill-rule="nonzero"/><path fill="#db9f26" d="M 225.453125 328.964844 C 224.949219 328.964844 224.480469 328.628906 224.34375 328.117188 C 221.769531 318.644531 225.792969 194.558594 225.964844 189.277344 C 225.984375 188.648438 226.476562 188.117188 227.15625 188.160156 C 227.789062 188.179688 228.289062 188.710938 228.273438 189.351562 C 226.816406 233.945312 224.589844 320.203125 226.578125 327.511719 C 226.742188 328.125 226.386719 328.757812 225.773438 328.921875 C 225.671875 328.949219 225.570312 328.957031 225.46875 328.957031 Z M 225.453125 328.964844 " fill-opacity="1" fill-rule="nonzero"/><path fill="#db9f26" d="M 225.582031 333.136719 L 223.28125 333 L 229.828125 188.8125 C 229.855469 188.179688 230.40625 187.695312 231.027344 187.714844 C 231.660156 187.742188 232.15625 188.28125 232.128906 188.914062 L 228.96875 258.425781 L 234.710938 183.238281 C 234.753906 182.609375 235.304688 182.125 235.945312 182.179688 C 236.578125 182.222656 237.054688 182.78125 237.007812 183.414062 Z M 225.582031 333.136719 " fill-opacity="1" fill-rule="nonzero"/><path fill="#96543a" d="M 226.277344 176.535156 L 246.660156 176.535156 C 246.949219 176.535156 247.230469 176.589844 247.5 176.699219 C 247.769531 176.8125 248.007812 176.96875 248.214844 177.175781 C 248.417969 177.382812 248.578125 177.621094 248.691406 177.890625 C 248.800781 178.15625 248.855469 178.4375 248.855469 178.730469 L 248.855469 186.140625 C 248.855469 186.429688 248.800781 186.710938 248.691406 186.980469 C 248.578125 187.25 248.417969 187.488281 248.214844 187.691406 C 248.007812 187.898438 247.769531 188.058594 247.5 188.167969 C 247.230469 188.28125 246.949219 188.335938 246.660156 188.335938 L 226.277344 188.335938 C 225.984375 188.335938 225.703125 188.28125 225.433594 188.167969 C 225.167969 188.058594 224.929688 187.898438 224.722656 187.691406 C 224.515625 187.488281 224.359375 187.25 224.246094 186.980469 C 224.132812 186.710938 224.078125 186.429688 224.078125 186.140625 L 224.078125 178.730469 C 224.078125 178.4375 224.132812 178.15625 224.246094 177.890625 C 224.359375 177.621094 224.515625 177.382812 224.722656 177.175781 C 224.929688 176.96875 225.167969 176.8125 225.433594 176.699219 C 225.703125 176.589844 225.984375 176.535156 226.277344 176.535156 Z M 226.277344 176.535156 " fill-opacity="1" fill-rule="nonzero"/><path fill="#ffffff" d="M 328.601562 176.597656 C 326.074219 199.441406 320.726562 265.515625 337.457031 303.652344 L 275.660156 295.5625 C 273.679688 295.308594 271.902344 294.191406 270.824219 292.507812 L 268.707031 289.242188 C 264.871094 283.339844 281.832031 254.640625 280.988281 238.589844 C 280.210938 223.722656 291.03125 189.972656 292.625 185.160156 L 294.980469 184.089844 L 328.601562 176.589844 Z M 328.601562 176.597656 " fill-opacity="0.13" fill-rule="nonzero"/><path fill="#db9f26" d="M 274.960938 127.265625 L 271.363281 128.21875 C 271.050781 128.089844 270.789062 127.933594 270.578125 127.75 C 267.820312 125.316406 263.890625 124.867188 260.359375 125.097656 C 253.589844 125.535156 245.917969 128.675781 241.953125 134.402344 C 236.777344 141.875 236.496094 151.613281 238.316406 160.238281 C 238.773438 162.40625 235.441406 163.320312 234.984375 161.152344 C 233.785156 155.5 233.445312 149.671875 234.460938 143.960938 C 235.332031 139.105469 237.328125 134.328125 240.578125 130.570312 C 243.160156 127.578125 246.722656 125.492188 250.339844 124 C 257.328125 121.125 266.90625 119.910156 273.019531 125.308594 C 274.128906 126.121094 274.722656 126.773438 274.960938 127.265625 Z M 274.960938 127.265625 " fill-opacity="1" fill-rule="nonzero"/><g clip-path="url(#642722908a)"><path fill="#ffffff" d="M 348.554688 114.695312 L 168.214844 161 C 166.820312 158.902344 167.546875 155.617188 170.503906 154.839844 L 348.308594 107.90625 L 348.554688 114.6875 Z M 348.554688 114.695312 " fill-opacity="0.18" fill-rule="nonzero"/></g><g clip-path="url(#16130bcac1)"><path fill="#db9f26" d="M 621.101562 76.660156 C 554.164062 76.660156 554.164062 76.660156 554.164062 143.601562 C 554.164062 76.660156 554.164062 76.660156 487.226562 76.660156 C 554.164062 76.660156 554.164062 76.660156 554.164062 9.722656 C 554.164062 76.660156 554.164062 76.660156 621.101562 76.660156 Z M 621.101562 76.660156 " fill-opacity="1" fill-rule="nonzero"/></g><path fill="#db9f26" d="M 559.105469 105.222656 C 523.585938 105.222656 523.585938 105.222656 523.585938 140.738281 C 523.585938 105.222656 523.585938 105.222656 488.070312 105.222656 C 523.585938 105.222656 523.585938 105.222656 523.585938 69.703125 C 523.585938 105.222656 523.585938 105.222656 559.105469 105.222656 Z M 559.105469 105.222656 " fill-opacity="1" fill-rule="nonzero"/><path fill="#db9f26" d="M 515.417969 88.835938 C 506.996094 88.835938 506.996094 88.835938 506.996094 97.257812 C 506.996094 88.835938 506.996094 88.835938 498.570312 88.835938 C 506.996094 88.835938 506.996094 88.835938 506.996094 80.410156 C 506.996094 88.835938 506.996094 88.835938 515.417969 88.835938 Z M 515.417969 88.835938 " fill-opacity="1" fill-rule="nonzero"/><path fill="#db9f26" d="M 543.582031 121.003906 C 539.109375 121.003906 539.109375 121.003906 539.109375 125.476562 C 539.109375 121.003906 539.109375 121.003906 534.636719 121.003906 C 539.109375 121.003906 539.109375 121.003906 539.109375 116.535156 C 539.109375 121.003906 539.109375 121.003906 543.582031 121.003906 Z M 543.582031 121.003906 " fill-opacity="1" fill-rule="nonzero"/><path fill="#db9f26" d="M 584.507812 110.128906 C 581.835938 110.128906 581.835938 110.128906 581.835938 112.804688 C 581.835938 110.128906 581.835938 110.128906 579.164062 110.128906 C 581.835938 110.128906 581.835938 110.128906 581.835938 107.457031 C 581.835938 110.128906 581.835938 110.128906 584.507812 110.128906 Z M 584.507812 110.128906 " fill-opacity="1" fill-rule="nonzero"/><path fill="#db9f26" d="M 583.171875 60.839844 C 580.5 60.839844 580.5 60.839844 580.5 63.511719 C 580.5 60.839844 580.5 60.839844 577.828125 60.839844 C 580.5 60.839844 580.5 60.839844 580.5 58.167969 C 580.5 60.839844 580.5 60.839844 583.171875 60.839844 Z M 583.171875 60.839844 " fill-opacity="1" fill-rule="nonzero"/><path fill="#db9f26" d="M 533.59375 60.839844 C 530.921875 60.839844 530.921875 60.839844 530.921875 63.511719 C 530.921875 60.839844 530.921875 60.839844 528.25 60.839844 C 530.921875 60.839844 530.921875 60.839844 530.921875 58.167969 C 530.921875 60.839844 530.921875 60.839844 533.59375 60.839844 Z M 533.59375 60.839844 " fill-opacity="1" fill-rule="nonzero"/></svg>