<svg xmlns="http://www.w3.org/2000/svg" xmlns:xlink="http://www.w3.org/1999/xlink" width="984" zoomAndPan="magnify" viewBox="0 0 738 566.249966" height="755" preserveAspectRatio="xMidYMid meet" version="1.0"><defs><filter x="0%" y="0%" width="100%" height="100%" id="258c00026c"><feColorMatrix values="0 0 0 0 1 0 0 0 0 1 0 0 0 0 1 0 0 0 1 0" color-interpolation-filters="sRGB"/></filter><clipPath id="ee84fb1a3c"><path d="M 0.488281 81 L 737.511719 81 L 737.511719 565.5 L 0.488281 565.5 Z M 0.488281 81 " clip-rule="nonzero"/></clipPath><mask id="4cb0ce56e3"><g filter="url(#258c00026c)"><rect x="-73.8" width="885.6" fill="#000000" y="-56.624997" height="679.499959" fill-opacity="0.1"/></g></mask><clipPath id="6ebb26de48"><path d="M 0.488281 374 L 374 374 L 374 384 L 0.488281 384 Z M 0.488281 374 " clip-rule="nonzero"/></clipPath><clipPath id="dadbeb9420"><rect x="0" width="738" y="0" height="485"/></clipPath><clipPath id="9fc6362f90"><path d="M 45.207031 247.828125 L 397 247.828125 L 397 471.792969 L 45.207031 471.792969 Z M 45.207031 247.828125 " clip-rule="nonzero"/></clipPath><clipPath id="1bcead976a"><path d="M 83.40625 247.828125 L 358.796875 247.828125 C 368.925781 247.828125 378.640625 251.851562 385.804688 259.015625 C 392.96875 266.179688 396.996094 275.894531 396.996094 286.027344 L 396.996094 433.59375 C 396.996094 443.726562 392.96875 453.441406 385.804688 460.605469 C 378.640625 467.769531 368.925781 471.792969 358.796875 471.792969 L 83.40625 471.792969 C 73.277344 471.792969 63.558594 467.769531 56.394531 460.605469 C 49.230469 453.441406 45.207031 443.726562 45.207031 433.59375 L 45.207031 286.027344 C 45.207031 275.894531 49.230469 266.179688 56.394531 259.015625 C 63.558594 251.851562 73.277344 247.828125 83.40625 247.828125 Z M 83.40625 247.828125 " clip-rule="nonzero"/></clipPath><clipPath id="3bb3e3c142"><path d="M 139.15625 205.3125 L 302.902344 205.3125 L 302.902344 290.410156 L 139.15625 290.410156 Z M 139.15625 205.3125 " clip-rule="nonzero"/></clipPath><clipPath id="dce635a97a"><path d="M 193.816406 210.046875 C 202.191406 207.1875 211.769531 205.3125 221.144531 205.3125 C 230.519531 205.3125 239.542969 206.921875 247.855469 209.777344 C 248.035156 209.867188 248.210938 209.867188 248.386719 209.957031 C 279.609375 221.386719 302.605469 251.566406 303.046875 284.246094 L 303.046875 290.332031 L 139.15625 290.332031 L 139.15625 284.25 C 139.597656 251.386719 162.238281 221.207031 193.816406 210.046875 Z M 193.816406 210.046875 " clip-rule="nonzero"/></clipPath><clipPath id="2f551f324f"><path d="M 45.207031 247.828125 L 397 247.828125 L 397 343.972656 L 45.207031 343.972656 Z M 45.207031 247.828125 " clip-rule="nonzero"/></clipPath><clipPath id="59ca5fc67e"><path d="M 83.40625 247.828125 L 358.796875 247.828125 C 368.925781 247.828125 378.640625 251.851562 385.804688 259.015625 C 392.96875 266.179688 396.996094 275.894531 396.996094 286.027344 L 396.996094 305.773438 C 396.996094 315.902344 392.96875 325.621094 385.804688 332.78125 C 378.640625 339.945312 368.925781 343.972656 358.796875 343.972656 L 83.40625 343.972656 C 73.277344 343.972656 63.558594 339.945312 56.394531 332.78125 C 49.230469 325.621094 45.207031 315.902344 45.207031 305.773438 L 45.207031 286.027344 C 45.207031 275.894531 49.230469 266.179688 56.394531 259.015625 C 63.558594 251.851562 73.277344 247.828125 83.40625 247.828125 Z M 83.40625 247.828125 " clip-rule="nonzero"/></clipPath><clipPath id="ceec6d93fe"><path d="M 207.300781 308.359375 L 234.902344 308.359375 L 234.902344 379.625 L 207.300781 379.625 Z M 207.300781 308.359375 " clip-rule="nonzero"/></clipPath><clipPath id="610edff60a"><path d="M 221.101562 308.359375 C 224.761719 308.359375 228.273438 309.8125 230.859375 312.398438 C 233.449219 314.988281 234.902344 318.5 234.902344 322.160156 L 234.902344 365.785156 C 234.902344 369.445312 233.449219 372.957031 230.859375 375.542969 C 228.273438 378.132812 224.761719 379.585938 221.101562 379.585938 C 217.441406 379.585938 213.929688 378.132812 211.34375 375.542969 C 208.753906 372.957031 207.300781 369.445312 207.300781 365.785156 L 207.300781 322.160156 C 207.300781 318.5 208.753906 314.988281 211.34375 312.398438 C 213.929688 309.8125 217.441406 308.359375 221.101562 308.359375 Z M 221.101562 308.359375 " clip-rule="nonzero"/></clipPath><clipPath id="5fd8af9ef1"><path d="M 604 5.210938 L 694.40625 5.210938 L 694.40625 91.558594 L 604 91.558594 Z M 604 5.210938 " clip-rule="nonzero"/></clipPath><clipPath id="d524d865a4"><path d="M 651.417969 7.125 L 658.597656 29.269531 C 659.976562 33.515625 663.933594 36.394531 668.398438 36.394531 L 691.601562 36.394531 C 692.65625 36.394531 693.59375 37.074219 693.921875 38.078125 C 694.246094 39.082031 693.890625 40.179688 693.035156 40.804688 L 674.253906 54.476562 C 670.644531 57.109375 669.132812 61.761719 670.511719 66.011719 L 677.691406 88.15625 C 678.015625 89.160156 677.65625 90.257812 676.804688 90.875 C 675.953125 91.492188 674.796875 91.492188 673.945312 90.871094 L 655.164062 77.195312 C 651.554688 74.570312 646.664062 74.570312 643.054688 77.195312 L 624.273438 90.871094 C 623.421875 91.492188 622.265625 91.492188 621.414062 90.875 C 620.558594 90.257812 620.203125 89.160156 620.527344 88.15625 L 627.707031 66.011719 C 629.085938 61.761719 627.574219 57.109375 623.960938 54.476562 L 605.179688 40.804688 C 604.328125 40.179688 603.96875 39.082031 604.296875 38.078125 C 604.625 37.074219 605.558594 36.394531 606.613281 36.394531 L 629.820312 36.394531 C 634.285156 36.394531 638.242188 33.515625 639.617188 29.269531 L 646.796875 7.125 C 647.125 6.125 648.054688 5.445312 649.109375 5.445312 C 650.160156 5.445312 651.09375 6.125 651.417969 7.125 Z M 651.417969 7.125 " clip-rule="nonzero"/></clipPath><clipPath id="1cbb16ff25"><path d="M 400 131.210938 L 523.992188 131.210938 L 523.992188 255 L 400 255 Z M 400 131.210938 " clip-rule="nonzero"/></clipPath><clipPath id="71bce12445"><path d="M 317.898438 261 L 393 261 L 393 336.683594 L 317.898438 336.683594 Z M 317.898438 261 " clip-rule="nonzero"/></clipPath><clipPath id="df04e3d616"><path d="M 598.121094 157.367188 L 644.191406 157.367188 L 644.191406 201.5625 L 598.121094 201.5625 Z M 598.121094 157.367188 " clip-rule="nonzero"/></clipPath><clipPath id="049697129d"><path d="M 623.421875 159.074219 L 625.414062 165.207031 C 626.789062 169.453125 630.746094 172.332031 635.210938 172.332031 L 641.617188 172.332031 C 642.675781 172.332031 643.609375 173.011719 643.9375 174.015625 C 644.261719 175.019531 643.90625 176.117188 643.054688 176.738281 L 637.863281 180.519531 C 634.25 183.148438 632.738281 187.804688 634.117188 192.054688 L 636.105469 198.1875 C 636.429688 199.191406 636.074219 200.289062 635.21875 200.90625 C 634.367188 201.527344 633.210938 201.523438 632.359375 200.902344 L 627.167969 197.125 C 623.558594 194.496094 618.667969 194.496094 615.058594 197.125 L 609.867188 200.902344 C 609.015625 201.523438 607.859375 201.527344 607.007812 200.90625 C 606.152344 200.289062 605.796875 199.191406 606.121094 198.1875 L 608.109375 192.054688 C 609.488281 187.804688 607.976562 183.148438 604.367188 180.519531 L 599.171875 176.738281 C 598.320312 176.117188 597.964844 175.019531 598.289062 174.015625 C 598.617188 173.011719 599.554688 172.332031 600.609375 172.332031 L 607.015625 172.332031 C 611.480469 172.332031 615.4375 169.453125 616.816406 165.207031 L 618.804688 159.074219 C 619.128906 158.070312 620.0625 157.394531 621.113281 157.394531 C 622.167969 157.394531 623.097656 158.070312 623.421875 159.074219 Z M 623.421875 159.074219 " clip-rule="nonzero"/></clipPath><clipPath id="361025cc4a"><path d="M 500.738281 26.378906 L 546.808594 26.378906 L 546.808594 70.570312 L 500.738281 70.570312 Z M 500.738281 26.378906 " clip-rule="nonzero"/></clipPath><clipPath id="f4cb9cb7c5"><path d="M 526.039062 28.082031 L 528.027344 34.214844 C 529.40625 38.464844 533.363281 41.339844 537.828125 41.339844 L 544.234375 41.339844 C 545.289062 41.339844 546.226562 42.019531 546.554688 43.023438 C 546.878906 44.027344 546.523438 45.128906 545.667969 45.75 L 540.476562 49.53125 C 536.867188 52.160156 535.355469 56.816406 536.734375 61.0625 L 538.722656 67.199219 C 539.046875 68.199219 538.6875 69.296875 537.835938 69.917969 C 536.984375 70.535156 535.828125 70.535156 534.976562 69.914062 L 529.785156 66.132812 C 526.175781 63.507812 521.285156 63.507812 517.675781 66.132812 L 512.484375 69.914062 C 511.632812 70.535156 510.476562 70.535156 509.625 69.917969 C 508.769531 69.296875 508.414062 68.199219 508.738281 67.199219 L 510.726562 61.0625 C 512.105469 56.816406 510.59375 52.160156 506.980469 49.53125 L 501.789062 45.75 C 500.9375 45.128906 500.578125 44.027344 500.90625 43.023438 C 501.234375 42.019531 502.167969 41.339844 503.226562 41.339844 L 509.632812 41.339844 C 514.097656 41.339844 518.054688 38.464844 519.429688 34.214844 L 521.417969 28.082031 C 521.746094 27.082031 522.675781 26.402344 523.730469 26.402344 C 524.78125 26.402344 525.714844 27.082031 526.039062 28.082031 Z M 526.039062 28.082031 " clip-rule="nonzero"/></clipPath></defs><g clip-path="url(#ee84fb1a3c)"><g mask="url(#4cb0ce56e3)"><g transform="matrix(1, 0, 0, 1, 0.000000000000000111, 81)"><g clip-path="url(#dadbeb9420)"><path fill="#424c69" d="M 309.90625 134.109375 C 310.078125 119.375 310.234375 104.648438 310.378906 89.929688 C 315.554688 90.1875 313.621094 94.222656 313.664062 96.738281 C 313.902344 106.832031 313.988281 116.925781 313.664062 127.019531 C 313.535156 130.714844 314.03125 132.347656 315.277344 133.828125 C 317.726562 136.730469 321.722656 135.976562 329.523438 135.976562 C 336.335938 135.976562 349.914062 136.320312 360.894531 135.460938 C 362.730469 135.421875 364.34375 134.796875 365.730469 133.59375 C 367 132.230469 367.714844 130.617188 367.878906 128.761719 C 368.4375 125.066406 367.726562 123.328125 367.726562 119.160156 C 367.726562 106.855469 368.242188 94.503906 367.234375 82.195312 C 366.855469 81.1875 366.6875 80.144531 366.738281 79.066406 C 366.785156 77.988281 367.042969 76.960938 367.511719 75.988281 C 368.824219 72.125 366.050781 67.59375 369.425781 64.046875 L 369.273438 64.605469 C 375.417969 66.753906 370.90625 72.339844 372.734375 75.925781 C 373.675781 77.773438 374.25 79.726562 374.453125 81.789062 C 374.945312 88.789062 375.269531 99.378906 374.816406 118.066406 C 374.558594 128.804688 375.054688 131.058594 376.796875 132.777344 C 379.203125 135.140625 382.230469 134.925781 395.726562 135.074219 C 409.628906 135.246094 402.171875 135.441406 412.914062 135.398438 C 424.496094 135.398438 433.199219 135.117188 435.414062 135.074219 C 449.765625 134.710938 448.929688 135.226562 476.96875 135.226562 C 491.730469 135.226562 491.191406 135.097656 513.089844 135.074219 C 525.53125 135.074219 531.738281 135.074219 539.820312 135.074219 C 561.800781 135.246094 572.800781 135.332031 574.433594 135.441406 C 582.121094 135.726562 589.796875 135.605469 597.46875 135.074219 C 605.246094 134.601562 607.417969 134.128906 609.179688 132.347656 C 611.328125 130.199219 611.542969 127.492188 611.027344 110.699219 C 610.835938 104.941406 610.621094 99.402344 610.535156 96.78125 C 610.234375 88.8125 610.167969 82.347656 610.148438 78.117188 C 610.148438 53.136719 610.726562 29.746094 611.394531 21.523438 C 611.542969 19.824219 611.757812 17.65625 611.886719 14.285156 C 612.015625 10.910156 611.886719 9.066406 612.167969 5.414062 C 612.273438 3.542969 612.425781 2.042969 612.53125 1.117188 C 613.199219 1.117188 613.90625 1.117188 614.679688 1.117188 C 615.449219 1.113281 616.214844 1.15625 616.980469 1.246094 C 616.980469 2.171875 616.980469 3.585938 616.980469 5.347656 C 616.980469 6.402344 617.085938 7.496094 617.367188 11.320312 C 617.367188 12.585938 617.582031 14.304688 617.730469 16.367188 C 617.601562 19.847656 617.472656 24.957031 617.472656 31.402344 C 617.472656 38.511719 617.6875 42.957031 617.816406 47.46875 C 617.96875 53.589844 618.03125 62.351562 617.601562 73.242188 C 617.828125 75 617.949219 76.769531 617.96875 78.546875 C 617.96875 80.070312 617.96875 80.695312 617.859375 82.839844 C 617.753906 85.503906 617.753906 87.457031 617.753906 90.078125 C 617.753906 92.226562 617.753906 92.054688 617.859375 97.230469 C 617.859375 99.703125 617.859375 101.527344 617.859375 103.007812 C 617.859375 103.007812 617.859375 105.824219 617.859375 110.289062 C 617.988281 123.175781 618.054688 129.621094 620.332031 132.089844 C 622.609375 134.558594 625.511719 134.816406 631.570312 135.804688 C 635.363281 136.398438 639.171875 136.5625 643 136.300781 C 662.53125 135.675781 664.230469 137.394531 666.980469 135.074219 C 669.324219 133.078125 669.496094 130.609375 669.730469 113.726562 C 669.902344 100.558594 669.988281 93.964844 670.011719 83.378906 C 670.011719 75.796875 670.140625 69.589844 670.226562 65.59375 C 670.742188 58.035156 671.042969 49.9375 670.957031 41.347656 C 670.957031 34.902344 670.632812 28.632812 670.226562 22.746094 L 675.1875 22.746094 C 677.230469 22.746094 679.25 22.746094 681.226562 22.617188 C 680.625 29.777344 680.175781 37.25 679.875 45.039062 C 679.660156 50.625 679.535156 56.078125 679.507812 61.40625 L 679.25 73.972656 C 678.949219 79.664062 678.753906 84.386719 678.625 87.757812 C 678.132812 101.074219 678.453125 100.109375 678.023438 110.289062 C 677.851562 114.21875 678.023438 118.171875 677.765625 122.101562 C 677.464844 128.804688 677.035156 132.304688 679.25 134.300781 C 680.003906 134.851562 680.828125 135.242188 681.730469 135.472656 C 682.636719 135.703125 683.546875 135.757812 684.472656 135.632812 C 693.386719 135.398438 717.28125 135.632812 720.65625 135.761719 C 729.25 136.363281 731.59375 132.628906 731.292969 125.238281 C 731.558594 125.007812 731.863281 124.839844 732.199219 124.730469 C 732.535156 124.621094 732.878906 124.582031 733.230469 124.613281 C 733.582031 124.640625 733.914062 124.738281 734.226562 124.90625 C 734.539062 125.070312 734.808594 125.289062 735.03125 125.5625 C 735.546875 128.632812 736.082031 131.746094 736.339844 134.753906 C 736.597656 137.761719 737.160156 140.617188 735.804688 141.949219 C 734 143.730469 730.089844 142.398438 727.917969 141.753906 C 726.113281 141.238281 716.574219 141.304688 697.472656 141.433594 C 683.074219 141.433594 680.96875 141.992188 679.25 143.902344 C 677.53125 145.816406 677.464844 147.296875 677.101562 160.632812 C 676.929688 167.851562 676.84375 171.375 676.777344 179.191406 C 676.777344 183.488281 676.671875 189.4375 676.476562 196.824219 C 675.976562 197.308594 675.402344 197.679688 674.757812 197.941406 C 673.871094 198.230469 672.964844 198.320312 672.039062 198.214844 C 671.113281 198.109375 670.25 197.820312 669.453125 197.339844 C 669.453125 191.820312 669.582031 187.394531 669.710938 184.453125 C 670.3125 170.105469 670.097656 164.285156 669.710938 152.644531 C 669.820312 151.214844 669.65625 149.816406 669.222656 148.449219 C 668.785156 147.082031 668.113281 145.84375 667.195312 144.742188 C 665.046875 142.59375 662.339844 142.59375 657.441406 142.378906 C 647.8125 142.011719 638.101562 142.828125 628.539062 142.378906 C 626.46875 142.195312 624.511719 142.589844 622.671875 143.558594 C 622.058594 143.941406 621.476562 144.371094 620.933594 144.847656 C 618.589844 146.996094 617.644531 150.066406 617.367188 160.804688 C 617.171875 168.558594 617.496094 174.53125 617.625 176.9375 C 617.839844 181.015625 618.183594 187.824219 618.613281 196.632812 C 617.078125 197.375 615.460938 197.796875 613.757812 197.898438 C 612.089844 198 610.464844 197.785156 608.878906 197.253906 C 609.136719 193.859375 609.503906 189.179688 609.867188 183.574219 C 611.910156 151.527344 610.363281 146.609375 607.160156 143.945312 C 605.890625 142.894531 600.886719 142.742188 590.871094 142.507812 C 579.441406 142.207031 569.835938 142.292969 554.753906 142.3125 L 511.886719 142.3125 L 478 142.078125 C 461.625 141.949219 453.375 141.882812 450.796875 141.820312 C 445.703125 141.710938 440.355469 141.5625 432.316406 141.582031 C 426.023438 141.582031 425.484375 141.582031 420.328125 141.582031 C 410.292969 141.582031 408.402344 141.175781 399.140625 141.089844 C 381.265625 140.960938 378.515625 141.710938 376.515625 143.925781 C 375.804688 144.71875 374.816406 146.070312 374.042969 157.347656 C 373.441406 166.152344 373.527344 172.984375 373.550781 180.371094 C 373.550781 184.046875 373.550781 189.628906 373.550781 196.589844 C 372.582031 196.738281 371.574219 196.890625 370.519531 196.996094 C 368.886719 197.191406 367.320312 197.296875 365.835938 197.363281 C 365.835938 193.195312 366.007812 187.652344 366.332031 181.125 C 366.589844 175.582031 367.039062 168.453125 367.0625 159.644531 C 367.0625 147.210938 366.308594 144.976562 364.613281 143.410156 C 363.367188 142.25 361.949219 141.734375 351.183594 141.433594 C 339.730469 141.109375 342.050781 141.710938 329.695312 141.796875 C 322.582031 141.796875 319.082031 141.667969 316.800781 144.269531 C 316.128906 145.125 315.621094 146.074219 315.28125 147.113281 C 314.941406 148.148438 314.789062 149.210938 314.824219 150.304688 C 314.15625 161.253906 314.078125 172.207031 314.589844 183.164062 C 314.804688 186.492188 315.082031 191.410156 315.320312 197.449219 C 313.035156 197.90625 310.734375 197.992188 308.421875 197.707031 C 308.636719 193.988281 308.851562 188.984375 308.917969 183.058594 C 308.917969 179.105469 308.917969 177.367188 308.421875 163.105469 C 307.90625 147.597656 307.863281 146.050781 306.273438 144.398438 C 303.628906 141.753906 301.675781 143.582031 286.570312 142.550781 C 280.597656 142.121094 275.308594 142.269531 264.695312 142.550781 C 263.527344 142.5 262.386719 142.660156 261.277344 143.03125 C 260.164062 143.402344 259.15625 143.957031 258.25 144.699219 C 257.359375 145.707031 256.695312 146.847656 256.257812 148.121094 C 255.820312 149.390625 255.636719 150.699219 255.714844 152.042969 C 255.414062 162.78125 254.875 173.714844 254.746094 184.539062 C 254.746094 187.308594 254.597656 191.625 254.125 196.976562 C 253.222656 197.617188 252.222656 197.917969 251.117188 197.875 C 250.414062 197.847656 249.757812 197.671875 249.140625 197.339844 C 248.882812 190.746094 248.667969 181.554688 248.96875 170.515625 C 249.355469 154.835938 250.40625 148.476562 246.128906 144.527344 C 244.582031 143.109375 243.164062 142.742188 228.273438 142.378906 C 214.414062 142.121094 201.480469 142.378906 192.15625 142.183594 C 190.035156 142.183594 187.886719 142.183594 185.707031 142.183594 C 168.519531 142.398438 151.328125 142.65625 134.140625 142.054688 C 132.714844 141.949219 131.324219 141.671875 129.96875 141.21875 C 124.425781 137.4375 116.324219 143.6875 111.621094 136.558594 L 111.449219 136.558594 C 111.664062 136.429688 112.007812 136.214844 112.457031 135.976562 C 118.90625 132.542969 124.339844 136.105469 127.5 134.152344 C 129.261719 133.054688 130.722656 129.855469 128.980469 120.363281 C 130.65625 120.167969 132.636719 120.148438 133.28125 121.222656 C 133.511719 121.640625 133.578125 122.085938 133.472656 122.554688 C 131.453125 134.066406 137.296875 136.085938 147.246094 135.441406 C 160.136719 134.644531 172.921875 135.441406 185.773438 135.183594 C 187.921875 134.507812 190.070312 134.507812 192.21875 135.183594 C 208.207031 135.289062 224.191406 134.925781 240.179688 135.375 C 241.359375 135.554688 242.53125 135.5 243.6875 135.207031 C 244.847656 134.917969 245.902344 134.414062 246.863281 133.699219 C 247.640625 132.710938 248.199219 131.609375 248.535156 130.394531 C 248.871094 129.179688 248.957031 127.949219 248.796875 126.699219 C 248.796875 121.480469 248.796875 116.132812 248.945312 109.515625 C 248.945312 104.0625 248.945312 98.628906 248.945312 93.171875 C 249.617188 93.085938 250.289062 93.050781 250.964844 93.066406 C 251.609375 93.066406 252.898438 93.257812 252.898438 93.257812 C 252.769531 101.160156 252.75 106.382812 252.75 109.710938 L 252.75 116.949219 C 252.75 119.976562 252.75 123.390625 252.75 127.105469 C 252.75 130.824219 252.898438 132.84375 254.402344 134.152344 C 255.503906 134.972656 256.734375 135.316406 258.097656 135.183594 C 275.160156 134.710938 292.585938 136.792969 309.90625 134.109375 Z M 309.90625 134.109375 " fill-opacity="1" fill-rule="nonzero"/><path fill="#424c69" d="M 490.632812 322.320312 C 472.714844 320.367188 454.75 321.527344 436.789062 321.867188 C 436.472656 322 436.140625 322.058594 435.800781 322.050781 C 435.457031 322.042969 435.128906 321.96875 434.820312 321.824219 C 434.507812 321.679688 434.242188 321.476562 434.015625 321.21875 C 433.789062 320.960938 433.625 320.671875 433.519531 320.34375 C 433.355469 319.851562 433.28125 319.347656 433.296875 318.828125 C 433.3125 318.3125 433.421875 317.8125 433.617188 317.332031 C 433.816406 316.851562 434.089844 316.421875 434.445312 316.042969 C 434.796875 315.664062 435.207031 315.355469 435.671875 315.125 C 449.035156 311.582031 462.660156 313.964844 476.171875 313.386719 C 488.3125 312.847656 489.453125 312.097656 489.472656 299.898438 C 489.496094 287.699219 490.269531 275.070312 488.699219 262.699219 C 488.457031 261.347656 488.34375 259.988281 488.355469 258.617188 C 488.347656 257.242188 488.449219 255.875 488.65625 254.515625 C 490.503906 239.953125 489.300781 225.324219 489.472656 210.742188 C 489.472656 206.941406 488.570312 203.054688 490.441406 199.378906 C 490.898438 199.089844 491.394531 198.890625 491.921875 198.773438 C 492.449219 198.65625 492.984375 198.628906 493.519531 198.699219 C 494.058594 198.769531 494.566406 198.925781 495.050781 199.171875 C 495.53125 199.417969 495.957031 199.738281 496.328125 200.132812 C 501.269531 211.945312 498.027344 224.335938 498.800781 236.453125 C 499.097656 242.179688 499.097656 247.90625 498.800781 253.632812 C 498.800781 255.03125 498.800781 256.445312 498.800781 257.929688 C 498.800781 259.410156 498.800781 260.679688 498.800781 262.054688 C 499.121094 275.628906 498.949219 289.222656 498.800781 302.859375 C 498.800781 310.121094 501.613281 313.601562 509.136719 313.449219 C 518.074219 313.214844 527.011719 313.449219 535.953125 313.449219 C 542.871094 313.449219 545.621094 310.054688 545.683594 303.398438 C 545.8125 289.800781 545.554688 276.226562 545.835938 262.589844 C 545.835938 261.195312 545.835938 259.796875 545.835938 258.421875 C 545.835938 257.046875 545.835938 255.566406 545.835938 254.128906 C 545.511719 240.1875 545.664062 226.207031 545.835938 212.351562 C 545.835938 208.058594 545.835938 203.761719 548.476562 200.066406 C 548.886719 199.683594 549.347656 199.382812 549.863281 199.160156 C 550.375 198.9375 550.910156 198.808594 551.472656 198.773438 C 552.03125 198.738281 552.578125 198.796875 553.117188 198.953125 C 553.652344 199.109375 554.148438 199.351562 554.601562 199.679688 C 559.695312 208.273438 557.09375 217.851562 557.480469 227 C 557.867188 236.152344 557.71875 244.828125 557.480469 253.742188 C 557.480469 255.160156 557.351562 256.574219 557.351562 258.035156 C 557.351562 259.496094 557.351562 260.828125 557.351562 262.332031 C 557.683594 275.5625 557.683594 288.792969 557.351562 302.023438 C 557.160156 310.613281 560.8125 313.535156 569.171875 313.6875 C 583.117188 313.902344 597.105469 311.839844 611.027344 315.230469 C 611.507812 315.457031 611.9375 315.757812 612.3125 316.132812 C 612.683594 316.507812 612.984375 316.9375 613.207031 317.417969 C 613.425781 317.902344 613.558594 318.40625 613.601562 318.933594 C 613.644531 319.464844 613.597656 319.984375 613.457031 320.496094 C 613.359375 320.832031 613.199219 321.136719 612.972656 321.40625 C 612.75 321.675781 612.476562 321.886719 612.164062 322.042969 C 611.847656 322.199219 611.515625 322.28125 611.164062 322.296875 C 610.8125 322.3125 610.472656 322.253906 610.148438 322.125 C 593.925781 321.996094 577.679688 322.125 561.457031 321.632812 C 555.011719 321.441406 553.65625 324.144531 553.785156 329.835938 C 554.042969 341.800781 553.785156 353.785156 553.785156 365.769531 C 550.90625 367.917969 550.542969 364.953125 549.382812 363.621094 C 549.382812 352.367188 549.382812 341.132812 549.726562 329.902344 C 549.898438 324.144531 548.285156 321.460938 541.925781 321.675781 C 527.207031 322.148438 512.464844 322.039062 497.726562 322.167969 C 494.460938 331.984375 498.433594 342.335938 495.578125 352.238281 C 495.164062 352.769531 495.054688 353.355469 495.253906 354 C 489.988281 354 492.289062 349.960938 492.054688 347.554688 C 491.085938 338.988281 493.277344 330.523438 490.632812 322.320312 Z M 490.632812 322.320312 " fill-opacity="1" fill-rule="nonzero"/><path fill="#424c69" d="M 554.558594 202.042969 C 551.917969 202.042969 550.261719 201.851562 548.886719 201.914062 C 539.703125 202.34375 530.265625 202.628906 520.566406 202.773438 C 512.429688 202.902344 504.464844 202.902344 496.671875 202.773438 L 476.214844 203.246094 C 462.699219 203.246094 449.164062 203.65625 435.648438 203.074219 C 433.453125 203.011719 431.261719 203.074219 429.074219 203.269531 C 410.1875 203.269531 391.300781 203.570312 372.410156 203.074219 L 368.113281 203.074219 C 350.753906 203.460938 333.371094 203.074219 316.007812 203.246094 C 313.863281 203.046875 311.714844 202.980469 309.5625 203.054688 C 290.695312 203.375 271.828125 203.417969 252.984375 203.054688 L 248.6875 203.054688 C 229.820312 203.332031 187.707031 203.054688 185.535156 203.054688 C 168.21875 203.375 150.898438 203.417969 133.582031 203.054688 C 132.699219 203.054688 131.238281 203.054688 129.28125 203.054688 C 110.953125 203.054688 107.496094 202.429688 96.085938 202.367188 C 84.675781 202.300781 65.402344 202.816406 57.816406 202.367188 C 55.085938 202.214844 52.402344 201.871094 52.402344 201.871094 C 49.4375 201.507812 46.964844 201.035156 45.203125 200.648438 C 45.042969 200.617188 44.886719 200.570312 44.738281 200.503906 C 44.589844 200.433594 44.453125 200.351562 44.324219 200.25 C 44.199219 200.144531 44.085938 200.03125 43.988281 199.898438 C 43.886719 199.769531 43.808594 199.628906 43.746094 199.476562 C 43.683594 199.328125 43.636719 199.171875 43.613281 199.011719 C 43.589844 198.847656 43.585938 198.6875 43.601562 198.523438 C 43.621094 198.363281 43.65625 198.203125 43.710938 198.050781 C 43.769531 197.898438 43.84375 197.753906 43.933594 197.621094 L 43.570312 197.835938 C 45.628906 196.957031 47.777344 196.46875 50.015625 196.375 C 53.390625 196.375 56.203125 196.375 58.246094 196.546875 C 62.15625 196.71875 62.542969 196.847656 66.109375 196.953125 C 69.183594 196.953125 69.699219 196.953125 74.082031 196.953125 C 76.875 196.953125 77.734375 197.0625 79.839844 197.125 C 84.675781 197.125 87.855469 197.125 90.949219 197.125 C 96.320312 197.125 95.933594 197.125 108.140625 197.363281 C 115.292969 197.363281 120.816406 197.363281 125.007812 197.492188 C 134.269531 197.492188 134.957031 197.492188 141.765625 197.492188 C 154.359375 197.492188 152.960938 197.792969 159.878906 197.726562 C 167.445312 197.726562 168.109375 197.40625 183.644531 196.996094 C 188.972656 196.847656 191.640625 196.78125 194.390625 196.738281 C 201.542969 196.738281 204.210938 196.738281 219.144531 197.234375 C 229.886719 197.535156 231.734375 196.867188 248.324219 196.867188 L 255.21875 196.867188 C 259.34375 196.867188 265.621094 196.867188 273.332031 196.738281 C 286.527344 196.589844 287.472656 196.4375 300.40625 196.308594 C 307.476562 196.308594 306.273438 196.308594 312.546875 196.308594 C 324.023438 196.308594 326.492188 196.03125 338.074219 195.902344 C 342.867188 195.902344 347.960938 195.902344 354.664062 195.902344 C 364.742188 195.902344 363.496094 196.09375 373.722656 196.136719 C 383.949219 196.179688 391.386719 196.136719 399.828125 195.644531 L 400.625 195.644531 C 402.363281 195.644531 405.375 195.644531 426.28125 195.859375 C 442.050781 196.03125 455.546875 196.265625 462.207031 196.074219 C 467.75 195.945312 468.652344 195.816406 474.882812 195.6875 C 487.648438 195.429688 497.273438 195.6875 499.359375 195.6875 C 499.359375 195.6875 541.195312 196.675781 548.390625 195.6875 L 548.414062 195.6875 C 548.90625 195.6875 550.21875 195.449219 551.875 195.386719 L 553.011719 195.386719 C 554.246094 195.347656 555.480469 195.390625 556.707031 195.515625 C 560.640625 195.835938 584.640625 195.0625 599.082031 195.75 C 603.285156 195.984375 607.488281 195.984375 611.695312 195.75 C 613.84375 195.621094 615.453125 195.472656 615.992188 195.429688 C 623.835938 194.699219 631.03125 196.050781 640.292969 196.480469 C 652.328125 197.0625 666.078125 196.007812 671.40625 196.160156 L 675.230469 196.289062 L 678.304688 196.417969 L 716.980469 197.792969 C 717.132812 198.566406 717.128906 199.339844 716.964844 200.109375 C 716.800781 200.882812 716.492188 201.589844 716.035156 202.238281 C 713.886719 204.921875 709.957031 203.226562 697.085938 203.3125 C 692.785156 203.3125 691.195312 203.527344 687.222656 203.3125 C 685.589844 203.203125 683.613281 203.054688 680.5625 202.988281 C 678.5625 202.988281 676.929688 202.988281 675.855469 202.988281 C 673.707031 202.988281 672.503906 202.988281 671.730469 202.988281 C 665.285156 202.988281 637.953125 201.914062 615.863281 201.894531 C 606.878906 201.894531 607.03125 202.066406 597.148438 201.894531 C 580.453125 201.894531 580.558594 201.3125 572.007812 201.65625 C 568.226562 201.828125 562.722656 202.128906 554.558594 202.042969 Z M 554.558594 202.042969 " fill-opacity="1" fill-rule="nonzero"/><path fill="#424c69" d="M 497.273438 135.441406 L 490.011719 135.183594 C 490.011719 128.589844 490.117188 122.855469 490.140625 118.195312 C 490.289062 91.453125 490.140625 86.902344 486.53125 84.042969 C 484.382812 82.347656 484.382812 83.355469 464.226562 82.324219 L 448.949219 81.832031 C 442.375 81.636719 439.066406 81.574219 437.390625 83.398438 C 435.714844 85.226562 436.59375 87.050781 437.109375 94.308594 C 437.777344 103.589844 437.109375 112.910156 437.109375 122.230469 C 437.261719 124.960938 437.519531 129.535156 437.820312 135.289062 L 429.222656 134.96875 C 429.332031 131.960938 429.460938 127.6875 429.589844 122.554688 C 430.019531 105.84375 429.589844 109.667969 429.847656 100.132812 C 430.210938 86.816406 430.898438 84.601562 428.773438 82.582031 C 426.644531 80.566406 424.21875 81.058594 411.777344 80.929688 C 407.480469 80.929688 403.179688 80.628906 398.710938 80.609375 C 392.160156 80.609375 382.726562 80.457031 370.605469 80.113281 C 370.605469 78.289062 370.605469 76.460938 370.433594 74.636719 C 371.335938 73.777344 372.023438 73.972656 372.582031 75.023438 C 381.457031 75.496094 390.804688 75.773438 400.515625 75.753906 C 410.746094 75.753906 420.484375 75.445312 429.738281 74.828125 C 430.167969 71.714844 430.40625 68.988281 430.511719 66.753906 C 430.707031 62.671875 430.511719 59.644531 430.511719 59 C 430.382812 56.207031 430.148438 53.78125 429.890625 51.871094 C 430.9375 51.945312 431.980469 51.945312 433.027344 51.871094 C 434.007812 51.828125 434.980469 51.734375 435.949219 51.589844 C 435.949219 52.472656 435.949219 53.738281 435.84375 55.304688 C 435.84375 57.648438 435.84375 58.808594 435.84375 59.429688 C 435.84375 62.070312 436.058594 62.351562 436.230469 66.476562 C 436.230469 68.621094 436.230469 68.621094 436.359375 70.167969 C 436.488281 72.316406 436.679688 73.90625 436.832031 75.023438 C 444.871094 75.949219 452.933594 76.464844 461.023438 76.570312 C 470.570312 76.679688 480.089844 76.230469 489.582031 75.214844 L 490.503906 74.613281 C 491.234375 64.113281 491.558594 53.136719 491.40625 41.734375 C 491.40625 39.304688 491.40625 36.878906 491.257812 34.496094 C 491.964844 34.496094 492.742188 34.625 493.558594 34.644531 L 495.921875 34.644531 C 495.769531 41.089844 495.683594 47.53125 495.726562 54.253906 C 495.769531 60.976562 495.921875 67.613281 496.179688 73.992188 C 496.246094 74.304688 496.367188 74.59375 496.542969 74.863281 C 496.71875 75.132812 496.9375 75.359375 497.195312 75.542969 C 497.457031 75.730469 497.742188 75.863281 498.050781 75.945312 C 498.359375 76.027344 498.675781 76.046875 498.992188 76.011719 C 500.582031 76.011719 518.890625 75.882812 545.148438 75.773438 L 556.578125 75.773438 L 597.835938 76.117188 L 611.867188 76.246094 L 611.542969 80.84375 C 604.539062 81.078125 598.824219 81.1875 594.914062 81.273438 C 579.507812 81.53125 574.328125 81.273438 557.179688 81.679688 C 551.574219 81.679688 550.863281 81.832031 547.660156 81.832031 C 538.574219 81.832031 534.015625 81.574219 525.164062 81.335938 C 503.675781 80.78125 500.820312 81.765625 498.972656 83.980469 C 497.53125 85.675781 497.339844 88.960938 496.996094 95.425781 C 496.457031 105.628906 497.167969 111.707031 497.359375 121.652344 C 497.46875 124.746094 497.488281 129.511719 497.273438 135.441406 Z M 497.273438 135.441406 " fill-opacity="1" fill-rule="nonzero"/><g clip-path="url(#6ebb26de48)"><path fill="#424c69" d="M 2.1875 378.011719 L 2.894531 378.164062 L 3.347656 377.605469 C 4.4375 376.703125 5.640625 375.988281 6.957031 375.457031 C 8.371094 375.140625 9.796875 375.078125 11.230469 375.261719 C 30.203125 375.132812 49.179688 375.992188 68.152344 374.789062 C 69.574219 374.558594 71.007812 374.417969 72.449219 374.359375 C 91.230469 373.953125 110.007812 373.996094 128.789062 374.359375 L 133.085938 374.359375 C 150.449219 374.082031 167.808594 373.996094 185.171875 374.359375 C 187.320312 374.359375 189.46875 374.359375 191.617188 374.359375 C 210.460938 374.039062 229.304688 373.996094 248.152344 374.359375 L 252.449219 374.359375 C 271.25 374.082031 290.03125 374.015625 308.808594 374.359375 L 313.105469 374.359375 C 330.683594 374.210938 348.28125 374.015625 365.859375 374.359375 C 367.269531 374.507812 368.652344 374.792969 370.003906 375.21875 C 371.292969 375.796875 372.496094 376.511719 373.613281 377.367188 L 373.292969 378.054688 C 373.402344 378.164062 373.5 378.285156 373.578125 378.421875 C 373.65625 378.554688 373.71875 378.699219 373.761719 378.847656 C 373.804688 378.996094 373.828125 379.148438 373.832031 379.304688 C 373.835938 379.460938 373.820312 379.617188 373.785156 379.765625 C 373.75 379.917969 373.695312 380.0625 373.621094 380.203125 C 373.550781 380.339844 373.460938 380.46875 373.355469 380.582031 C 373.25 380.695312 373.132812 380.796875 373 380.882812 C 372.871094 380.96875 372.730469 381.035156 372.582031 381.082031 C 371.421875 381.726562 370.175781 382.042969 368.84375 382.027344 C 367.535156 381.769531 366.246094 381.46875 364.933594 381.167969 C 347.742188 381.40625 330.554688 380.222656 313.363281 381.8125 C 311.910156 381.722656 310.476562 381.492188 309.066406 381.125 C 290.332031 381.578125 271.550781 379.96875 252.855469 382.007812 C 251.46875 382.539062 250.035156 382.898438 248.558594 383.082031 C 229.628906 383.917969 210.699219 383.574219 191.769531 383.296875 C 189.621094 383.296875 187.46875 383.296875 185.320312 383.296875 C 167.980469 383.617188 150.640625 383.660156 133.300781 383.296875 C 131.863281 383.296875 130.398438 383.296875 129.003906 383.296875 C 110.203125 383.574219 91.402344 383.640625 72.597656 383.296875 L 68.300781 383.296875 C 49.09375 383.554688 29.882812 383.597656 10.671875 383.296875 C 9.257812 383.167969 7.863281 382.929688 6.484375 382.585938 C 4.550781 381.8125 2.445312 381.253906 1.367188 379.195312 L 1.839844 379.515625 L 0.488281 378.464844 Z M 2.1875 378.011719 " fill-opacity="1" fill-rule="nonzero"/></g><path fill="#424c69" d="M 429.460938 199.058594 L 436.507812 199.058594 C 436.378906 202.472656 436.1875 207.648438 436.1875 214.09375 C 436.1875 218.109375 436.1875 220.535156 436.679688 235.765625 C 437.089844 250.28125 437.132812 250.992188 437.175781 253.804688 C 437.175781 257.585938 437.28125 262.613281 437.347656 272.683594 C 437.347656 273.652344 437.347656 282.519531 437.496094 293.453125 C 437.496094 297.75 437.496094 299.898438 437.667969 302.816406 C 437.863281 308.636719 438.207031 313.40625 438.484375 316.691406 C 437.261719 318.066406 436.058594 319.464844 434.832031 320.859375 C 434.941406 322.0625 435.027344 323.328125 435.089844 324.617188 C 435.199219 327.453125 435.199219 330.160156 435.089844 332.671875 C 435.089844 334.582031 434.917969 336.558594 434.898438 338.578125 C 434.898438 339.847656 434.898438 341.070312 434.898438 342.273438 C 433.347656 342.894531 430.597656 343.796875 429.351562 342.59375 C 428.105469 341.390625 428.921875 340.019531 429.351562 337.160156 C 429.707031 334.304688 429.792969 331.441406 429.609375 328.570312 C 429.609375 326.164062 429.761719 323.757812 429.847656 321.355469 C 410.636719 318.476562 391.300781 321.355469 372.066406 319.9375 C 371.570312 319.460938 371.175781 318.90625 370.886719 318.28125 C 370.402344 317.101562 370.34375 315.898438 370.714844 314.675781 C 376.042969 314.566406 384.273438 314.460938 394.351562 314.503906 C 415.558594 314.632812 423.917969 315.359375 427.441406 310.078125 C 428.128906 309.066406 428.214844 308.425781 428.34375 298.007812 C 428.492188 286.238281 428.578125 280.332031 428.515625 273.800781 C 428.515625 265.511719 428.34375 263.640625 428.515625 259.023438 C 428.664062 254.945312 428.835938 253.332031 429.007812 248.285156 C 429.160156 243.839844 429.136719 241.5 429.160156 235.980469 C 429.160156 223.414062 429.4375 222.019531 429.503906 209.882812 C 429.480469 205.199219 429.460938 201.3125 429.460938 199.058594 Z M 429.460938 199.058594 " fill-opacity="1" fill-rule="nonzero"/><path fill="#424c69" d="M 553.894531 75.625 C 551.457031 76.738281 548.914062 77.503906 546.265625 77.921875 C 530.902344 78.136719 515.558594 77.921875 500.21875 77.921875 C 499.738281 77.957031 499.261719 77.925781 498.792969 77.824219 C 498.320312 77.726562 497.875 77.570312 497.445312 77.347656 C 497.019531 77.125 496.632812 76.851562 496.28125 76.519531 C 495.929688 76.191406 495.632812 75.820312 495.382812 75.410156 C 496.308594 74.359375 497.082031 74.464844 497.660156 75.753906 C 512.445312 75.882812 527.226562 75.859375 542.011719 76.183594 C 547.46875 76.183594 549.660156 74.230469 549.574219 68.707031 C 549.316406 53.933594 549.425781 39.15625 549.359375 24.378906 C 550.476562 23.066406 550.671875 20.082031 553.65625 22.230469 C 553.699219 40.085938 553.777344 57.882812 553.894531 75.625 Z M 553.894531 75.625 " fill-opacity="1" fill-rule="nonzero"/><path fill="#424c69" d="M 611.996094 199.917969 L 615.667969 200.109375 C 620.761719 210.3125 617.6875 221.246094 618.289062 231.832031 C 618.703125 239.132812 618.652344 246.425781 618.140625 253.71875 C 618 255.136719 617.722656 256.527344 617.300781 257.886719 C 616.738281 259.179688 616.316406 260.519531 616.035156 261.902344 C 615.90625 279.085938 616.035156 296.265625 616.035156 313.449219 C 615.390625 316.132812 618.183594 318.390625 617.023438 321.140625 L 617.386719 321.867188 C 614.445312 328.957031 616.914062 336.386719 615.949219 343.605469 C 615.667969 345.753906 617.796875 349.683594 612.703125 349.058594 C 612.796875 348.722656 612.808594 348.386719 612.734375 348.042969 C 612.664062 347.703125 612.515625 347.398438 612.296875 347.128906 C 610.84375 338.679688 610.84375 330.230469 612.296875 321.78125 L 612.296875 316.457031 C 607.828125 311.171875 609.074219 304.75 609.007812 298.671875 C 608.859375 286.6875 608.792969 274.703125 609.007812 262.71875 C 609.007812 261.28125 609.007812 259.820312 609.136719 258.421875 C 609.265625 257.027344 609.136719 255.503906 609.136719 254.128906 C 608.792969 240.511719 608.988281 226.914062 609.03125 213.320312 C 608.988281 208.617188 608.75 203.847656 611.996094 199.917969 Z M 611.996094 199.917969 " fill-opacity="1" fill-rule="nonzero"/><path fill="#424c69" d="M 673.039062 199.917969 L 676.113281 199.917969 C 678.132812 214.414062 676.414062 229 677.035156 243.515625 C 677.207031 247.683594 676.175781 251.957031 677.917969 256.039062 L 678.109375 256.167969 C 678.292969 256.28125 678.457031 256.417969 678.605469 256.574219 C 678.753906 256.730469 678.878906 256.902344 678.984375 257.089844 C 679.085938 257.277344 679.167969 257.472656 679.21875 257.683594 C 679.273438 257.890625 679.300781 258.101562 679.300781 258.316406 C 679.300781 258.53125 679.273438 258.742188 679.21875 258.949219 C 679.167969 259.15625 679.085938 259.355469 678.984375 259.542969 C 678.878906 259.730469 678.753906 259.902344 678.605469 260.058594 C 678.457031 260.214844 678.292969 260.351562 678.109375 260.464844 L 678.433594 261.171875 C 675.554688 265.46875 677.789062 270.257812 677.015625 274.746094 C 676.691406 276.636719 677.917969 279.902344 673.769531 278.828125 L 673.039062 260.828125 C 672.207031 259.65625 671.492188 258.417969 670.890625 257.113281 C 670.46875 255.707031 670.167969 254.273438 669.988281 252.816406 C 669.453125 239.585938 669.730469 226.335938 669.753906 213.105469 C 669.945312 208.660156 669.667969 203.871094 673.039062 199.917969 Z M 673.039062 199.917969 " fill-opacity="1" fill-rule="nonzero"/><path fill="#424c69" d="M 66.734375 322.296875 C 52.703125 320.472656 38.605469 321.976562 24.554688 321.441406 C 23.113281 319.808594 22.984375 318.304688 25.046875 317.035156 C 38.949219 316.5625 52.980469 318.21875 66.753906 316.089844 C 67.054688 316.476562 67.355469 316.886719 67.679688 317.273438 C 67.820312 317.617188 67.902344 317.976562 67.921875 318.347656 C 67.945312 318.71875 67.902344 319.082031 67.800781 319.441406 C 67.703125 319.800781 67.542969 320.132812 67.332031 320.4375 C 67.117188 320.742188 66.863281 321.003906 66.5625 321.226562 Z M 66.734375 322.296875 " fill-opacity="1" fill-rule="nonzero"/><path fill="#424c69" d="M 191.1875 134.109375 C 190.898438 134.824219 190.898438 135.539062 191.1875 136.257812 L 185.988281 136.40625 C 185.988281 136.042969 186.09375 135.65625 186.136719 135.289062 C 186.265625 134.34375 186.289062 134.171875 186.289062 134.152344 C 186.289062 133.464844 186.480469 122.984375 186.609375 96.886719 L 190.628906 96.886719 Z M 191.1875 134.109375 " fill-opacity="1" fill-rule="nonzero"/><path fill="#424c69" d="M 371.617188 319.226562 C 387.386719 319.226562 403.160156 319.097656 418.886719 319.226562 C 422.5625 319.226562 426.6875 317.960938 429.632812 321.375 L 373.398438 321.933594 C 372.96875 322.171875 372.511719 322.261719 372.023438 322.210938 C 371.535156 322.160156 371.105469 321.976562 370.734375 321.652344 C 370.59375 321.195312 370.605469 320.742188 370.769531 320.292969 C 370.933594 319.84375 371.214844 319.488281 371.617188 319.226562 Z M 371.617188 319.226562 " fill-opacity="1" fill-rule="nonzero"/><path fill="#424c69" d="M 672.890625 258.316406 C 672.890625 259.195312 673.0625 260.054688 673.125 260.9375 C 654.496094 260.636719 635.84375 259.820312 617.257812 261.410156 L 616.335938 261.839844 L 615.582031 261.152344 C 615.691406 260.207031 615.796875 259.28125 615.925781 258.335938 C 618.417969 255.351562 621.921875 255.160156 625.402344 255.09375 C 638.058594 254.878906 650.738281 254.902344 663.414062 255.09375 C 666.851562 255.136719 670.3125 255.480469 672.890625 258.316406 Z M 672.890625 258.316406 " fill-opacity="1" fill-rule="nonzero"/><path fill="#424c69" d="M 612.382812 77.859375 C 595.730469 77.859375 579.078125 78.03125 562.421875 78.03125 C 559.414062 78.03125 556.105469 78.761719 553.828125 75.667969 C 572.585938 76.675781 591.324219 76.375 610.082031 75.839844 C 610.621094 74.59375 611.351562 74.464844 612.230469 75.410156 Z M 612.382812 77.859375 " fill-opacity="1" fill-rule="nonzero"/><path fill="#424c69" d="M 677.808594 255.996094 C 677.414062 255.722656 677.058594 255.398438 676.75 255.027344 C 676.441406 254.652344 676.1875 254.246094 675.988281 253.808594 C 675.789062 253.367188 675.652344 252.90625 675.578125 252.429688 C 675.503906 251.949219 675.496094 251.472656 675.554688 250.992188 C 675.683594 233.9375 675.832031 216.898438 676.003906 199.875 L 678.367188 199.875 C 679.015625 200.410156 679.1875 200.90625 678.90625 201.355469 C 678.628906 201.808594 678.390625 201.980469 678.132812 201.980469 Z M 677.808594 255.996094 " fill-opacity="1" fill-rule="nonzero"/><path fill="#424c69" d="M 68.667969 260.828125 C 63.660156 261.023438 58.417969 261.109375 52.9375 261.042969 C 47.980469 261.042969 43.199219 260.871094 38.585938 260.527344 C 38.417969 260.386719 38.265625 260.230469 38.128906 260.058594 C 37.996094 259.882812 37.882812 259.699219 37.789062 259.5 C 37.695312 259.300781 37.625 259.09375 37.578125 258.878906 C 37.527344 258.667969 37.503906 258.449219 37.503906 258.230469 C 37.503906 258.011719 37.527344 257.792969 37.578125 257.578125 C 37.625 257.367188 37.695312 257.160156 37.789062 256.960938 C 37.882812 256.761719 37.996094 256.574219 38.128906 256.402344 C 38.265625 256.230469 38.417969 256.070312 38.585938 255.933594 C 43.183594 255.675781 47.882812 255.460938 52.679688 255.289062 C 57.953125 255.117188 63.109375 255 68.152344 254.945312 C 67.921875 255.183594 67.792969 255.472656 67.765625 255.804688 C 67.746094 255.96875 67.746094 256.132812 67.765625 256.296875 C 67.613281 256.714844 67.570312 257.144531 67.636719 257.585938 C 67.667969 257.882812 67.753906 258.160156 67.894531 258.421875 C 67.933594 258.671875 67.992188 258.914062 68.066406 259.152344 C 68.21875 259.730469 68.421875 260.285156 68.667969 260.828125 Z M 68.667969 260.828125 " fill-opacity="1" fill-rule="nonzero"/><path fill="#424c69" d="M 615.347656 316.242188 C 615.96875 316.371094 616.59375 316.371094 617.214844 316.242188 C 625.597656 318.023438 634.105469 316.820312 642.550781 317.058594 C 642.734375 317.164062 642.902344 317.292969 643.054688 317.445312 C 643.210938 317.59375 643.339844 317.761719 643.453125 317.945312 C 643.5625 318.125 643.648438 318.320312 643.710938 318.523438 C 643.773438 318.730469 643.808594 318.9375 643.820312 319.152344 C 643.828125 319.367188 643.8125 319.578125 643.769531 319.789062 C 643.726562 319.996094 643.65625 320.199219 643.5625 320.390625 C 643.46875 320.582031 643.351562 320.761719 643.214844 320.921875 C 643.074219 321.085938 642.917969 321.230469 642.742188 321.355469 L 616.957031 321.160156 C 616.421875 319.550781 615.882812 317.894531 615.347656 316.242188 Z M 615.347656 316.242188 " fill-opacity="1" fill-rule="nonzero"/><path fill="#424c69" d="M 186.09375 443.261719 C 186.328125 442.503906 186.234375 441.789062 185.816406 441.113281 C 185.996094 440.933594 186.191406 440.769531 186.402344 440.628906 C 186.613281 440.488281 186.839844 440.371094 187.078125 440.273438 C 187.3125 440.179688 187.558594 440.109375 187.808594 440.066406 C 188.058594 440.019531 188.3125 440 188.566406 440.007812 C 188.820312 440.015625 189.074219 440.046875 189.320312 440.105469 C 189.570312 440.164062 189.808594 440.25 190.039062 440.355469 C 190.269531 440.464844 190.488281 440.597656 190.691406 440.75 C 190.898438 440.902344 191.082031 441.074219 191.253906 441.265625 C 191.019531 441.945312 191.019531 442.625 191.253906 443.304688 L 190.480469 463.539062 C 185.214844 465.683594 188.328125 460.035156 186.179688 459.089844 C 186.902344 453.8125 186.875 448.535156 186.09375 443.261719 Z M 186.09375 443.261719 " fill-opacity="1" fill-rule="nonzero"/><path fill="#424c69" d="M 186.332031 459.046875 C 188.027344 460.25 188.199219 462.871094 190.628906 463.496094 L 190.886719 483.082031 C 190.726562 483.230469 190.546875 483.34375 190.34375 483.421875 C 190.144531 483.503906 189.933594 483.542969 189.714844 483.542969 C 189.5 483.542969 189.289062 483.503906 189.085938 483.421875 C 188.882812 483.34375 188.703125 483.230469 188.542969 483.082031 C 187.835938 482.230469 187.054688 481.453125 186.203125 480.742188 C 186.179688 473.460938 186.246094 466.265625 186.332031 459.046875 Z M 186.332031 459.046875 " fill-opacity="1" fill-rule="nonzero"/><path fill="#424c69" d="M 313.558594 380.566406 C 313.558594 388.902344 313.558594 397.214844 313.277344 405.527344 C 313.277344 408.746094 314.351562 412.527344 310.464844 414.632812 L 309.820312 382.414062 C 310.113281 381.699219 310.113281 380.984375 309.820312 380.265625 Z M 313.558594 380.566406 " fill-opacity="1" fill-rule="nonzero"/><path fill="#424c69" d="M 580.367188 19.136719 C 582.664062 15.421875 586.46875 16.472656 589.796875 16.367188 C 597.148438 16.152344 604.496094 16.171875 611.84375 16.085938 C 611.972656 17.332031 612.125 18.578125 612.273438 19.824219 L 611.222656 19.589844 L 610.148438 19.804688 Z M 580.367188 19.136719 " fill-opacity="1" fill-rule="nonzero"/><path fill="#424c69" d="M 341.621094 79.921875 C 345.378906 76.417969 350.214844 77.773438 354.511719 77.277344 C 358.550781 76.847656 362.851562 78.351562 366.652344 75.839844 C 367.167969 74.636719 367.855469 74.527344 368.800781 75.453125 L 368.652344 80.78125 L 345.402344 80.414062 Z M 341.621094 79.921875 " fill-opacity="1" fill-rule="nonzero"/><path fill="#424c69" d="M 677.960938 260.335938 C 677.960938 258.917969 677.960938 257.519531 677.960938 256.039062 L 691.949219 255.890625 C 692.132812 256.015625 692.300781 256.160156 692.449219 256.332031 C 692.597656 256.5 692.71875 256.683594 692.820312 256.882812 C 692.917969 257.085938 692.992188 257.292969 693.039062 257.515625 C 693.082031 257.734375 693.097656 257.953125 693.085938 258.179688 C 693.074219 258.402344 693.035156 258.621094 692.96875 258.835938 C 692.898438 259.046875 692.804688 259.25 692.683594 259.4375 C 692.5625 259.625 692.421875 259.796875 692.257812 259.949219 C 692.089844 260.101562 691.910156 260.230469 691.710938 260.335938 Z M 677.960938 260.335938 " fill-opacity="1" fill-rule="nonzero"/><path fill="#424c69" d="M 398.992188 380.289062 L 386.097656 380.179688 L 373.011719 380.179688 C 373.128906 379.117188 373.1875 378.050781 373.183594 376.980469 C 373.183594 376.273438 373.183594 375.585938 373.183594 374.832031 C 377.332031 374.941406 381.585938 375.089844 385.90625 375.328125 C 390.222656 375.5625 394.757812 375.820312 399.054688 376.144531 C 399.035156 377.539062 399.011719 378.957031 398.992188 380.289062 Z M 398.992188 380.289062 " fill-opacity="1" fill-rule="nonzero"/><path fill="#424c69" d="M 399.054688 379.988281 C 399.054688 378.808594 399.054688 377.625 399.054688 376.421875 L 403.523438 375.691406 C 403.726562 375.835938 403.90625 376.003906 404.066406 376.191406 C 404.226562 376.375 404.363281 376.578125 404.472656 376.800781 C 404.585938 377.019531 404.671875 377.25 404.730469 377.488281 C 404.785156 377.726562 404.816406 377.96875 404.816406 378.214844 C 404.816406 378.460938 404.785156 378.707031 404.730469 378.945312 C 404.671875 379.183594 404.585938 379.414062 404.472656 379.632812 C 404.363281 379.851562 404.226562 380.054688 404.066406 380.242188 C 403.90625 380.429688 403.726562 380.597656 403.523438 380.738281 C 402.878906 380.546875 402.257812 380.738281 401.675781 381.683594 Z M 399.054688 379.988281 " fill-opacity="1" fill-rule="nonzero"/><path fill="#424c69" d="M 185.964844 197.253906 C 187.324219 177.824219 187.253906 158.402344 185.75 138.984375 L 191.339844 139.113281 C 190.308594 158.445312 190.671875 177.773438 191.144531 197.105469 Z M 185.964844 197.253906 " fill-opacity="1" fill-rule="nonzero"/><path fill="#424c69" d="M 549.015625 197.167969 C 549.960938 177.835938 549.890625 158.503906 548.800781 139.179688 L 554.472656 139.179688 C 553.484375 158.507812 553.828125 177.839844 554.257812 197.167969 Z M 549.015625 197.167969 " fill-opacity="1" fill-rule="nonzero"/><path fill="#424c69" d="M 548.972656 136.257812 C 549.875 117.613281 549.917969 98.992188 548.972656 80.414062 L 554.34375 80.414062 C 553.636719 98.992188 553.722656 117.570312 554.34375 136.148438 Z M 548.972656 136.257812 " fill-opacity="1" fill-rule="nonzero"/><path fill="#424c69" d="M 435.003906 139.09375 C 434.015625 158.421875 434.339844 177.753906 434.832031 197.082031 L 431.308594 196.804688 C 431.308594 180.867188 431.367188 164.921875 431.480469 148.972656 C 431.480469 145.492188 431.867188 141.925781 429.566406 138.878906 Z M 435.003906 139.09375 " fill-opacity="1" fill-rule="nonzero"/><path fill="#424c69" d="M 495.941406 139.113281 C 494.910156 158.445312 495.253906 177.773438 495.726562 197.105469 L 492.246094 196.804688 C 492.246094 180.867188 492.296875 164.929688 492.398438 148.992188 C 492.398438 145.515625 492.71875 141.96875 490.441406 138.898438 Z M 495.941406 139.113281 " fill-opacity="1" fill-rule="nonzero"/><path fill="#424c69" d="M 133.539062 139.136719 C 133.539062 144.289062 133.34375 162.890625 133.300781 168.066406 C 133.300781 173.714844 133.109375 192.828125 133.042969 198.476562 L 127.261719 198.476562 C 127.164062 188.339844 127.121094 178.082031 127.132812 167.699219 C 127.132812 158.164062 127.21875 148.722656 127.390625 139.371094 Z M 133.539062 139.136719 " fill-opacity="1" fill-rule="nonzero"/><path fill="#424c69" d="M 673.234375 80.671875 L 617.171875 80.027344 C 617.171875 79.234375 617.386719 78.417969 617.515625 77.621094 L 672.910156 77.042969 Z M 673.234375 80.671875 " fill-opacity="1" fill-rule="nonzero"/><path fill="#424c69" d="M 617.601562 16.582031 C 621.085938 16.582031 623.8125 16.710938 625.703125 16.710938 C 627.144531 16.710938 628.582031 16.710938 630 16.710938 C 630.625 16.710938 634.898438 16.515625 634.964844 16.945312 C 634.964844 16.945312 634.964844 16.945312 634.964844 17.289062 L 634.964844 18.128906 C 635.011719 18.421875 635.011719 18.714844 634.964844 19.007812 C 631.976562 19.117188 628.90625 19.203125 625.789062 19.246094 C 623.019531 19.246094 620.308594 19.246094 617.644531 19.246094 C 617.507812 18.773438 617.449219 18.296875 617.472656 17.804688 C 617.457031 17.390625 617.5 16.984375 617.601562 16.582031 Z M 617.601562 16.582031 " fill-opacity="1" fill-rule="nonzero"/><path fill="#424c69" d="M 678.433594 77.429688 C 683.03125 77.859375 688.253906 75.109375 691.949219 80.113281 L 678.046875 80.113281 Z M 678.433594 77.429688 " fill-opacity="1" fill-rule="nonzero"/><path fill="#424c69" d="M 732.28125 124.917969 C 731.808594 122.253906 731.355469 119.589844 734.257812 117.871094 C 734.257812 120.210938 734.105469 122.554688 734.042969 124.917969 Z M 732.28125 124.917969 " fill-opacity="1" fill-rule="nonzero"/><path fill="#424c69" d="M 615.195312 14.089844 C 615.875 14.421875 616.589844 14.601562 617.34375 14.628906 C 617.539062 15.332031 617.652344 16.046875 617.6875 16.773438 C 617.34375 16.773438 617.007812 16.703125 616.691406 16.5625 C 616.375 16.421875 616.097656 16.226562 615.863281 15.972656 C 615.625 15.71875 615.449219 15.425781 615.335938 15.101562 C 615.21875 14.773438 615.171875 14.4375 615.195312 14.089844 Z M 615.195312 14.089844 " fill-opacity="1" fill-rule="nonzero"/><path fill="#424c69" d="M 617.171875 75.539062 C 617.300781 76.269531 617.386719 76.976562 617.453125 77.6875 C 617.121094 77.648438 616.804688 77.550781 616.511719 77.394531 C 616.214844 77.242188 615.957031 77.035156 615.738281 76.785156 C 615.519531 76.53125 615.355469 76.246094 615.242188 75.933594 C 615.128906 75.617188 615.078125 75.292969 615.089844 74.957031 C 615.730469 75.339844 616.425781 75.53125 617.171875 75.539062 Z M 617.171875 75.539062 " fill-opacity="1" fill-rule="nonzero"/><path fill="#424c69" d="M 612.1875 260.9375 L 554.171875 260.9375 L 554.367188 258.335938 C 573.5625 256.3125 592.757812 256.3125 611.953125 258.335938 Z M 612.1875 260.9375 " fill-opacity="1" fill-rule="nonzero"/><path fill="#424c69" d="M 611.929688 258.316406 L 554.34375 258.316406 C 554.34375 257.371094 554.195312 256.425781 554.128906 255.480469 L 612.144531 255.480469 Z M 611.929688 258.316406 " fill-opacity="1" fill-rule="nonzero"/><path fill="#424c69" d="M 490.699219 260.550781 L 434.832031 261.042969 C 434.832031 260.140625 434.832031 259.238281 434.941406 258.335938 C 453.503906 256.378906 472.070312 256.378906 490.632812 258.335938 C 490.613281 259.046875 490.65625 259.796875 490.699219 260.550781 Z M 490.699219 260.550781 " fill-opacity="1" fill-rule="nonzero"/><path fill="#424c69" d="M 490.546875 258.292969 L 434.855469 258.292969 C 434.855469 257.347656 434.746094 256.40625 434.683594 255.480469 L 490.71875 255.910156 C 490.65625 256.726562 490.613281 257.519531 490.546875 258.292969 Z M 490.546875 258.292969 " fill-opacity="1" fill-rule="nonzero"/><path fill="#424c69" d="M 495.621094 255.4375 L 549.164062 255.71875 L 548.972656 258.335938 C 531.265625 260.046875 513.5625 260.046875 495.855469 258.335938 C 495.769531 257.390625 495.683594 256.40625 495.621094 255.4375 Z M 495.621094 255.4375 " fill-opacity="1" fill-rule="nonzero"/><path fill="#424c69" d="M 495.855469 258.359375 L 548.972656 258.359375 C 548.972656 259.152344 549.101562 259.96875 549.144531 260.785156 L 495.664062 261.042969 Z M 495.855469 258.359375 " fill-opacity="1" fill-rule="nonzero"/><path fill="#424c69" d="M 186.050781 255.804688 C 187.128906 237.183594 187.035156 218.570312 185.773438 199.960938 L 191.273438 200.089844 L 191.015625 255.503906 L 191.402344 266.414062 C 191.597656 272.210938 191.832031 277.988281 192.046875 283.746094 C 191.832031 289.972656 191.855469 295.324219 191.941406 299.488281 C 192.132812 309.96875 192.777344 313.492188 195.378906 315.511719 C 196.242188 316.109375 197.179688 316.546875 198.195312 316.816406 C 199.207031 317.089844 200.238281 317.183594 201.285156 317.101562 C 223.890625 316.863281 247.269531 316.304688 249.398438 316.242188 C 249.726562 316.667969 249.976562 317.140625 250.152344 317.652344 C 250.324219 318.160156 250.414062 318.6875 250.414062 319.226562 C 250.414062 319.765625 250.324219 320.292969 250.152344 320.804688 C 249.976562 321.316406 249.726562 321.785156 249.398438 322.210938 L 223.484375 322.039062 C 206.550781 321.933594 198.019531 322.039062 194.667969 325.605469 C 191.316406 329.171875 192.046875 333.875 192.328125 350.585938 C 192.519531 362.246094 192.328125 371.632812 192.070312 377.5625 L 184.933594 378.054688 C 185.0625 370.773438 185.171875 361.300781 185.0625 350.132812 C 184.847656 331.511719 184.269531 327.90625 181.367188 325.15625 C 177.4375 321.417969 172.773438 322.449219 152.660156 322.320312 C 143.722656 322.320312 136.4375 321.996094 131.753906 321.804688 C 131.097656 320.488281 130.941406 319.113281 131.28125 317.679688 C 136.417969 317.488281 144.582031 317.273438 154.636719 317.378906 C 174.296875 317.59375 178.144531 318.777344 181.734375 315.425781 C 185.320312 312.074219 185.492188 302.539062 186.03125 283.660156 C 186.179688 278.804688 186.222656 274.769531 186.246094 271.910156 Z M 186.050781 255.804688 " fill-opacity="1" fill-rule="nonzero"/><path fill="#424c69" d="M 315.105469 199.746094 C 315.339844 207.242188 315.511719 214.78125 315.640625 222.535156 C 315.726562 228.546875 315.785156 234.511719 315.8125 240.425781 C 315.8125 244.417969 315.8125 250.453125 315.964844 257.820312 C 316.15625 270.40625 316.457031 281.019531 316.628906 286.539062 C 316.929688 297.082031 317.101562 300.21875 317.125 307.242188 C 317.125 310.398438 317.125 313.257812 316.953125 321.355469 C 316.585938 341.347656 316.285156 347.621094 316.09375 361.625 C 316.09375 365.167969 316.09375 370.625 315.964844 377.367188 L 306.984375 377.003906 C 307.371094 372.128906 307.777344 366.265625 308.078125 359.820312 C 308.378906 353.378906 308.53125 348.351562 308.574219 346.03125 C 308.765625 337.441406 308.703125 330.804688 308.574219 321.78125 C 308.574219 313.40625 308.378906 312.828125 308.335938 306.511719 C 308.335938 298.457031 308.335938 291.929688 308.464844 287.675781 C 308.351562 278.082031 308.351562 268.273438 308.464844 258.25 C 308.574219 251.808594 308.746094 245.601562 308.960938 239.414062 C 309.132812 233.84375 309.238281 228.195312 309.28125 222.46875 C 309.28125 214.78125 309.28125 207.261719 309.28125 199.894531 C 310.3125 199.894531 311.429688 199.894531 312.398438 199.765625 Z M 315.105469 199.746094 " fill-opacity="1" fill-rule="nonzero"/><path fill="#424c69" d="M 71.824219 199.9375 C 70.859375 218.453125 71.289062 236.988281 71.566406 255.523438 C 72.378906 256.691406 73.09375 257.917969 73.71875 259.195312 C 74.136719 260.542969 74.433594 261.917969 74.597656 263.320312 C 75.050781 280.933594 75.007812 298.542969 74.726562 316.175781 C 74.726562 318.324219 74.726562 320.472656 74.726562 322.621094 C 75.285156 336.496094 74.941406 350.390625 74.921875 364.246094 C 74.921875 368.863281 75.070312 373.585938 71.71875 377.410156 L 68.386719 377.238281 C 68.386719 361.042969 68.539062 344.851562 68.558594 328.632812 C 68.558594 326.035156 69.246094 323.15625 66.625 321.183594 L 66.625 317.421875 C 67.269531 316.046875 68.453125 314.695312 68.472656 313.320312 C 68.601562 296.933594 68.472656 280.546875 68.472656 264.15625 C 68.492188 263.371094 68.339844 262.617188 68.011719 261.902344 C 67.683594 261.183594 67.214844 260.578125 66.605469 260.078125 C 66.605469 258.808594 66.605469 257.542969 66.605469 256.277344 C 67.339844 255.625 67.878906 254.839844 68.222656 253.917969 C 68.566406 252.996094 68.671875 252.050781 68.539062 251.078125 C 68.410156 234.066406 68.265625 217.058594 68.109375 200.046875 Z M 71.824219 199.9375 " fill-opacity="1" fill-rule="nonzero"/><path fill="#424c69" d="M 249.097656 321.890625 L 249.097656 316.5 C 248.582031 304.171875 248.429688 294.765625 248.410156 288.363281 C 248.410156 285.355469 248.410156 280.632812 248.238281 273.910156 C 248.109375 267.722656 247.894531 262.632812 247.742188 259.304688 C 247.621094 258.609375 247.675781 257.929688 247.898438 257.265625 C 248.125 256.597656 248.496094 256.023438 249.011719 255.546875 C 249.3125 236.988281 249.71875 218.453125 248.773438 199.917969 L 252.578125 200.089844 C 252.449219 217.429688 252.3125 234.753906 252.167969 252.066406 C 252.128906 252.839844 252.25 253.585938 252.535156 254.304688 C 252.820312 255.027344 253.242188 255.652344 253.800781 256.191406 C 254.230469 256.625 254.554688 257.128906 254.777344 257.699219 C 254.996094 258.273438 255.09375 258.863281 255.070312 259.476562 C 254.941406 261.324219 255.070312 263.191406 254.941406 265.058594 C 255.089844 281.621094 254.941406 298.15625 255.175781 314.675781 C 255.503906 317.40625 255.667969 320.148438 255.671875 322.898438 C 254.660156 336.152344 255.390625 349.402344 255.089844 362.65625 C 255.089844 367.660156 255.734375 372.878906 252.277344 377.261719 L 248.945312 377.476562 C 248.585938 368.410156 248.410156 359.003906 248.410156 349.253906 C 248.480469 339.804688 248.710938 330.683594 249.097656 321.890625 Z M 249.097656 321.890625 " fill-opacity="1" fill-rule="nonzero"/><path fill="#424c69" d="M 366.546875 255.847656 C 366.375 247.96875 366.265625 239.980469 366.222656 231.875 C 366.222656 221.066406 366.28125 210.449219 366.394531 200.023438 C 367.613281 199.933594 368.832031 199.933594 370.046875 200.023438 C 371.246094 200.085938 372.4375 200.226562 373.613281 200.453125 C 373.242188 210.476562 373.019531 220.765625 372.949219 231.316406 C 372.949219 239.523438 373.007812 247.5625 373.121094 255.4375 C 372.757812 256.039062 372.601562 256.691406 372.648438 257.390625 C 372.730469 258.136719 373.039062 258.777344 373.570312 259.304688 C 373.3125 267.25 373.183594 274.144531 373.121094 279.730469 C 373.121094 287.417969 372.992188 291.371094 373.121094 296.480469 C 373.335938 304.386719 373.871094 311.171875 374.429688 316.519531 C 374.238281 318.132812 373.980469 320.644531 373.785156 323.738281 C 373.398438 329.59375 373.398438 335.449219 373.785156 341.304688 C 374.152344 347.429688 374.367188 358.039062 373.613281 377.539062 L 364.589844 377.90625 C 365.492188 354.707031 365.621094 343.96875 365.558594 338.515625 C 365.558594 337.355469 365.558594 331.296875 365.558594 322.921875 C 365.558594 322.640625 365.558594 319.121094 365.558594 316.476562 C 365.558594 305.953125 366.03125 297.148438 366.117188 295 C 366.417969 288.171875 366.675781 277.257812 366.503906 259.453125 C 366.644531 259.363281 366.769531 259.261719 366.886719 259.140625 C 367 259.019531 367.097656 258.886719 367.179688 258.742188 C 367.265625 258.597656 367.328125 258.445312 367.371094 258.285156 C 367.417969 258.125 367.445312 257.960938 367.449219 257.796875 C 367.453125 257.628906 367.4375 257.464844 367.402344 257.304688 C 367.371094 257.140625 367.316406 256.984375 367.242188 256.835938 C 367.167969 256.6875 367.078125 256.546875 366.972656 256.421875 C 366.863281 256.292969 366.746094 256.179688 366.609375 256.082031 Z M 366.546875 255.847656 " fill-opacity="1" fill-rule="nonzero"/><path fill="#424c69" d="M 132.355469 199.960938 L 132.484375 255.480469 C 132.679688 256.46875 132.957031 258.164062 133.171875 260.292969 C 133.53125 263.789062 133.589844 267.289062 133.34375 270.792969 C 132.722656 280.546875 133.96875 284.261719 133.34375 301.980469 C 133.214844 305.460938 133 310.570312 132.527344 316.605469 L 131.796875 316.886719 C 131.488281 317.027344 131.160156 317.101562 130.820312 317.113281 C 130.480469 317.125 130.148438 317.070312 129.832031 316.949219 C 129.511719 316.828125 129.230469 316.648438 128.980469 316.417969 C 128.734375 316.183594 128.539062 315.910156 128.402344 315.597656 C 128.1875 312.546875 127.886719 307.867188 127.757812 302.152344 C 127.585938 293.925781 127.886719 289.566406 127.929688 282.820312 C 127.929688 277.6875 127.929688 270.214844 127.089844 261 C 127.292969 260.054688 127.441406 259.105469 127.542969 258.144531 C 127.542969 258.144531 127.542969 257.113281 127.542969 255.996094 C 127.542969 254.128906 127.371094 231.082031 127.070312 199.636719 C 127.90625 199.636719 128.765625 199.765625 129.710938 199.808594 C 130.65625 199.851562 131.5625 199.980469 132.355469 199.960938 Z M 132.355469 199.960938 " fill-opacity="1" fill-rule="nonzero"/><path fill="#424c69" d="M 71.203125 153.117188 C 70.992188 153.894531 71.121094 154.609375 71.589844 155.265625 C 71.589844 169.253906 71.589844 183.234375 71.589844 197.210938 L 68.152344 197.039062 C 68.152344 185.890625 68.152344 174.746094 68.515625 163.621094 C 68.6875 159.988281 66.949219 155.738281 71.203125 153.117188 Z M 71.203125 153.117188 " fill-opacity="1" fill-rule="nonzero"/><path fill="#424c69" d="M 185.921875 438.472656 C 187.332031 419.042969 187.332031 399.613281 185.921875 380.179688 L 191.273438 380.308594 C 190.566406 399.640625 190.609375 418.96875 191.273438 438.300781 C 191.121094 438.503906 190.945312 438.691406 190.746094 438.855469 C 190.550781 439.023438 190.339844 439.164062 190.113281 439.28125 C 189.882812 439.398438 189.644531 439.492188 189.398438 439.554688 C 189.148438 439.621094 188.894531 439.65625 188.640625 439.664062 C 188.382812 439.675781 188.128906 439.652344 187.875 439.605469 C 187.625 439.554688 187.382812 439.480469 187.144531 439.378906 C 186.910156 439.273438 186.691406 439.144531 186.484375 438.992188 C 186.277344 438.839844 186.089844 438.667969 185.921875 438.472656 Z M 185.921875 438.472656 " fill-opacity="1" fill-rule="nonzero"/><path fill="#424c69" d="M 248.34375 438.6875 C 248.558594 429.28125 248.644531 419.636719 248.601562 409.757812 C 248.558594 399.875 248.351562 390.105469 247.980469 380.4375 C 248.808594 380.4375 249.710938 380.4375 250.6875 380.4375 C 251.308594 380.4375 251.910156 380.4375 252.46875 380.4375 L 252.46875 438.128906 C 252.207031 438.398438 251.90625 438.621094 251.566406 438.789062 C 251.230469 438.957031 250.875 439.066406 250.5 439.113281 C 250.125 439.164062 249.753906 439.148438 249.382812 439.074219 C 249.015625 438.996094 248.667969 438.859375 248.34375 438.664062 Z M 248.34375 438.6875 " fill-opacity="1" fill-rule="nonzero"/><path fill="#424c69" d="M 71.761719 380.289062 C 71.03125 399.617188 71.09375 418.949219 71.761719 438.28125 C 71.652344 438.410156 71.53125 438.527344 71.394531 438.632812 C 71.261719 438.734375 71.113281 438.820312 70.957031 438.886719 C 70.800781 438.957031 70.640625 439.003906 70.472656 439.035156 C 70.304688 439.0625 70.136719 439.074219 69.964844 439.0625 C 69.796875 439.050781 69.628906 439.023438 69.464844 438.972656 C 69.304688 438.921875 69.148438 438.855469 69.003906 438.765625 C 68.855469 438.679688 68.722656 438.578125 68.601562 438.457031 C 68.476562 438.339844 68.371094 438.207031 68.28125 438.066406 C 68.28125 418.835938 68.28125 399.617188 68.28125 380.417969 Z M 71.761719 380.289062 " fill-opacity="1" fill-rule="nonzero"/><path fill="#424c69" d="M 132.679688 380.308594 C 131.992188 399.640625 132.011719 418.96875 132.679688 438.300781 C 132.570312 438.433594 132.445312 438.546875 132.308594 438.652344 C 132.175781 438.753906 132.027344 438.835938 131.871094 438.90625 C 131.714844 438.972656 131.550781 439.019531 131.382812 439.046875 C 131.214844 439.078125 131.046875 439.085938 130.875 439.074219 C 130.707031 439.0625 130.539062 439.03125 130.378906 438.980469 C 130.214844 438.929688 130.0625 438.859375 129.914062 438.773438 C 129.769531 438.683594 129.636719 438.582031 129.515625 438.460938 C 129.390625 438.339844 129.285156 438.210938 129.195312 438.066406 C 129.195312 418.878906 129.195312 399.691406 129.195312 380.503906 Z M 132.679688 380.308594 " fill-opacity="1" fill-rule="nonzero"/><path fill="#424c69" d="M 132.65625 321.71875 C 132.65625 340.332031 132.65625 358.902344 132.65625 377.433594 L 129.347656 377.238281 L 129.347656 321.847656 C 129.496094 321.632812 129.683594 321.453125 129.910156 321.316406 C 130.132812 321.175781 130.375 321.089844 130.636719 321.054688 C 130.898438 321.015625 131.15625 321.035156 131.410156 321.105469 C 131.664062 321.175781 131.894531 321.292969 132.097656 321.460938 Z M 132.65625 321.71875 " fill-opacity="1" fill-rule="nonzero"/><path fill="#424c69" d="M 8.652344 380.375 L 7.878906 431.492188 C 7.207031 432.609375 6.582031 432.609375 6.011719 431.492188 L 5.300781 380.246094 Z M 8.652344 380.375 " fill-opacity="1" fill-rule="nonzero"/><path fill="#424c69" d="M 5.324219 377.410156 C 5.625 373.824219 5.902344 370.238281 6.183594 366.671875 C 9.0625 369.742188 8.007812 373.695312 8.566406 377.261719 Z M 5.324219 377.410156 " fill-opacity="1" fill-rule="nonzero"/><path fill="#424c69" d="M 371.679688 380.4375 C 371.402344 382.585938 371.144531 384.585938 370.863281 386.644531 C 368.480469 385.230469 368.714844 382.695312 368.328125 380.460938 Z M 371.679688 380.4375 " fill-opacity="1" fill-rule="nonzero"/><path fill="#424c69" d="M 429.824219 260.507812 L 371.636719 261.023438 C 371.636719 260.140625 371.832031 259.238281 371.9375 258.335938 C 391.191406 256.386719 410.445312 256.386719 429.695312 258.335938 C 429.769531 259.039062 429.8125 259.761719 429.824219 260.507812 Z M 429.824219 260.507812 " fill-opacity="1" fill-rule="nonzero"/><path fill="#424c69" d="M 429.695312 258.25 L 371.9375 258.25 L 371.617188 255.375 L 429.824219 255.996094 C 429.804688 256.8125 429.761719 257.519531 429.695312 258.25 Z M 429.695312 258.25 " fill-opacity="1" fill-rule="nonzero"/><path fill="#424c69" d="M 615.476562 255.289062 C 634.683594 256.46875 653.917969 255.996094 673.148438 255.566406 L 672.890625 258.316406 L 615.882812 258.316406 C 615.753906 257.328125 615.605469 256.296875 615.476562 255.289062 Z M 615.476562 255.289062 " fill-opacity="1" fill-rule="nonzero"/><path fill="#424c69" d="M 129.152344 438.085938 L 132.636719 438.324219 L 185.921875 438.472656 L 191.167969 438.324219 L 248.925781 438.324219 L 252.46875 438.109375 L 267.898438 438.707031 C 266.824219 440.855469 264.847656 440.855469 262.914062 440.855469 C 252.167969 441.757812 252.167969 441.757812 252.019531 452.863281 C 252.019531 456.75 251.847656 460.660156 251.675781 464.546875 C 251.390625 465.554688 250.988281 466.515625 250.472656 467.425781 C 248.6875 460.378906 249.503906 453.871094 249.570312 447.492188 C 249.570312 442.402344 247.699219 440.75 242.714844 440.8125 C 225.523438 441.09375 208.335938 441.050781 191.144531 441.113281 L 185.707031 440.964844 L 132.765625 441.242188 C 132.515625 441.480469 132.230469 441.671875 131.914062 441.808594 C 131.597656 441.945312 131.269531 442.023438 130.921875 442.042969 C 130.578125 442.0625 130.242188 442.023438 129.910156 441.921875 C 129.582031 441.820312 129.277344 441.667969 129.003906 441.457031 C 111.578125 441.308594 94.152344 441.308594 76.726562 440.941406 C 71.890625 440.941406 70.75 443.304688 70.75 447.386719 C 68.902344 442.488281 65.550781 440.941406 60.203125 440.941406 C 43.65625 441.199219 27.109375 440.792969 10.585938 440.664062 C 9.664062 440.320312 9.363281 439.976562 9.640625 439.589844 C 9.839844 439.25 10.132812 439.054688 10.523438 439.007812 L 68.238281 438.214844 L 71.71875 438.429688 Z M 129.152344 438.085938 " fill-opacity="1" fill-rule="nonzero"/><path fill="#424c69" d="M 129.003906 441.4375 L 132.765625 441.222656 C 132.421875 447.136719 132.0625 453.050781 131.691406 458.960938 C 127.261719 453.65625 130.484375 447.191406 129.003906 441.4375 Z M 129.003906 441.4375 " fill-opacity="1" fill-rule="nonzero"/><path fill="#424c69" d="M 10.523438 438.921875 C 10.523438 439.480469 10.523438 440.019531 10.523438 440.578125 L 5.859375 440.707031 C 5.859375 437.613281 5.859375 434.519531 5.859375 431.429688 L 7.730469 431.429688 C 8.738281 433.960938 7.386719 437.25 10.523438 438.921875 Z M 10.523438 438.921875 " fill-opacity="1" fill-rule="nonzero"/><path fill="#424c69" d="M 127.648438 256.148438 C 127.648438 256.855469 127.648438 257.542969 127.648438 258.292969 C 115.550781 258.679688 106.894531 259.023438 100.769531 259.261719 C 95.828125 259.453125 90.757812 259.667969 83.773438 259.261719 C 78.832031 259.023438 74.75 258.617188 71.953125 258.273438 C 71.953125 257.347656 71.761719 256.40625 71.675781 255.480469 Z M 127.648438 256.148438 " fill-opacity="1" fill-rule="nonzero"/><path fill="#424c69" d="M 254.039062 258.207031 C 253.996094 257.535156 253.996094 256.863281 254.039062 256.191406 L 310.183594 255.566406 C 310.078125 256.488281 309.992188 257.414062 309.90625 258.335938 C 298.386719 264.78125 285.925781 260.65625 273.914062 261.34375 C 267.144531 261.710938 259.859375 263.449219 254.039062 258.207031 Z M 254.039062 258.207031 " fill-opacity="1" fill-rule="nonzero"/><path fill="#424c69" d="M 249.074219 255.546875 L 248.773438 258.316406 C 238.609375 258.851562 230.230469 259.21875 224.148438 259.476562 C 217.164062 259.777344 214.652344 259.863281 211.578125 259.839844 C 204.640625 259.839844 197.71875 259.453125 190.824219 258.679688 L 191.015625 255.4375 C 210.375 256.277344 229.714844 256.082031 249.074219 255.546875 Z M 249.074219 255.546875 " fill-opacity="1" fill-rule="nonzero"/><path fill="#424c69" d="M 368.5 255.503906 L 368.199219 258.316406 C 362.613281 263.234375 355.78125 261.496094 349.484375 261.367188 C 338.460938 261.128906 327.289062 263.191406 316.414062 259.777344 L 314.78125 258.25 L 314.78125 256.105469 Z M 368.5 255.503906 " fill-opacity="1" fill-rule="nonzero"/><path fill="#424c69" d="M 132.785156 258.335938 C 132.785156 257.371094 132.59375 256.425781 132.484375 255.480469 L 186.203125 255.933594 L 186.332031 258.359375 C 177.738281 258.574219 168.875 258.679688 159.75 258.679688 C 150.628906 258.679688 141.636719 258.566406 132.785156 258.335938 Z M 132.785156 258.335938 " fill-opacity="1" fill-rule="nonzero"/><path fill="#424c69" d="M 249.03125 260.9375 C 239.578125 260.679688 229.914062 260.535156 220.046875 260.507812 C 209.96875 260.507812 200.0625 260.507812 190.394531 260.765625 C 190.636719 260.0625 190.679688 259.34375 190.523438 258.617188 L 248.796875 258.378906 C 248.859375 259.175781 248.945312 260.054688 249.03125 260.9375 Z M 249.03125 260.9375 " fill-opacity="1" fill-rule="nonzero"/><path fill="#424c69" d="M 186.289062 260.828125 L 132.570312 261.085938 C 132.570312 260.183594 132.722656 259.304688 132.808594 258.421875 L 186.117188 258.421875 C 186.117188 258.808594 186.117188 259.21875 186.265625 259.691406 C 186.292969 260.070312 186.300781 260.449219 186.289062 260.828125 Z M 186.289062 260.828125 " fill-opacity="1" fill-rule="nonzero"/><path fill="#424c69" d="M 131.925781 321.460938 L 129.175781 321.847656 C 128.578125 321.867188 128.0625 321.675781 127.628906 321.269531 C 127.324219 321.042969 127.070312 320.773438 126.867188 320.460938 C 126.660156 320.148438 126.515625 319.808594 126.429688 319.441406 C 126.34375 319.074219 126.324219 318.703125 126.375 318.332031 C 126.421875 317.960938 126.53125 317.605469 126.703125 317.273438 C 126.847656 317.074219 127.015625 316.90625 127.214844 316.765625 C 127.414062 316.625 127.632812 316.523438 127.867188 316.457031 C 128.101562 316.390625 128.339844 316.363281 128.582031 316.378906 C 128.824219 316.394531 129.058594 316.449219 129.28125 316.542969 L 131.820312 316.886719 C 131.839844 318.410156 131.882812 319.9375 131.925781 321.460938 Z M 131.925781 321.460938 " fill-opacity="1" fill-rule="nonzero"/><path fill="#424c69" d="M 252.210938 316.132812 C 271.550781 318.023438 290.738281 317.035156 310.035156 316.671875 L 310.035156 321.847656 L 253.910156 321.269531 C 253.328125 319.550781 252.769531 317.832031 252.210938 316.132812 Z M 252.210938 316.132812 " fill-opacity="1" fill-rule="nonzero"/><path fill="#424c69" d="M 368.566406 321.910156 L 314.847656 321.375 C 314.847656 319.957031 314.609375 318.539062 314.503906 317.078125 C 314.804688 316.847656 315.0625 316.578125 315.277344 316.261719 C 315.570312 315.8125 315.742188 315.316406 315.792969 314.78125 L 341.578125 315.144531 L 368.308594 315.511719 Z M 368.566406 321.910156 " fill-opacity="1" fill-rule="nonzero"/><path fill="#424c69" d="M 309.90625 260.828125 C 290.71875 260.527344 271.527344 259.820312 252.339844 261.214844 C 252.289062 260.597656 252.398438 260.011719 252.671875 259.457031 C 252.945312 258.902344 253.34375 258.457031 253.867188 258.121094 L 309.734375 258.25 C 309.90625 259.195312 309.90625 260.054688 309.90625 260.828125 Z M 309.90625 260.828125 " fill-opacity="1" fill-rule="nonzero"/><path fill="#424c69" d="M 71.546875 316.671875 L 127.414062 317.507812 C 127.414062 318.777344 127.414062 320.042969 127.585938 321.3125 L 71.503906 321.933594 Z M 71.546875 316.671875 " fill-opacity="1" fill-rule="nonzero"/><path fill="#424c69" d="M 127.691406 260.335938 L 71.609375 260.957031 C 71.609375 260.078125 71.761719 259.195312 71.847656 258.316406 L 127.542969 258.316406 C 127.605469 258.9375 127.671875 259.648438 127.691406 260.335938 Z M 127.691406 260.335938 " fill-opacity="1" fill-rule="nonzero"/><path fill="#424c69" d="M 368.457031 260.957031 L 314.976562 260.59375 C 314.976562 259.839844 314.976562 259.089844 315.125 258.445312 L 368.199219 258.445312 Z M 368.457031 260.957031 " fill-opacity="1" fill-rule="nonzero"/></g></g></g></g><g clip-path="url(#9fc6362f90)"><g clip-path="url(#1bcead976a)"><path fill="#bdb2a7" d="M 45.207031 247.828125 L 396.902344 247.828125 L 396.902344 471.792969 L 45.207031 471.792969 Z M 45.207031 247.828125 " fill-opacity="1" fill-rule="nonzero"/></g></g><g clip-path="url(#3bb3e3c142)"><g clip-path="url(#dce635a97a)"><path stroke-linecap="butt" transform="matrix(0.622641, 0, 0, 0.622641, 139.155058, 205.312996)" fill="none" stroke-linejoin="miter" d="M 87.789532 7.602905 C 101.240304 3.010571 116.62337 -0.000796201 131.680204 -0.000796201 C 146.737039 -0.000796201 161.229242 2.58396 174.579635 7.170021 C 174.868224 7.314316 175.15054 7.314316 175.432856 7.458611 C 225.578388 25.815401 262.511548 74.285861 263.220474 126.771476 L 263.220474 136.545871 L 0.00191375 136.545871 L 0.00191375 126.777749 C 0.71084 73.997271 37.073095 25.526812 87.789532 7.602905 Z M 87.789532 7.602905 " stroke="#502d16" stroke-width="48.11813" stroke-opacity="1" stroke-miterlimit="4"/></g></g><g clip-path="url(#2f551f324f)"><g clip-path="url(#59ca5fc67e)"><path fill="#594a3e" d="M 45.207031 247.828125 L 397.109375 247.828125 L 397.109375 343.972656 L 45.207031 343.972656 Z M 45.207031 247.828125 " fill-opacity="1" fill-rule="nonzero"/></g></g><g clip-path="url(#ceec6d93fe)"><g clip-path="url(#610edff60a)"><path fill="#502d16" d="M 207.300781 308.359375 L 234.902344 308.359375 L 234.902344 379.625 L 207.300781 379.625 Z M 207.300781 308.359375 " fill-opacity="1" fill-rule="nonzero"/></g></g><g clip-path="url(#5fd8af9ef1)"><g clip-path="url(#d524d865a4)"><path fill="#db9f26" d="M 599.125 0 L 699.246094 0 L 699.246094 95.28125 L 599.125 95.28125 Z M 599.125 0 " fill-opacity="1" fill-rule="nonzero"/></g></g><path fill="#bdb2a7" d="M 469.898438 241.078125 C 457.976562 250.128906 445.945312 257.15625 434.980469 261.457031 C 433.792969 261.921875 432.625 262.355469 431.488281 262.753906 L 431.488281 290.65625 L 471.140625 251 L 469.898438 241.078125 " fill-opacity="1" fill-rule="nonzero"/><path fill="#bdb2a7" d="M 413.921875 185.105469 L 404.007812 183.867188 L 364.355469 223.519531 L 392.25 223.519531 C 392.644531 222.382812 393.082031 221.207031 393.554688 220.015625 C 397.847656 209.058594 404.875 197.027344 413.921875 185.105469 " fill-opacity="1" fill-rule="nonzero"/><g clip-path="url(#1cbb16ff25)"><path fill="#bdb2a7" d="M 472.527344 182.480469 C 466.011719 175.964844 466.011719 165.367188 472.527344 158.851562 C 479.039062 152.339844 489.640625 152.339844 496.15625 158.851562 C 502.667969 165.367188 502.667969 175.964844 496.15625 182.480469 C 489.640625 188.996094 479.039062 188.996094 472.527344 182.480469 Z M 468.679688 231.320312 C 474.824219 226.414062 480.859375 221.015625 486.640625 215.230469 C 500.203125 201.667969 510.507812 183.679688 517.265625 161.765625 C 517.976562 159.460938 518.640625 157.136719 519.242188 154.847656 C 521.894531 144.78125 523.152344 136.296875 523.726562 131.28125 C 518.710938 131.855469 510.230469 133.113281 500.164062 135.765625 C 497.871094 136.367188 495.542969 137.035156 493.246094 137.742188 C 471.328125 144.496094 453.339844 154.796875 439.773438 168.363281 C 433.988281 174.148438 428.585938 180.183594 423.679688 186.328125 C 423.152344 186.988281 422.625 187.648438 422.113281 188.308594 C 415.207031 197.175781 409.484375 206.09375 405.253906 214.535156 C 403.792969 217.457031 402.503906 220.324219 401.414062 223.105469 C 401.183594 223.683594 400.964844 224.257812 400.757812 224.816406 L 430.1875 254.246094 C 430.746094 254.039062 431.316406 253.820312 431.886719 253.59375 C 434.679688 252.5 437.550781 251.210938 440.480469 249.742188 C 448.917969 245.511719 457.835938 239.792969 466.699219 232.890625 C 467.359375 232.375 468.019531 231.847656 468.679688 231.320312 " fill-opacity="1" fill-rule="nonzero"/></g><path fill="#bdb2a7" d="M 490.183594 164.824219 C 486.960938 161.605469 481.71875 161.605469 478.5 164.824219 C 475.277344 168.046875 475.277344 173.285156 478.5 176.507812 C 481.71875 179.730469 486.960938 179.730469 490.179688 176.507812 C 493.402344 173.285156 493.402344 168.046875 490.183594 164.824219 " fill-opacity="1" fill-rule="nonzero"/><path fill="#bdb2a7" d="M 416.65625 252.664062 L 401.734375 237.738281 L 393.71875 245.753906 L 408.640625 260.679688 L 416.65625 252.664062 " fill-opacity="1" fill-rule="nonzero"/><path fill="#bdb2a7" d="M 334.222656 293.304688 L 340.195312 299.277344 L 374.265625 265.210938 L 368.289062 259.234375 L 334.222656 293.304688 " fill-opacity="1" fill-rule="nonzero"/><g clip-path="url(#71bce12445)"><path fill="#bdb2a7" d="M 317.898438 330.527344 L 323.871094 336.5 L 392.914062 267.453125 L 386.945312 261.480469 L 317.898438 330.527344 " fill-opacity="1" fill-rule="nonzero"/></g><path fill="#bdb2a7" d="M 344.550781 324.769531 L 350.523438 330.742188 L 395.160156 286.105469 L 389.1875 280.132812 L 344.550781 324.769531 " fill-opacity="1" fill-rule="nonzero"/><g clip-path="url(#df04e3d616)"><g clip-path="url(#049697129d)"><path fill="#f5b462" d="M 593.117188 151.949219 L 649.195312 151.949219 L 649.195312 205.3125 L 593.117188 205.3125 Z M 593.117188 151.949219 " fill-opacity="1" fill-rule="nonzero"/></g></g><g clip-path="url(#361025cc4a)"><g clip-path="url(#f4cb9cb7c5)"><path fill="#f5b462" d="M 495.734375 20.957031 L 551.808594 20.957031 L 551.808594 74.324219 L 495.734375 74.324219 Z M 495.734375 20.957031 " fill-opacity="1" fill-rule="nonzero"/></g></g></svg>