<svg xmlns="http://www.w3.org/2000/svg" xmlns:xlink="http://www.w3.org/1999/xlink" width="308" zoomAndPan="magnify" viewBox="0 0 230.87999 165.750002" height="221" preserveAspectRatio="xMidYMid meet" version="1.0"><defs><g/><clipPath id="1177b29707"><path d="M 17.882812 50.914062 L 214.082031 50.914062 L 214.082031 137.03125 L 17.882812 137.03125 Z M 17.882812 50.914062 " clip-rule="nonzero"/></clipPath><clipPath id="faa86fa8a3"><path d="M 55.320312 50.914062 L 176.863281 50.914062 C 197.539062 50.914062 214.304688 67.675781 214.304688 88.355469 L 214.304688 99.941406 C 214.304688 120.621094 197.539062 137.382812 176.863281 137.382812 L 55.320312 137.382812 C 34.644531 137.382812 17.882812 120.621094 17.882812 99.941406 L 17.882812 88.355469 C 17.882812 67.675781 34.644531 50.914062 55.320312 50.914062 Z M 55.320312 50.914062 " clip-rule="nonzero"/></clipPath></defs><g clip-path="url(#1177b29707)"><g clip-path="url(#faa86fa8a3)"><path fill="#bdb2a7" d="M 67.304688 47.917969 L 76.289062 47.917969 L 76.289062 53.910156 L 67.304688 53.910156 Z M 79.285156 47.917969 L 88.273438 47.917969 L 88.273438 53.910156 L 79.285156 53.910156 Z M 91.265625 47.917969 L 100.253906 47.917969 L 100.253906 53.910156 L 91.265625 53.910156 Z M 103.25 47.917969 L 112.234375 47.917969 L 112.234375 53.910156 L 103.25 53.910156 Z M 115.230469 47.917969 L 124.21875 47.917969 L 124.21875 53.910156 L 115.230469 53.910156 Z M 127.214844 47.917969 L 136.199219 47.917969 L 136.199219 53.910156 L 127.214844 53.910156 Z M 139.195312 47.917969 L 148.183594 47.917969 L 148.183594 53.910156 L 139.195312 53.910156 Z M 151.175781 47.917969 L 160.164062 47.917969 L 160.164062 53.910156 L 151.175781 53.910156 Z M 163.160156 47.917969 L 172.144531 47.917969 L 172.144531 53.910156 L 163.160156 53.910156 Z M 175.140625 47.917969 L 176.863281 47.917969 C 179.5 47.917969 182.105469 48.167969 184.675781 48.671875 L 183.523438 54.550781 C 181.335938 54.121094 179.113281 53.910156 176.863281 53.910156 L 175.140625 53.910156 Z M 187.84375 49.425781 C 190.972656 50.308594 193.953125 51.550781 196.789062 53.160156 L 193.832031 58.371094 C 191.417969 57.003906 188.882812 55.945312 186.21875 55.195312 Z M 199.53125 54.863281 C 202.222656 56.6875 204.660156 58.808594 206.84375 61.222656 L 202.402344 65.242188 C 200.539062 63.183594 198.460938 61.378906 196.167969 59.824219 Z M 208.917969 63.703125 C 210.910156 66.289062 212.558594 69.066406 213.871094 72.042969 L 208.390625 74.460938 C 207.273438 71.929688 205.867188 69.5625 204.171875 67.359375 Z M 215.054688 75.042969 C 216.125 78.105469 216.8125 81.261719 217.117188 84.503906 L 211.152344 85.066406 C 210.890625 82.304688 210.308594 79.621094 209.398438 77.015625 Z M 217.292969 87.785156 L 217.296875 88.332031 L 217.296875 96.804688 L 211.308594 96.804688 L 211.308594 88.375 L 211.304688 87.828125 Z M 217.296875 99.796875 L 217.296875 99.941406 C 217.296875 103.164062 216.925781 106.328125 216.179688 109.433594 L 210.351562 108.03125 C 210.988281 105.386719 211.308594 102.691406 211.308594 99.941406 L 211.308594 99.796875 Z M 215.292969 112.558594 C 214.277344 115.644531 212.910156 118.566406 211.1875 121.328125 L 206.105469 118.15625 C 207.574219 115.804688 208.738281 113.316406 209.597656 110.691406 Z M 209.363281 124.003906 C 207.429688 126.617188 205.210938 128.960938 202.707031 131.042969 L 198.878906 126.4375 C 201.007812 124.664062 202.902344 122.664062 204.550781 120.433594 Z M 200.136719 133.011719 C 197.472656 134.890625 194.628906 136.421875 191.605469 137.605469 L 189.417969 132.027344 C 191.996094 131.019531 194.417969 129.714844 196.683594 128.117188 Z M 188.554688 138.664062 C 185.445312 139.597656 182.265625 140.152344 179.007812 140.324219 L 178.691406 134.339844 C 181.46875 134.195312 184.179688 133.722656 186.824219 132.925781 Z M 175.824219 140.378906 L 166.835938 140.378906 L 166.835938 134.386719 L 175.824219 134.386719 Z M 163.839844 140.378906 L 154.855469 140.378906 L 154.855469 134.386719 L 163.839844 134.386719 Z M 151.859375 140.378906 L 142.871094 140.378906 L 142.871094 134.386719 L 151.859375 134.386719 Z M 139.875 140.378906 L 130.890625 140.378906 L 130.890625 134.386719 L 139.875 134.386719 Z M 127.894531 140.378906 L 118.910156 140.378906 L 118.910156 134.386719 L 127.894531 134.386719 Z M 115.914062 140.378906 L 106.925781 140.378906 L 106.925781 134.386719 L 115.914062 134.386719 Z M 103.929688 140.378906 L 94.945312 140.378906 L 94.945312 134.386719 L 103.929688 134.386719 Z M 91.949219 140.378906 L 82.960938 140.378906 L 82.960938 134.386719 L 91.949219 134.386719 Z M 79.96875 140.378906 L 70.980469 140.378906 L 70.980469 134.386719 L 79.96875 134.386719 Z M 67.984375 140.378906 L 59 140.378906 L 59 134.386719 L 67.984375 134.386719 Z M 56.003906 140.378906 L 55.320312 140.378906 C 52.300781 140.378906 49.328125 140.050781 46.40625 139.390625 L 47.71875 133.546875 C 50.210938 134.109375 52.742188 134.386719 55.320312 134.386719 L 56.003906 134.386719 Z M 43.261719 138.550781 C 40.160156 137.582031 37.214844 136.253906 34.429688 134.570312 L 37.527344 129.441406 C 39.902344 130.878906 42.40625 132.007812 45.046875 132.832031 Z M 31.730469 132.789062 C 29.089844 130.890625 26.714844 128.703125 24.597656 126.234375 L 29.148438 122.335938 C 30.953125 124.445312 32.980469 126.304688 35.230469 127.925781 Z M 22.589844 123.691406 C 20.671875 121.054688 19.101562 118.230469 17.871094 115.222656 L 23.417969 112.957031 C 24.464844 115.519531 25.804688 117.921875 27.4375 120.167969 Z M 16.773438 112.191406 C 15.792969 109.097656 15.191406 105.925781 14.976562 102.671875 L 20.953125 102.273438 C 21.136719 105.042969 21.648438 107.746094 22.484375 110.378906 Z M 14.886719 99.441406 L 14.886719 90.453125 L 20.875 90.453125 L 20.875 99.441406 Z M 14.898438 87.371094 C 14.976562 84.101562 15.4375 80.902344 16.285156 77.769531 L 22.070312 79.332031 C 21.347656 82 20.953125 84.726562 20.886719 87.511719 Z M 17.257812 74.679688 C 18.355469 71.625 19.804688 68.738281 21.605469 66.027344 L 26.597656 69.335938 C 25.0625 71.648438 23.828125 74.105469 22.894531 76.703125 Z M 23.5 63.398438 C 25.511719 60.84375 27.792969 58.558594 30.347656 56.546875 L 34.050781 61.257812 C 31.871094 62.972656 29.925781 64.917969 28.214844 67.097656 Z M 32.972656 54.648438 C 35.6875 52.847656 38.570312 51.394531 41.625 50.296875 L 43.65625 55.933594 C 41.054688 56.871094 38.597656 58.105469 36.289062 59.640625 Z M 44.714844 49.324219 C 47.847656 48.472656 51.046875 48.011719 54.3125 47.929688 L 54.460938 53.917969 C 51.675781 53.988281 48.949219 54.382812 46.28125 55.105469 Z M 55.320312 47.917969 L 64.308594 47.917969 L 64.308594 53.910156 L 55.320312 53.910156 Z M 55.320312 47.917969 " fill-opacity="1" fill-rule="nonzero"/></g></g><g fill="#bdb2a7" fill-opacity="1"><g transform="translate(38.574899, 113.508648)"><g><path d="M 15.375 0.78125 C 11.695312 0.78125 8.742188 -0.316406 6.515625 -2.515625 C 4.296875 -4.722656 3.109375 -7.6875 2.953125 -11.40625 C 2.953125 -11.925781 3.207031 -12.1875 3.71875 -12.1875 L 6.59375 -12.1875 C 7.113281 -12.1875 7.375 -11.925781 7.375 -11.40625 C 7.632812 -6.132812 10.300781 -3.5 15.375 -3.5 C 17.644531 -3.5 19.375 -4.066406 20.5625 -5.203125 C 21.757812 -6.335938 22.359375 -7.835938 22.359375 -9.703125 C 22.359375 -11.671875 21.671875 -13.179688 20.296875 -14.234375 C 18.921875 -15.296875 16.8125 -16.398438 13.96875 -17.546875 C 11.695312 -18.523438 9.847656 -19.425781 8.421875 -20.25 C 6.992188 -21.082031 5.789062 -22.222656 4.8125 -23.671875 C 3.832031 -25.117188 3.34375 -26.929688 3.34375 -29.109375 C 3.34375 -31.023438 3.804688 -32.769531 4.734375 -34.34375 C 5.660156 -35.925781 6.976562 -37.195312 8.6875 -38.15625 C 10.394531 -39.113281 12.335938 -39.59375 14.515625 -39.59375 C 18.242188 -39.59375 21.085938 -38.582031 23.046875 -36.5625 C 25.015625 -34.539062 26.078125 -31.742188 26.234375 -28.171875 C 26.234375 -27.660156 25.976562 -27.40625 25.46875 -27.40625 L 22.59375 -27.40625 C 22.070312 -27.40625 21.8125 -27.660156 21.8125 -28.171875 C 21.707031 -30.296875 21.046875 -32.015625 19.828125 -33.328125 C 18.617188 -34.648438 16.925781 -35.3125 14.75 -35.3125 C 12.675781 -35.3125 10.992188 -34.726562 9.703125 -33.5625 C 8.410156 -32.40625 7.765625 -30.921875 7.765625 -29.109375 C 7.765625 -27.296875 8.421875 -25.882812 9.734375 -24.875 C 11.054688 -23.863281 13.113281 -22.789062 15.90625 -21.65625 C 18.1875 -20.675781 20.0625 -19.757812 21.53125 -18.90625 C 23.007812 -18.050781 24.253906 -16.875 25.265625 -15.375 C 26.273438 -13.875 26.78125 -11.984375 26.78125 -9.703125 C 26.78125 -7.785156 26.300781 -6.035156 25.34375 -4.453125 C 24.382812 -2.878906 23.035156 -1.613281 21.296875 -0.65625 C 19.566406 0.300781 17.59375 0.78125 15.375 0.78125 Z M 15.375 0.78125 "/></g></g></g><g fill="#bdb2a7" fill-opacity="1"><g transform="translate(65.584099, 113.508648)"><g><path d="M 15.453125 0.78125 C 11.878906 0.78125 8.992188 -0.367188 6.796875 -2.671875 C 4.597656 -4.972656 3.5 -7.882812 3.5 -11.40625 L 3.5 -27.40625 C 3.5 -30.925781 4.597656 -33.835938 6.796875 -36.140625 C 8.992188 -38.441406 11.878906 -39.59375 15.453125 -39.59375 C 19.015625 -39.59375 21.894531 -38.441406 24.09375 -36.140625 C 26.300781 -33.835938 27.40625 -30.925781 27.40625 -27.40625 L 27.40625 -11.40625 C 27.40625 -7.882812 26.300781 -4.972656 24.09375 -2.671875 C 21.894531 -0.367188 19.015625 0.78125 15.453125 0.78125 Z M 15.453125 -3.421875 C 17.722656 -3.421875 19.53125 -4.15625 20.875 -5.625 C 22.226562 -7.101562 22.90625 -9.03125 22.90625 -11.40625 L 22.90625 -27.40625 C 22.90625 -29.78125 22.226562 -31.703125 20.875 -33.171875 C 19.53125 -34.648438 17.722656 -35.390625 15.453125 -35.390625 C 13.171875 -35.390625 11.359375 -34.648438 10.015625 -33.171875 C 8.671875 -31.703125 8 -29.78125 8 -27.40625 L 8 -11.40625 C 8 -9.03125 8.671875 -7.101562 10.015625 -5.625 C 11.359375 -4.15625 13.171875 -3.421875 15.453125 -3.421875 Z M 15.453125 -3.421875 "/></g></g></g><g fill="#d8cfc6" fill-opacity="1"><g transform="translate(93.768992, 113.508648)"><g><path d="M 2.09375 -17.78125 C 1.570312 -17.78125 1.3125 -18.035156 1.3125 -18.546875 L 1.3125 -21.34375 C 1.3125 -21.863281 1.570312 -22.125 2.09375 -22.125 L 19.953125 -22.125 C 20.460938 -22.125 20.71875 -21.863281 20.71875 -21.34375 L 20.71875 -18.546875 C 20.71875 -18.035156 20.460938 -17.78125 19.953125 -17.78125 Z M 2.09375 -17.78125 "/></g></g></g><g fill="#615142" fill-opacity="1"><g transform="translate(113.09921, 113.508648)"><g><path d="M 4.34375 0 C 3.46875 0 3.03125 -0.460938 3.03125 -1.390625 L 3.03125 -26.625 C 3.03125 -30.507812 4.191406 -33.664062 6.515625 -36.09375 C 8.847656 -38.53125 11.90625 -39.75 15.6875 -39.75 C 19.457031 -39.75 22.503906 -38.53125 24.828125 -36.09375 C 27.160156 -33.664062 28.328125 -30.507812 28.328125 -26.625 L 28.328125 -1.390625 C 28.328125 -0.460938 27.890625 0 27.015625 0 L 20.578125 0 C 19.640625 0 19.171875 -0.460938 19.171875 -1.390625 L 19.171875 -27.09375 C 19.171875 -28.28125 18.859375 -29.25 18.234375 -30 C 17.617188 -30.75 16.769531 -31.125 15.6875 -31.125 C 14.59375 -31.125 13.722656 -30.757812 13.078125 -30.03125 C 12.429688 -29.3125 12.109375 -28.332031 12.109375 -27.09375 L 12.109375 -1.390625 C 12.109375 -0.460938 11.671875 0 10.796875 0 Z M 4.34375 0 "/></g></g></g><g fill="#615142" fill-opacity="1"><g transform="translate(141.738292, 113.508648)"><g><path d="M 10.796875 -38.8125 C 11.671875 -38.8125 12.109375 -38.347656 12.109375 -37.421875 L 12.109375 -11.71875 C 12.109375 -10.476562 12.429688 -9.492188 13.078125 -8.765625 C 13.722656 -8.046875 14.59375 -7.6875 15.6875 -7.6875 C 16.769531 -7.6875 17.617188 -8.0625 18.234375 -8.8125 C 18.859375 -9.5625 19.171875 -10.53125 19.171875 -11.71875 L 19.171875 -37.421875 C 19.171875 -38.347656 19.640625 -38.8125 20.578125 -38.8125 L 27.015625 -38.8125 C 27.890625 -38.8125 28.328125 -38.347656 28.328125 -37.421875 L 28.328125 -12.1875 C 28.328125 -8.300781 27.160156 -5.140625 24.828125 -2.703125 C 22.503906 -0.273438 19.457031 0.9375 15.6875 0.9375 C 11.90625 0.9375 8.847656 -0.273438 6.515625 -2.703125 C 4.191406 -5.140625 3.03125 -8.300781 3.03125 -12.1875 L 3.03125 -37.421875 C 3.03125 -38.347656 3.46875 -38.8125 4.34375 -38.8125 Z M 10.796875 -38.8125 "/></g></g></g><g fill="#615142" fill-opacity="1"><g transform="translate(170.377373, 113.508648)"><g><path d="M 4.34375 0 C 3.46875 0 3.03125 -0.460938 3.03125 -1.390625 L 3.03125 -23.515625 C 3.03125 -28.328125 4.320312 -32.09375 6.90625 -34.8125 C 9.5 -37.53125 12.992188 -38.890625 17.390625 -38.890625 L 19.640625 -38.890625 C 20.566406 -38.890625 21.03125 -38.425781 21.03125 -37.5 L 21.03125 -31.59375 C 21.03125 -30.71875 20.566406 -30.28125 19.640625 -30.28125 L 17.703125 -30.28125 C 15.992188 -30.28125 14.632812 -29.773438 13.625 -28.765625 C 12.613281 -27.753906 12.109375 -26.367188 12.109375 -24.609375 L 12.109375 -1.390625 C 12.109375 -0.460938 11.671875 0 10.796875 0 Z M 4.34375 0 "/></g></g></g></svg>